<svg id="Livello_1" data-name="Livello 1" xmlns="http://www.w3.org/2000/svg" viewBox="0 0 595.28 841.89"><defs><style>.cls-1{fill:#5057a3;}.cls-2{fill:#fff;}</style></defs><path class="cls-1" d="M581.1,97.68V352.37c0,38.79-31.2,70.19-69.75,70.19h-47c-8.26-9.47-14-21.7-18.12-37.17-6.43-24.25-4.82-48.73-2.76-73.89,3-34.87,1.61-65.12-4.36-92.83a147.15,147.15,0,0,0-14.22-40.18C409.72,151,386.54,137.62,356,139a14.07,14.07,0,0,1-10.56-3.93A74.41,74.41,0,0,0,292.7,115c-47.49.92-81.9,18.47-105.3,53.57-10.79,16.62-17.9,35.79-22.49,62.8-4.36,24.48-4.36,48.26-4.13,68.81A418.36,418.36,0,0,1,155.73,372c-2.75,16.86-7.34,30.48-14,42.26a62.65,62.65,0,0,1-5.51,8.08H74.28a60.22,60.22,0,0,1-60.11-60.5V97.68A35.75,35.75,0,0,1,50,61.89H545.08A35.8,35.8,0,0,1,581.1,97.68Z"/><path class="cls-1" d="M399.16,255.39l-.46-1.62-1.83.23H394.8c-36.25,0-65.62-25.17-65.62-56.11A42.52,42.52,0,0,1,330.56,187l3.67-15.47-7.57,13.85c-15.83,28.86-52.77,55-96.59,68.12a192.08,192.08,0,0,1-27.76,6.23l-1.38.23-.46,1.39a149.33,149.33,0,0,0-5,39c0,58.65,32.57,108.3,77.08,123.31a90.09,90.09,0,0,0,61.72-1.85c41.53-16.86,71.59-65.12,71.59-121.23A156.39,156.39,0,0,0,399.16,255.39ZM334.46,417a86.08,86.08,0,0,1-33.95,7.16c-55.76,0-101.18-55.42-101.18-123.77a151.92,151.92,0,0,1,4.58-36.71,253.4,253.4,0,0,0,26.85-6.24c40.84-12,75.71-35.09,93.84-61.42v1.62c0,33.25,31.43,60.27,70,60.27h.69a138.33,138.33,0,0,1,6,42.25C401.46,354.21,373.47,399.93,334.46,417Z"/><path class="cls-1" d="M300.79,432.89a94.22,94.22,0,0,1-29.71-4.79c-47.26-15.93-80.24-68.44-80.24-127.69a153.82,153.82,0,0,1,5.21-40.24l.53-1.63.87-2.63,4.1-.69a188.19,188.19,0,0,0,27.2-6.1c42.64-12.81,78.61-38.07,93.89-65.93l23.95-43.81L335,188.11a38.07,38.07,0,0,0-1.25,9.78c0,28.39,27.38,51.49,61,51.49h1.78l5.46-.68,1.52,5.39a162.11,162.11,0,0,1,6.84,46.55c0,57-29.92,107.43-74.45,125.51A95,95,0,0,1,300.79,432.89ZM207.68,267.71a146.87,146.87,0,0,0-3.76,32.7c0,65.7,43.33,119.15,96.59,119.15a81.37,81.37,0,0,0,32.14-6.78c38.49-16.88,64.2-62.11,64-112.58a133.28,133.28,0,0,0-4.83-37.7c-35.75-1.14-65.16-24.29-70.82-54.3-20.06,23.3-52.39,43-88.94,53.7C224.14,264.2,216,266.15,207.68,267.71Z"/><path class="cls-1" d="M277.33,592.74a6.78,6.78,0,0,1-.46-2.08c-.23-.69-.23-1.39-.45-2.08"/><path class="cls-1" d="M22.2,779.77s24.09-178,61-229.75,137.89-59.57,137.89-59.57,32.58,98.36,79.39,101.6,91.08-101.6,91.08-101.6,93.84,11.08,126,62.8,61,226.75,61,226.75H22.2Z"/><ellipse class="cls-2" cx="300.51" cy="601.97" rx="7.57" ry="7.62"/><ellipse class="cls-2" cx="300.51" cy="627.6" rx="7.57" ry="7.62"/><ellipse class="cls-2" cx="300.51" cy="653.24" rx="7.57" ry="7.62"/><path class="cls-1" d="M487.49,435l-1.14-.69c-.69-.46-1.38-.7-2.07-1.16l-3-1.84a89.18,89.18,0,0,1-7.57-5.08c-12.62-9.93-20.88-23.79-26.16-43.88-6-23.09-4.59-46.87-2.52-71.12,3-34.63,1.6-64.65-4.13-92.36a140.52,140.52,0,0,0-14.46-40.64c-15.83-28.4-39.92-42-71.58-40.87a9.46,9.46,0,0,1-7.34-2.77,77.55,77.55,0,0,0-54.38-20.78c-48.18.92-83.28,18.7-106.91,54.49-11,16.86-18.13,36.26-22.72,63.27-4.36,24.48-4.36,48.26-4.13,68.35a395.72,395.72,0,0,1-5,70c-2.53,15.94-6.89,28.87-13.31,39.95a50.25,50.25,0,0,1-20,19.86L114,433.64l-3.22,1.62,1.61,2.08A84,84,0,0,0,136,457c18.82,9.69,40.61,15.7,66.31,18.24,8.26.69,16.52.92,24.09,1.15l28.45-.46v-4.16l-28.45.47c-7.34-.24-15.6-.47-23.63-1.16-25.24-2.31-46.35-8.08-64.7-17.78a72.1,72.1,0,0,1-20.65-16.62l5.5-3a55.83,55.83,0,0,0,21.8-21.47c6.88-11.54,11.24-24.94,14-41.56a405.22,405.22,0,0,0,5-70.66c-.46-19.86-.23-43.41,3.9-67.42l1.38-7.62a13.78,13.78,0,0,1,2.07-9.47c.22-.69.45-1.62.68-2.31a12.77,12.77,0,0,1,2.3-8.08,121.31,121.31,0,0,1,15.6-33.94c22.71-34.64,56.67-52,103.47-52.65a74,74,0,0,1,51.63,19.86A13.93,13.93,0,0,0,355.11,142c30.06-1.15,52.77,11.78,67.68,38.79A142.31,142.31,0,0,1,437,220.29c5.73,27.25,7.11,57,4.13,91.21-2.07,24.7-3.44,48.72,2.75,72.5,5.51,21,14.23,35.56,27.53,45.95,2.76,1.85,5.28,3.69,8,5.31l2.76,1.85,1.37.69-.46.46c-15.6,14.09-35.33,23.32-60.8,27.94-12.16,2.08-24.54,3.23-36.25,4.16l-29.36.46V475l29.36-.47c11.93-1.15,24.32-2.07,36.71-4.38,26.39-4.85,46.81-14.32,62.87-28.87a9,9,0,0,0,1.83-2.3,3.1,3.1,0,0,1,.69-.93l1.38-1.85Z"/><path class="cls-1" d="M226.47,481l-1.3,0c-7.15-.21-15.26-.46-23.24-1.13-26.4-2.61-48.62-8.73-68-18.73a89.24,89.24,0,0,1-25.07-20.79l-5.13-6.64,8.22-4.14,6.95-3.84A45.58,45.58,0,0,0,137,407.62c6.22-10.73,10.39-23.27,12.79-38.43a394.46,394.46,0,0,0,5-69.15c-.25-21.73-.13-45,4.2-69.25,4.63-27.26,11.85-47.32,23.39-65,24.51-37.12,60.7-55.62,110.67-56.58a81.55,81.55,0,0,1,57.57,22,5,5,0,0,0,3.85,1.56c33.77-1.23,59.3,13.31,76,43.21a145.74,145.74,0,0,1,14.95,42c5.83,28.12,7.2,58.77,4.2,93.63-2,23.9-3.38,47.2,2.39,69.56,5,19,12.79,32.15,24.54,41.4a59.57,59.57,0,0,0,5.51,3.74l4.63,2.89a6.29,6.29,0,0,0,.67.38,12.43,12.43,0,0,1,1.53.87l2.9,1.65,4.6,2.57-4.9,6.52a13.69,13.69,0,0,1-2.59,3.29l-.17.17c-16.78,15.2-38.08,25-65.11,30-10.54,2-21,2.94-31.16,3.88l-6.3.58-34,.54v-13.4l33.74-.53c10.82-.85,23.51-2,35.7-4.09,22-4,39.84-11.6,54.25-23.2-1.6-1-3.13-2.06-4.62-3.08l-2.31-1.58-.27-.19c-14.13-11-23.39-26.42-29.16-48.42-6.34-24.38-5-48.95-2.88-74.07,2.93-33.61,1.6-63-4.05-89.86A138.65,138.65,0,0,0,418.75,183c-14.1-25.55-34.87-37.48-63.46-36.36a18.36,18.36,0,0,1-13.6-4.91,69.16,69.16,0,0,0-48.47-18.64c-45.21.67-77.82,17.21-99.7,50.57a116.46,116.46,0,0,0-15,32.72l-.21.71-.42.62a8.08,8.08,0,0,0-1.48,5.05l.07.94-.29.89c-.1.29-.19.63-.28,1-.14.48-.28,1-.41,1.36l-.2.59-.34.51a9.18,9.18,0,0,0-1.34,6.25l.11.75-1.51,8.35c-4.19,24.37-4.25,48.34-3.83,66.49a410.56,410.56,0,0,1-5.1,71.49c-2.94,17.71-7.57,31.44-14.59,43.22a60.5,60.5,0,0,1-23.52,23.14l-.3.16a67.18,67.18,0,0,0,15.37,11.34c17.72,9.36,38.32,15,63,17.26,7.43.64,15.22.89,22.1,1.1l1.26,0,32.9-.54v13.39Z"/><path class="cls-2" d="M36.79,279.91a139.69,139.69,0,0,1,42.66-12.52c4-1,6-5,5-9a7.49,7.49,0,0,0-8.93-5,169.39,169.39,0,0,0-46.14,14,7.34,7.34,0,0,0-2.48,10A7.2,7.2,0,0,0,36.79,279.91Z"/><path class="cls-2" d="M43.23,317a663.23,663.23,0,0,1-2.48-88.66,63.94,63.94,0,0,1,.5-10c0-1.5,0-4,1.49-5,3-2.5,7.94,3.51,9.42,5C60.6,229.82,68,241.84,75.48,253.86c8.93,13.53,17.37,27.55,25.8,41.58,5,8,17.36.5,12.4-7.52-8.43-14-16.86-28.05-25.79-41.57-4.47-7-8.93-13.52-13.4-20a163.54,163.54,0,0,0-13.4-19,22.72,22.72,0,0,0-17.86-8.52c-7.93.5-13.89,6.52-15.38,14.53a174.35,174.35,0,0,0-1.48,23c-.5,8.52-.5,16.53-.5,25a539.36,539.36,0,0,0,3,56.6,7.12,7.12,0,0,0,6.94,7,9.54,9.54,0,0,0,7.44-8Z"/><path class="cls-2" d="M172.72,223.31A254,254,0,0,1,141,166.71c-2-5-4-10-5-15a10.26,10.26,0,0,1,0-5.51c.5-.5,1.49-1,2-1.5a6.89,6.89,0,0,1,7.45,1.5,19.16,19.16,0,0,1,5,10,29.5,29.5,0,0,1-10.92,26c-6.45,5.51,2,15.53,8.44,11.52,14.38-9,34.23-23,52.09-14,6,3,12.4,9,12.9,16.53.49,8-6.45,14-12.9,17.53-9.92,6-21.83,8-31.75,14.53-7.94,5-.5,17.53,7.44,12.52,10.42-6.51,22.32-8.52,32.74-15,9.93-6,17.86-15.53,18.36-27.55.5-11.52-6.45-21.54-14.88-28a44.44,44.44,0,0,0-32.75-7c-13.89,2.5-26.79,10-38.7,18l8.44,11.52a41.68,41.68,0,0,0,14.88-33.56c0-12-6.45-26-19.35-29.05s-25.79,6.51-23.81,20.54a98.53,98.53,0,0,0,6.45,20.53c2.48,6.52,5.46,13,8.43,19a253.91,253.91,0,0,0,24.31,40.07,7.2,7.2,0,0,0,9.93,2.51,6.8,6.8,0,0,0,3-9.52Z"/><path class="cls-2" d="M308.66,152.18c-.5.5-1.49,1-2,1.5a35.61,35.61,0,0,1-33.24,1.51A37,37,0,0,1,261,96.58a26.66,26.66,0,0,1,14.88-9.52,12.69,12.69,0,0,1,7.45.5,5.43,5.43,0,0,1,4,4,7.19,7.19,0,0,0,9.92,2.51c3.47-1.51,4.46-6,3-9.52C292.78,69,271,71,259.05,79.55a54.7,54.7,0,0,0-21.83,42.58c-.5,36.06,38.69,61.61,70.94,47.08a20.09,20.09,0,0,0,4.47-2.5A30.43,30.43,0,0,1,308.66,152.18Z"/></svg>