<svg id="Livello_1" data-name="Livello 1" xmlns="http://www.w3.org/2000/svg" viewBox="0 0 244.83 312.09"><defs><style>.cls-1{fill:#5156a1;}.cls-2{fill:#fff;}</style></defs><path class="cls-1" d="M244.75,16.73V127.06a30.37,30.37,0,0,1-30.37,30.36H193.79c-3.56-4.14-6.12-9.37-7.88-16.07-2.78-10.51-2.13-21.1-1.2-32,1.3-15.06.74-28.17-1.86-40.17a62.17,62.17,0,0,0-6.23-17.38c-6.6-11.9-16.74-17.67-30-17.11A5.93,5.93,0,0,1,142,33a32.7,32.7,0,0,0-23-8.74c-20.73.37-35.7,8-45.93,23.24-4.74,7.16-7.81,15.53-9.76,27.15-1.86,10.6-2,20.92-1.77,29.75a174.71,174.71,0,0,1-2.23,31.15,52.34,52.34,0,0,1-6.14,18.31,23.4,23.4,0,0,1-2.35,3.46h-27A26.2,26.2,0,0,1-2.27,131.15V16.69A15.55,15.55,0,0,1,13.35,1.22h215.8A15.56,15.56,0,0,1,244.75,16.73Z"/><path class="cls-2" d="M18.5,72.47A124.07,124.07,0,0,1,18,54.8a19.88,19.88,0,0,1,.11-2c0-.3,0-.81.28-1,.58-.53,1.57.65,1.86,1C22,55,23.49,57.48,25,59.85q2.65,4.11,5.17,8.3c1,1.59,3.48.14,2.5-1.46q-2.5-4.19-5.17-8.3c-.88-1.37-1.78-2.73-2.69-4a39.06,39.06,0,0,0-2.68-3.82,4.53,4.53,0,0,0-3.65-1.71,3.44,3.44,0,0,0-3.09,2.87,28,28,0,0,0-.32,4.58c-.05,1.66-.08,3.32-.06,5q0,5.63.57,11.25A1.5,1.5,0,0,0,17,74a1.46,1.46,0,0,0,1.45-1.45Z"/><path class="cls-2" d="M17.2,65.14a29.62,29.62,0,0,1,8.58-2.52,1.43,1.43,0,0,0,1-1.76,1.49,1.49,0,0,0-1.77-1,31.31,31.31,0,0,0-9.26,2.81,1.46,1.46,0,0,0-.51,2A1.47,1.47,0,0,0,17.2,65.14Z"/><path class="cls-2" d="M44.63,53.83a46.22,46.22,0,0,1-6.36-11.32,27.23,27.23,0,0,1-1-3,1.36,1.36,0,0,1,0-1,1.42,1.42,0,0,1,.41-.28,1.36,1.36,0,0,1,1.48.3,3.42,3.42,0,0,1,1,2,5.78,5.78,0,0,1-2.16,5.17c-1.27,1,.38,3.15,1.74,2.28,2.89-1.83,6.94-4.58,10.47-2.82,1.25.63,2.54,1.81,2.6,3.28s-1.31,2.78-2.6,3.51c-2,1.16-4.37,1.61-6.36,2.86-1.57,1-.12,3.47,1.46,2.5,2.07-1.31,4.54-1.74,6.64-3a7.08,7.08,0,0,0,3.74-5.45,6.62,6.62,0,0,0-3-5.57A8.58,8.58,0,0,0,46,41.85c-2.85.46-5.39,2-7.79,3.56L40,47.68A8.58,8.58,0,0,0,43,41c0-2.38-1.32-5.2-3.89-5.78a3.85,3.85,0,0,0-4.84,4.12,17,17,0,0,0,1.28,4.12c.51,1.29,1.06,2.57,1.67,3.82a47.81,47.81,0,0,0,4.9,8,1.52,1.52,0,0,0,2,.52,1.46,1.46,0,0,0,.51-2Z"/><path class="cls-2" d="M70.32,26c-1.51-3.14-5.9-2.71-8.3-1a10.73,10.73,0,0,0-4.38,8.49C57.54,40.69,65.45,45.76,72,43a10.83,10.83,0,0,0,6.36-8.68,1.45,1.45,0,0,0-1.44-1.45,1.48,1.48,0,0,0-1.45,1.45,7.87,7.87,0,0,1-3.86,5.62,7.17,7.17,0,0,1-6.73.26,7.54,7.54,0,0,1-4.26-5.36,7.69,7.69,0,0,1,1.83-6.3,5.34,5.34,0,0,1,3-1.88,3.22,3.22,0,0,1,1.51.07,1.23,1.23,0,0,1,.82.78A1.45,1.45,0,0,0,70.3,26Z"/><path class="cls-1" d="M165.37,85l-.19-.74-.83.09h-.93c-15.81,0-28.64-10.88-28.64-24.27a20.54,20.54,0,0,1,.56-4.74l1.58-6.69-3.26,6c-6.88,12.55-23,23.8-42.11,29.47a89.09,89.09,0,0,1-12.09,2.7L78.9,87l-.18.56a65.35,65.35,0,0,0-2.23,16.92c0,25.38,14.22,46.86,33.65,53.37A38.77,38.77,0,0,0,137,157c18.13-7.35,31.24-28.17,31.24-52.53A66.31,66.31,0,0,0,165.37,85ZM137.2,155a36.69,36.69,0,0,1-14.78,3.07c-24.27,0-44.07-24-44.07-53.56a64.92,64.92,0,0,1,2-15.89A106.77,106.77,0,0,0,92,85.93c17.76-5.21,33-15.25,40.91-26.59v.74c0,14.41,13.67,26.13,30.5,26.13h.27a60.75,60.75,0,0,1,2.61,18.31C166.39,127.77,154.21,147.57,137.2,155Z"/><path class="cls-1" d="M112.34,231.1c-.09-.27-.16-.56-.24-.85s-.13-.57-.19-.86"/><path class="cls-1" d="M1.15,312.09S11.66,235,27.78,212.56s60.07-25.8,60.07-25.8,14.22,42.62,34.55,44,39.75-44,39.75-44S203,191.54,217,213.92s26.63,98.17,26.63,98.17Z"/><circle class="cls-2" cx="122.4" cy="235.08" r="3.25"/><circle class="cls-2" cx="122.4" cy="246.17" r="3.25"/><circle class="cls-2" cx="122.4" cy="257.26" r="3.25"/><path class="cls-1" d="M90.14,180.68c-3.26-.09-6.91-.2-10.5-.55-11.23-1.06-20.68-3.65-28.88-7.94a35.29,35.29,0,0,1-10.29-8.5l-.75-.86,1.36-.74,3.1-1.67a22.4,22.4,0,0,0,8.75-8.6,48.64,48.64,0,0,0,5.84-17.34A170.53,170.53,0,0,0,61,104.21c-.15-8.7-.06-19,1.76-29.55,2-11.68,5.07-20.09,9.89-27.39C82.93,31.75,98.17,24,119.23,23.68a34,34,0,0,1,23.74,9,4.07,4.07,0,0,0,3.19,1.18c13.81-.54,24.3,5.43,31.17,17.74a61.3,61.3,0,0,1,6.34,17.58c2.52,12,3.12,25,1.83,40-.92,10.5-1.52,20.76,1.14,30.76,2.3,8.67,5.92,14.68,11.4,18.95a37.19,37.19,0,0,0,3.3,2.21l1.25.79a7.15,7.15,0,0,0,.91.48l.53.28.91.51-.64.84-.26.37a4.51,4.51,0,0,1-.8,1c-7,6.34-15.94,10.44-27.39,12.52-5.35,1-10.78,1.43-16,1.87L147,180v-1.83l12.79-.17c5.14-.43,10.51-.91,15.78-1.82,11.08-2,19.73-6,26.48-12.08l.21-.23c-.21-.11-.41-.23-.61-.35l-1.24-.77a40.08,40.08,0,0,1-3.45-2.33c-5.8-4.52-9.64-10.85-12-19.92-2.74-10.29-2.13-20.72-1.2-31.38,1.28-14.78.7-27.68-1.82-39.46a60.25,60.25,0,0,0-6.15-17.07c-6.51-11.66-16.44-17.35-29.51-16.8a5.88,5.88,0,0,1-4.47-1.65,32.12,32.12,0,0,0-22.51-8.57c-20.41.34-35.17,7.79-45.15,22.77-4.66,7-7.62,15.23-9.59,26.65-1.83,10.38-1.89,20.6-1.75,29.22a171.14,171.14,0,0,1-2.21,30.58,50.27,50.27,0,0,1-6.07,18A24.25,24.25,0,0,1,45,162l-2.43,1.31a32.25,32.25,0,0,0,9,7.23c8,4.18,17.22,6.7,28.22,7.75,3.53.33,7.15.44,10.34.53l12.39-.16v1.83Z"/></svg>