<svg id="Livello_1" data-name="Livello 1" xmlns="http://www.w3.org/2000/svg" viewBox="0 0 595.28 841.89"><defs><style>.cls-1{fill:#5057a3;}</style></defs><path class="cls-1" d="M22.12,773.18S46,597.92,82.59,547,214.9,470.62,214.9,470.62s36.6,114.8,83,118,86.16-118,86.16-118,97.3,28.64,129.13,79.56,60.46,223.23,60.46,223.23H22.12Z"/><path class="cls-1" d="M579,778H17.58l0-5.39c1-7.2,24.44-177,61.28-228.22,15.65-21.78,43.15-41.56,81.72-58.79a388.05,388.05,0,0,1,53.11-19.33l4.18-1.12,1.32,4.13c9.93,31.11,43.46,112.39,79,114.82C333.27,586.44,369,502,379.71,469.2l1.38-4.19,4.23,1.25c4,1.19,99.32,29.72,131.69,81.51,31.94,51.1,59.92,217.82,61.1,224.89Zm-551.66-9.1h540.9c-5.12-29.3-31.05-171.66-58.93-216.27-26.87-43-103.7-70.2-122.41-76.3a452.83,452.83,0,0,1-24.52,56.63c-21.81,41.41-43.65,61.66-64.81,60.21-20.93-1.43-42-22.51-62.61-62.64a439,439,0,0,1-23-54.3c-18.5,5.52-94.7,30.36-125.69,73.46C54.15,594.36,31.54,740.12,27.33,768.86Z"/><path class="cls-1" d="M576.13,775.46H19.62l.46-2.5C21,765.68,44.4,596.56,81,545.64c19.32-26.83,54.56-46.38,80.7-58.2a395.76,395.76,0,0,1,52.74-19.32l2.05-.45.68,2c.46,1.14,36.6,113.21,80.93,116.39s83.2-115.25,83.66-116.39l.68-2,2.05.68a406.84,406.84,0,0,1,53,20.91q57,27.28,77.52,59.79C546.8,599.74,574.53,765.91,575.9,773ZM24.85,770.91H570.9c-3.87-21.82-30.69-173-59.79-219.59-28.42-45.46-111.39-73.65-125.71-78-5.69,16.59-42.06,117.3-85.71,117.3h-2c-44.33-3-78.66-101.16-84.12-117.3-14.09,4.09-96.16,29.32-128.89,75C51,594.74,28,748.86,24.85,770.91Z"/><path class="cls-1" d="M581.1,780H14.17l1.41-7.75c.76-5.77,23.88-176.6,61.73-229.27,19.75-27.42,55.78-47.59,82.52-59.68a400.26,400.26,0,0,1,53.34-19.54l.29-.08,6-1.34,2,5.93h0c.06.14.12.34.21.6,17.14,50.67,47.51,110.59,76.74,112.68,15.7,1.16,33.75-16.5,52.26-51,13.5-25.17,23.08-51.57,26.57-61.75.08-.23.14-.42.19-.55h0l2.12-6.35,6.35,2.11a410.47,410.47,0,0,1,53.48,21.12c38.63,18.51,65.34,39.18,79.42,61.47,26.25,41.81,49.44,157.07,60.93,222.06.32,1.78.52,3,.61,3.41l.07.46Zm-551-13.64H565.47c-8.25-45.76-32.66-171.7-58.22-212.63-26-41.6-100.62-68.56-119-74.69-4.19,11.72-14,37.31-27.47,61.4-20.35,36.33-40.89,54.75-61.06,54.75h-2.35c-42.95-2.86-75.7-84.85-86.69-116.22-22.26,6.83-93,31.15-122.31,72.05C57.69,593.25,35.81,728.12,30.11,766.36Z"/><path class="cls-1" d="M444.73,143.28a21,21,0,0,0-8-8.64,10.19,10.19,0,0,1-1.59-1.36c-2-2.05-4.09-4.32-6.14-6.36l-.45-.46c-.68.46-1.14.68-1.82,1.14a23.21,23.21,0,0,1,.91,2.27,2.47,2.47,0,0,1,0,1.82c-.91,2.27-1.82,4.32-2.5,6.59a8.31,8.31,0,0,1-.91,2.5,16.5,16.5,0,0,0-2.5,15.46c.68,2.5,1.14,5.23,1.59,7.73a.83.83,0,0,0,.23.68,14.36,14.36,0,0,0,6.14-11.82,28.72,28.72,0,0,0-3-12.28,1.43,1.43,0,0,1,0-1.36c.68-1.82,1.14-3.64,1.82-5.23,0-.23.23-.45.45-.68a1.69,1.69,0,0,1,.23.91,64.65,64.65,0,0,1,1.82,28,1.27,1.27,0,0,1-.68,1.14c-1.82,1.59-3.41,3.18-5.23,4.77a7.14,7.14,0,0,1-2.5,2.05,15.85,15.85,0,0,0-8.19,11.13,38.65,38.65,0,0,1-2.27,8.87v.68c.46,0,1.14-.23,1.59-.23a20,20,0,0,0,3.87-1.81,17,17,0,0,0,5.68-6.37A28.22,28.22,0,0,0,425.63,171a2.43,2.43,0,0,1,.46-1.37l3.86-3.86c.23,0,.23-.23.46-.23V166a61.35,61.35,0,0,1-3.87,12.51,82.65,82.65,0,0,1-8.18,14.55,1.22,1.22,0,0,1-.91.45l-9.09,1.59h-1.14a16.06,16.06,0,0,0-13.64,5.23,39.28,39.28,0,0,1-6.37,5.91c-.22.23-.22.23-.22.45a.22.22,0,0,1,.22.23,15.18,15.18,0,0,0,13-.91,26.84,26.84,0,0,0,8.87-8.64,2.33,2.33,0,0,1,1.13-.91c1.82-.45,3.64-.68,5.46-1.13h.91l-.45.68c-.91,1.14-2,2.27-3,3.41a61.81,61.81,0,0,1-15.69,11.82,2.82,2.82,0,0,1-1.36.23c-2.5-.46-4.77-.91-7.27-1.37a17.75,17.75,0,0,1-3.41-.91,17.44,17.44,0,0,0-15,.69,75,75,0,0,1-7.5,3l-.45.23v.23l.22.22a14.64,14.64,0,0,0,9.55,3.64,22.1,22.1,0,0,0,13.87-5,3,3,0,0,1,2.27-.68c.91.23,2,.23,3,.45l2.5.68c-.23.23-.23.46-.46.46a64.93,64.93,0,0,1-26.14,6.14,1.93,1.93,0,0,1-1.36-.69c-.91-.68-1.6-1.59-2.28-2a17,17,0,0,0-12.27-3,40.15,40.15,0,0,1-5.23.46h-3.64l.23.45a15,15,0,0,0,9.32,7.28,22.12,22.12,0,0,0,12.73-.46A8,8,0,0,1,367,221a63.1,63.1,0,0,0,13-1.6l.91-.22a.49.49,0,0,1-.46.45c-1.13.91-2.5,2.05-3.63,3a1.76,1.76,0,0,1-1.14.22,16.16,16.16,0,0,0-15,4.78l-5.46,4.77c-.45.46-1.14.68-1.59,1.14a3.67,3.67,0,0,0,1.14.45,15.23,15.23,0,0,0,9.54.46,21.93,21.93,0,0,0,10-7.05c.68-.91,1.36-1.59,2-2.5,2.5-2.27,5-4.32,7.5-6.37a5.59,5.59,0,0,1,1.14-.68,65,65,0,0,0,13-5.45.83.83,0,0,1,.68-.23,50.66,50.66,0,0,1-2.5,5,1.24,1.24,0,0,1-1.14.68,15.94,15.94,0,0,0-12.27,9.78,68.93,68.93,0,0,1-3.87,7l-.45.69h.91a16.55,16.55,0,0,0,5.68-.91,17.81,17.81,0,0,0,10-10.69c.69-1.36.91-2.95,1.6-4.32,1.59-3,3.18-5.91,4.77-8.63a1.72,1.72,0,0,1,.91-.91,66.68,66.68,0,0,0,10-8c.23-.23.46-.23.46-.45l.22.22c-.45,1.59-1.13,3-1.59,4.55a2,2,0,0,1-1.36,1.36,15.51,15.51,0,0,0-9.32,10.23,75.83,75.83,0,0,0-2.05,7.73,13.78,13.78,0,0,1-1.14,2.73h.69A15,15,0,0,0,409,220.12a26,26,0,0,0,2.5-9.1c0-.68.23-1.36.23-2,.91-2.5,1.59-5.23,2.5-7.73a12.16,12.16,0,0,1,.91-2.73c.91-1.14,2-2.27,2.95-3.41,1.59-2.27,3.18-4.77,5-7.05,0-.22.23-.22.46-.45h.22v.45a34.7,34.7,0,0,1-.22,4.78,4.9,4.9,0,0,1-.91,1.36,43.22,43.22,0,0,0-3.41,3.18,17.68,17.68,0,0,0-3.64,11.6c0,2.5-.23,5-.45,7.73v.68l.45-.23a14.66,14.66,0,0,0,8.41-9.55A22.18,22.18,0,0,0,424.5,196v-1.14c.22-3.18.45-6.36.68-9.32a7,7,0,0,1,.68-2.95c1.14-2.73,2.27-5.46,3.41-8.41.68-1.59.91-3.18,1.59-5,.23.22.23.68.46.91.45,1.59,1.13,2.95,1.59,4.54a1.77,1.77,0,0,1-.23,1.82,16.09,16.09,0,0,0-.68,15.69,45,45,0,0,1,2.73,7.72c0,.23.22.46.22.69h.23c.68-1.14,1.59-2.28,2.27-3.64a12.4,12.4,0,0,0,2.05-6.37,22.06,22.06,0,0,0-3.18-11.82c-.46-.91-.91-1.59-1.37-2.5-1.13-3-2-6.13-3.18-9.09a3.82,3.82,0,0,1-.23-1.59c.23-3.64.69-7.27,1.14-11.14v-2.95c.23.22.23.22.46.22.68,1.37,1.59,3,2.27,4.32v.91A15.75,15.75,0,0,0,437,172.38a37.16,37.16,0,0,1,4.32,7.73l.23.23.45-.46a15.47,15.47,0,0,0,2.5-9.55,20.44,20.44,0,0,0-4.77-11.14,36.75,36.75,0,0,1-2.5-3.18,88.9,88.9,0,0,1-4.32-7.95,3.23,3.23,0,0,1-.46-1.37A60.57,60.57,0,0,0,429,131.23a.86.86,0,0,0-.22-.68H429c.91.91,1.82,2,2.73,3a2.26,2.26,0,0,1,.68,2,16.18,16.18,0,0,0,5,13.64c1.6,1.59,3.41,3.18,5,4.78.68.68,1.36,1.59,2,2.27a.23.23,0,0,0,.23-.23c0-.23.23-.23.23-.45A14.44,14.44,0,0,0,444.73,143.28Z"/><path class="cls-1" d="M379.26,239.89h-9.41l3.54-5.3a26.73,26.73,0,0,1-7.62,4.13l-.27.09a19.74,19.74,0,0,1-11.95-.42,9,9,0,0,1-2-.78l-5.66-2.82,4.45-4.48a8.39,8.39,0,0,1,1.68-1.25c.07,0,0,0,0,0l.14-.12,2.45-2.14a24.83,24.83,0,0,1-3.86-.74,19.55,19.55,0,0,1-12.06-9.43l-3.63-7.23h11a31.82,31.82,0,0,0,4.11-.35l.55-.07a20.49,20.49,0,0,1,8.72.56l1.89-1,1.31-.47a55.63,55.63,0,0,0,5.71-2.28,22,22,0,0,1,15-2A6.55,6.55,0,0,1,384,203l.36-.33a34.92,34.92,0,0,0,5.66-5.2,20.66,20.66,0,0,1,17.38-6.94h.26V189.2l.35-.84a33.7,33.7,0,0,0,2-7.81,20.49,20.49,0,0,1,9.48-13.86,5.53,5.53,0,0,1-.65-2.2l-.13-.72c-.37-2.1-.76-4.26-1.28-6.2a20.9,20.9,0,0,1,3.07-19.33c.05-.13.18-.69.28-1.06a58.06,58.06,0,0,1,2.09-5.7l.13-.33L417.84,126h3.61l-.09-.27,2.88-1.92c.42-.28.76-.49,1.1-.69s.46-.27.73-.45l3.09-2.07,3.09,3.09c1.06,1,2.11,2.16,3.16,3.26s2,2.11,3,3.11a5.13,5.13,0,0,0,.9.79,25.38,25.38,0,0,1,9.5,10.39,19,19,0,0,1,.5,15.68,4.91,4.91,0,0,1-.44,1,4.78,4.78,0,0,1-2.74,2.55,25.55,25.55,0,0,1,2.9,9.33,20.12,20.12,0,0,1-3.23,12.57l-.57.7-1.72,1.7a30,30,0,0,1,.55,5.76,16.77,16.77,0,0,1-2.63,8.6,25.43,25.43,0,0,1-1.63,2.66c-.25.37-.49.73-.71,1.08l-1.32,2.21h-7.35v-3.74a4.38,4.38,0,0,1-.15-.6c-.24-.94-.51-1.85-.82-2.76a27.14,27.14,0,0,1-1.06,11,19.06,19.06,0,0,1-10.9,12.35L412.06,224A19.88,19.88,0,0,1,399,232.77l-.85.08H394.8a23.15,23.15,0,0,1-8.07,5.77A20.89,20.89,0,0,1,379.26,239.89Zm58.15-99a12,12,0,0,0,3.15,5l.58.56a9.11,9.11,0,0,0-.48-1.13A16.66,16.66,0,0,0,437.41,140.84Z"/><path class="cls-1" d="M217.63,457c-8.19-.23-17.28-.45-26.15-1.36-28-2.73-51.6-9.09-71.83-19.78A91.68,91.68,0,0,1,94,414.7l-1.82-2,3.41-1.82,7.73-4.1a58,58,0,0,0,21.82-21.36c7.05-12.05,11.82-25.92,14.55-43.19a419.89,419.89,0,0,0,5.46-75.25c-.46-21.59-.23-47.28,4.32-73.65,5-29.09,12.73-50,24.55-68.19,25.69-38.65,63.65-58,116.16-58.65A85.06,85.06,0,0,1,349.25,89a10.26,10.26,0,0,0,8,3c34.32-1.37,60.47,13.64,77.52,44.1a148.65,148.65,0,0,1,15.68,43.87c6.37,29.78,7.73,62.29,4.55,99.57-2.27,26.14-3.87,51.6,2.73,76.6,5.68,21.6,14.77,36.6,28.41,47.28a63.38,63.38,0,0,0,8.19,5.46l3.18,2a10.44,10.44,0,0,0,2.27,1.13l1.37.68,2.27,1.37-1.59,2c-.23.23-.46.69-.68.91a7.14,7.14,0,0,1-2.05,2.5c-17.5,15.92-39.78,25.92-68.2,31.15-13.41,2.5-26.82,3.63-39.78,4.54l-31.83.46v-4.55l31.83-.45c12.73-1.14,26.14-2.28,39.33-4.55,27.5-5,49.1-14.77,65.92-30l.46-.45a5.5,5.5,0,0,1-1.59-.91l-3.19-2c-2.95-1.82-5.91-3.64-8.63-5.69-14.55-11.36-24.1-27.05-30-49.55-6.82-25.69-5.23-51.6-3-78.2,3.18-36.83,1.82-68.88-4.54-98.2a158.44,158.44,0,0,0-15.24-42.51c-16.14-29.1-40.91-43.19-73.42-41.83a14.49,14.49,0,0,1-11.14-4.09,80,80,0,0,0-56.15-21.37c-50.92.91-87.52,19.32-112.3,56.6-11.6,17.51-19.1,38-23.87,66.38-4.55,25.92-4.78,51.38-4.32,72.74A428.52,428.52,0,0,1,144,343.1c-2.95,17.95-7.73,32.27-15,44.78a59.51,59.51,0,0,1-23.64,23.18l-6.14,3.19a78.32,78.32,0,0,0,22.5,17.95c20,10.46,43,16.6,70.25,19.33,8.86.91,17.73,1.13,25.69,1.36l30.91-.45V457Z"/><path class="cls-1" d="M253.09,461.53l-36.46,0c-7.92-.22-16.89-.47-25.61-1.36-29-2.82-53-9.46-73.5-20.28a96.75,96.75,0,0,1-27-22.23l-5.57-6.27,16.24-8.63a53.36,53.36,0,0,0,20-19.66c6.82-11.67,11.4-25.28,14-41.59a415,415,0,0,0,5.4-74.45c-.43-20.36-.32-47.23,4.39-74.51,5-29.24,12.8-50.8,25.22-69.9,26.7-40.17,65.92-60,119.92-60.72a89.39,89.39,0,0,1,62.23,23.7,5.82,5.82,0,0,0,4.54,1.77c36.29-1.45,63.79,14.18,81.83,46.42A153.45,153.45,0,0,1,454.88,179c6.35,29.7,7.86,62.7,4.61,100.8-2.33,26.84-3.75,51,2.59,75.06,5.4,20.5,13.92,34.76,26.83,44.87a60,60,0,0,0,7.67,5.1l3.35,2.15a6.3,6.3,0,0,0,1.25.65l.6.25,1.67.85,6.67,4-4.91,6.31-.27.39a11.69,11.69,0,0,1-3,3.5c-17.88,16.21-40.88,26.72-70.3,32.13-14.14,2.64-28.21,3.76-40.28,4.61h-.26l-36.43.52V446.59l36.13-.52,1.74-.15c12.15-1.08,24.71-2.2,37.06-4.33,24.47-4.45,44-12.77,59.52-25.36-2.8-1.72-5.74-3.54-8.51-5.62-15.48-12.09-25.53-28.61-31.68-52-6.92-26.06-5.41-52.59-3.09-79.74,3.18-36.72,1.72-68.4-4.46-96.85a153.54,153.54,0,0,0-14.81-41.36c-15.2-27.4-38.5-40.67-69.21-39.4a19.08,19.08,0,0,1-14.55-5.41,75.09,75.09,0,0,0-52.83-20c-49.27.88-84.79,18.73-108.62,54.57C170,147.57,162.84,167.5,158.23,195c-4.58,26.08-4.68,52.11-4.26,71.89a433.26,433.26,0,0,1-5.51,77c-3.07,18.65-8,33.37-15.56,46.34a64,64,0,0,1-25.4,24.89l-.88.46a72.34,72.34,0,0,0,17.19,12.67c19,9.95,41.48,16.11,68.58,18.82,8.39.86,16.94,1.11,24.49,1.32l.88,0,35.33-.53Z"/><path class="cls-1" d="M297.87,402c-61.83,0-112.3-60.69-112.3-135.48A157.66,157.66,0,0,1,191,225.12l.45-1.37,1.37-.22a265.26,265.26,0,0,0,29.55-6.6c46.83-13.86,86.39-41.37,103-72.06l8-14.77-3.87,16.36a50.48,50.48,0,0,0-1.36,11.6c0,32.73,31.37,59.33,70,59.33h2l1.82-.23.46,1.82a154.78,154.78,0,0,1,7,47.74C410,341.28,359.71,402,297.87,402Zm-103-174.35a159.74,159.74,0,0,0-4.77,38.87c0,72.29,48.19,130.93,107.75,130.93s107.76-58.64,107.76-130.93a156.77,156.77,0,0,0-6.37-44.78h-.68c-41.15,0-74.56-28.64-74.56-63.88v-2.05c-19.55,28-56.84,52.29-100,65A192.35,192.35,0,0,1,194.89,227.62Z"/><path class="cls-1" d="M297.87,406.52c-64.43,0-116.84-62.82-116.84-140a162.78,162.78,0,0,1,5.61-42.56l.53-1.62.87-2.59,4.06-.68a256.79,256.79,0,0,0,29.08-6.49C267,199,305.43,172.21,321.38,142.71l24.31-45.14L333.9,147.51a45.78,45.78,0,0,0-1.24,10.55c0,30.21,29.37,54.78,65.47,54.78h1.76l5.53-.69,1.41,5.61a158.93,158.93,0,0,1,7.21,49c.25,41.34-14.84,80.42-41.4,107.15C351.75,394.94,325.2,406.52,297.87,406.52ZM198.61,231.6a156,156,0,0,0-3.94,34.89c0,69.69,46.29,126.39,103.2,126.39s103.21-56.7,103.21-126.39a153.7,153.7,0,0,0-5.26-40.28c-38.43-1.14-70-26.11-75.5-58.31-21.37,24.76-56,45.74-95,57.26A189.22,189.22,0,0,1,198.61,231.6Z"/><path class="cls-1" d="M155.11,147.6a20.9,20.9,0,0,1,8-8.64,10.19,10.19,0,0,0,1.59-1.36c2-2,4.09-4.32,6.14-6.37l.45-.45c.68.45,1.14.68,1.82,1.14-.23.68-.68,1.36-.91,2a2.47,2.47,0,0,0,0,1.82l2.5,6.59a8.31,8.31,0,0,0,.91,2.5,16.5,16.5,0,0,1,2.5,15.46c-.68,2.5-1.14,5.23-1.59,7.73a.83.83,0,0,1-.23.68,14.35,14.35,0,0,1-6.14-11.82,25.67,25.67,0,0,1,3-12.27,1.45,1.45,0,0,0,0-1.37c-.45-1.82-1.36-3.63-1.82-5.23,0-.22-.23-.45-.45-.68,0,.23-.23.68-.23.91a68.4,68.4,0,0,0-1.82,28,1.26,1.26,0,0,0,.68,1.14c1.82,1.59,3.41,3.18,5.23,4.77a7.14,7.14,0,0,0,2.5,2,15.84,15.84,0,0,1,8.19,11.14,55.84,55.84,0,0,0,2.27,8.86v.68c-.46,0-1.14-.22-1.59-.22a20.58,20.58,0,0,1-3.87-1.82,16.06,16.06,0,0,1-5.68-6.59,28.27,28.27,0,0,1-2.27-11.37,2.37,2.37,0,0,0-.46-1.36c-1.36-1.37-2.73-2.5-4.09-3.87-.23,0-.23-.23-.45-.23v.46a60.43,60.43,0,0,0,3.86,12.5,82.65,82.65,0,0,0,8.18,14.55,1.18,1.18,0,0,0,.91.45c3.19.46,6.14,1.14,9.1,1.6h1.36a16.05,16.05,0,0,1,13.64,5.22,30.89,30.89,0,0,0,6.37,5.91c.22.23.22.23.22.46l-.22.23a15.22,15.22,0,0,1-13-.91,26.84,26.84,0,0,1-8.87-8.64,2.25,2.25,0,0,0-1.14-.91,44.58,44.58,0,0,0-5.45-.91h-.91c.23.23.23.45.45.68.91,1.14,2.05,2.28,3,3.41a61.58,61.58,0,0,0,15.69,11.82,2.82,2.82,0,0,0,1.36.23c2.5-.45,4.77-.91,7.27-1.36a19.34,19.34,0,0,0,3.41-.91,17.41,17.41,0,0,1,15,.68,72.64,72.64,0,0,0,7.5,3l.45.23v.23l-.22.23a14.69,14.69,0,0,1-9.55,3.63,22.1,22.1,0,0,1-13.87-5,4.42,4.42,0,0,0-2.27-.68c-.91.23-2.05.23-3,.45l-2.5.69c.23.22.23.45.46.45a64.76,64.76,0,0,0,26.14,6.14,2,2,0,0,0,1.36-.68c.91-.69,1.6-1.59,2.28-2.05a16.88,16.88,0,0,1,12.27-2.95,42,42,0,0,0,5.23.45h3.64l-.23.45a14.62,14.62,0,0,1-9.09,7.28,22,22,0,0,1-12.73-.46c-.68-.22-1.37-.22-2.05-.45a61.28,61.28,0,0,1-13-1.59l-.91-.23c.23.23.23.46.46.46,1.14.91,2.5,2,3.64,2.95.22.23.68.23,1.13.23a16.15,16.15,0,0,1,15,4.77l5.45,4.78c.46.45,1.14.68,1.59,1.13l-1.13.46a15.33,15.33,0,0,1-9.55.45,21.88,21.88,0,0,1-10-7.05c-.68-.9-1.37-1.59-2-2.5-2.5-2.27-5-4.31-7.5-6.36a4.62,4.62,0,0,0-1.14-.68,65.75,65.75,0,0,1-12.95-5.46.84.84,0,0,0-.69-.23,53.11,53.11,0,0,0,2.5,5,1.27,1.27,0,0,0,1.14.68,16.22,16.22,0,0,1,12.28,10,70.11,70.11,0,0,0,3.86,7c0,.22.23.45.46.68H221a16.61,16.61,0,0,1-5.69-.91,17.84,17.84,0,0,1-10-10.69c-.68-1.36-.91-3-1.59-4.31-1.59-3-3.18-5.69-4.77-8.64a1.79,1.79,0,0,0-.91-.91,66.63,66.63,0,0,1-10-8c-.22-.23-.45-.23-.45-.45l-.23.22c.46,1.6,1.14,3,1.59,4.55a2.07,2.07,0,0,0,1.37,1.37,15.52,15.52,0,0,1,9.32,10.22,77.24,77.24,0,0,1,2,7.73,14.4,14.4,0,0,0,1.14,2.73h-.68a15,15,0,0,1-10.91-8.18,24.35,24.35,0,0,1-2.5-9.1c0-.68-.23-1.36-.23-2-.91-2.5-1.59-5.23-2.5-7.73a13.26,13.26,0,0,0-.91-2.73c-.91-1.13-2.05-2.27-3-3.41-1.82-2.27-3.18-4.77-5-7l-.45-.46h-.23v.46a33.13,33.13,0,0,0,.23,4.77,4.5,4.5,0,0,0,.91,1.36c1.13,1.14,2.27,2.05,3.41,3.19a17.63,17.63,0,0,1,3.63,11.59c0,2.5.23,5,.46,7.73v.68l-.46-.23a14.69,14.69,0,0,1-8.41-9.54,25.06,25.06,0,0,1-.68-11.6V199c-.23-3.19-.45-6.37-.68-9.32a7.09,7.09,0,0,0-.68-3c-1.14-2.73-2.28-5.46-3.41-8.41-.69-1.59-.91-3.18-1.59-5-.23.23-.23.68-.46.91a35.57,35.57,0,0,1-1.59,4.54,1.76,1.76,0,0,0,.23,1.82,16.1,16.1,0,0,1,.68,15.69,44,44,0,0,0-2.73,7.73c0,.22-.23.45-.23.68h-.22c-.69-1.14-1.6-2.27-2.28-3.64a15,15,0,0,1-2-6.36,22,22,0,0,1,3.18-11.82,26.86,26.86,0,0,0,1.36-2.5c1.14-3,2.28-6.14,3.19-9.1a4,4,0,0,0,.22-1.59c-.22-3.64-.68-7.27-1.13-11.14v-2.95c-.23,0-.23.22-.46.22-.68,1.37-1.59,3-2.27,4.32V161a15.75,15.75,0,0,1-1.59,15.46,36.71,36.71,0,0,0-4.32,7.73h-.91l-.46-.45a15.61,15.61,0,0,1-2.5-9.55,20.49,20.49,0,0,1,4.78-11.14,16.21,16.21,0,0,0,2.27-3.18,87.73,87.73,0,0,0,4.32-8,3.17,3.17,0,0,0,.45-1.36,61.33,61.33,0,0,1,3.41-15.46.82.82,0,0,1,.23-.68h-.23c-.9.91-1.81,2-2.72,3a2.32,2.32,0,0,0-.69,2,16.12,16.12,0,0,1-5,13.64c-1.59,1.59-3.41,3.18-5,4.77-.68.68-1.36,1.59-2,2.27a.22.22,0,0,1-.23-.22c0-.23-.23-.23-.23-.46A16.25,16.25,0,0,1,155.11,147.6Z"/><path class="cls-1" d="M222,244H221a20.91,20.91,0,0,1-7.29-1.19,23.63,23.63,0,0,1-8.24-5.85l-4.19-.08a19.87,19.87,0,0,1-13.08-8.73l-5.61-2.81a19,19,0,0,1-10.77-12.46,28.84,28.84,0,0,1-1.08-11.21c-.37,1-.69,2.12-1,3.21a4.38,4.38,0,0,1-.15.6v3.74h-7.35L161,207c-.22-.36-.46-.72-.71-1.09a27.19,27.19,0,0,1-1.64-2.66,19.62,19.62,0,0,1-2.6-8.14l0-.45a29,29,0,0,1,.58-5.91H156l-2.35-2.48a20,20,0,0,1-3.25-12.38,25.93,25.93,0,0,1,2.89-9.46,5.7,5.7,0,0,1-3.48-4A20.75,20.75,0,0,1,151,145.57h0a25.52,25.52,0,0,1,9.69-10.5c.11-.09.33-.3.71-.68,1-1,2-2.06,3-3.11.6-.64,1.21-1.27,1.81-1.9v-3l1.48,1.47,2.94-2.94,3.11,2.07c.27.18.49.31.72.45s.68.41,1.1.69l2.59,1.73h2.86l-3.86,4c-.14.35-.31.71-.49,1.06l2.37,6.34c.09.36.22.88.31,1.11a20.88,20.88,0,0,1,3,19.28c-.52,1.94-.91,4.1-1.28,6.18l-.13.74a5.43,5.43,0,0,1-.66,2.21,20.37,20.37,0,0,1,9.46,13.7,51.73,51.73,0,0,0,2.12,8.27l.24.7v1h.26a20.56,20.56,0,0,1,17.24,6.77,27.36,27.36,0,0,0,5.56,5.19l.61.51a5.81,5.81,0,0,1,.78.94A22.22,22.22,0,0,1,231.56,210a54.19,54.19,0,0,0,5.61,2.23l2.27.92,1.07.53a20.81,20.81,0,0,1,8.74-.5l.42.05a33.62,33.62,0,0,0,4.1.34h11l-3.52,7a19.24,19.24,0,0,1-11.88,9.6,24.09,24.09,0,0,1-3.5.7l2.28,2a8.89,8.89,0,0,1,1.79,1.33l4.87,4.87-7.53,3a19.94,19.94,0,0,1-12.49.6l-.26-.08a27.69,27.69,0,0,1-6.25-3.13l4.24,4.39Zm4.09-5.31v0Zm-64.65-70.2a16.28,16.28,0,0,0-1.82,5.06A11.34,11.34,0,0,0,161.39,168.47Z"/></svg>