<svg id="Livello_1" data-name="Livello 1" xmlns="http://www.w3.org/2000/svg" viewBox="0 0 244.83 312.09"><defs><style>.cls-1{fill:#5156a1;}</style></defs><path class="cls-1" d="M1.15,311.09S11.66,234,27.78,211.56,86,177.92,86,177.92s16.12,50.46,36.45,51.87,37.85-51.87,37.85-51.87,42.75,12.62,56.77,35,26.63,98.17,26.63,98.17Z"/><path class="cls-1" d="M244.83,312.09H0L.16,311C.59,307.8,10.89,233.35,27,211c8.46-11.77,24-20.4,35.53-25.56a173.93,173.93,0,0,1,23.2-8.47l.92-.24.29.91c.16.49,16.14,49.83,35.56,51.17s36.65-50.67,36.83-51.17l.3-.92.93.27a177.81,177.81,0,0,1,23.25,9.15c16.68,8,28.14,16.84,34.06,26.31,14,22.33,26.25,95.38,26.77,98.48Zm-242.53-2H242.47c-1.67-9.64-13.49-76.1-26.3-96.59-12.53-20.05-49-32.35-55.29-34.33-2.49,7.27-18.48,51.64-37.69,51.64h-.86c-19.46-1.34-34.65-44.52-37-51.64-6.19,1.8-42.28,12.94-56.71,33C13.86,232.62,3.68,300.44,2.3,310.09Z"/><path class="cls-1" d="M187.05,34a10.12,10.12,0,0,0-3.52-3.83,4.4,4.4,0,0,1-.72-.57c-.9-.93-1.78-1.88-2.69-2.8l-.17-.19a4.44,4.44,0,0,1-.83.45c.13.32.26.63.38.95a1,1,0,0,1,0,.82c-.38,1-.75,1.93-1.12,2.9a5.19,5.19,0,0,1-.44,1.13,7.42,7.42,0,0,0-1.07,6.83c.33,1.11.49,2.27.73,3.4a.46.46,0,0,0,.08.3,6.61,6.61,0,0,0,2.7-5.2A11.47,11.47,0,0,0,179,32.78a.88.88,0,0,1,0-.62c.26-.79.55-1.56.84-2.34a1.74,1.74,0,0,1,.18-.33c.06.18.11.28.14.39A29.17,29.17,0,0,1,181,42.17a.9.9,0,0,1-.28.48c-.77.72-1.54,1.44-2.32,2.14a6.73,6.73,0,0,1-1.12.94,7.11,7.11,0,0,0-3.6,4.85,22.31,22.31,0,0,1-1,3.94,1,1,0,0,0,0,.34,3.91,3.91,0,0,0,.68-.14,9.81,9.81,0,0,0,1.71-.79,6.46,6.46,0,0,0,2.46-2.84,12,12,0,0,0,1-5,1,1,0,0,1,.23-.63c.56-.57,1.15-1.11,1.74-1.66a.54.54,0,0,1,.21-.08v.17A31.47,31.47,0,0,1,179,49.34a33.11,33.11,0,0,1-3.62,6.37.73.73,0,0,1-.39.22l-4.05.71a2.53,2.53,0,0,1-.55,0,7.16,7.16,0,0,0-6,2.32,16.55,16.55,0,0,1-2.82,2.6,1,1,0,0,0-.15.2c.06,0,.08.07.12.08a6.61,6.61,0,0,0,5.72-.41,11.26,11.26,0,0,0,3.89-3.84,1,1,0,0,1,.54-.39c.79-.17,1.6-.3,2.4-.45h.43l-.22.29c-.44.48-.87,1-1.33,1.45a28.29,28.29,0,0,1-6.88,5.22,1,1,0,0,1-.59.08c-1.06-.2-2.11-.41-3.16-.63a7.42,7.42,0,0,1-1.53-.37,7.41,7.41,0,0,0-6.57.27c-1.05.52-2.17.89-3.26,1.32l-.2.1v.11a.52.52,0,0,0,.1.11,6.79,6.79,0,0,0,4.16,1.64,10,10,0,0,0,6.09-2.21,1.18,1.18,0,0,1,1.05-.26c.43.1.88.14,1.31.22l1.13.26a.56.56,0,0,1-.24.22,28.44,28.44,0,0,1-11.47,2.69,1,1,0,0,1-.56-.27c-.36-.3-.67-.66-1-.94a7.28,7.28,0,0,0-5.44-1.3c-.77.1-1.55.16-2.32.2H142l.13.24a6.6,6.6,0,0,0,4.06,3.19,10.41,10.41,0,0,0,5.59-.18,3.74,3.74,0,0,1,1-.11,30.61,30.61,0,0,0,5.73-.68l.42-.07a1.19,1.19,0,0,1-.16.23c-.54.44-1.06.89-1.61,1.31a.68.68,0,0,1-.48.07,7.18,7.18,0,0,0-6.61,2.1c-.75.72-1.56,1.4-2.35,2.09a6.89,6.89,0,0,1-.71.49c.22.11.36.18.51.24a6.63,6.63,0,0,0,4.22.16A9.38,9.38,0,0,0,156.11,71a13.19,13.19,0,0,1,.91-1.07c1.09-1,2.21-1.86,3.32-2.78a1.71,1.71,0,0,1,.5-.3,29.72,29.72,0,0,0,5.73-2.41,1.94,1.94,0,0,1,.3-.13,17.94,17.94,0,0,1-1.14,2.17.81.81,0,0,1-.51.33,7.25,7.25,0,0,0-5.44,4.32c-.5,1.07-1.13,2.08-1.7,3.12l-.19.31c.17,0,.27,0,.38,0a6.72,6.72,0,0,0,2.47-.42,8,8,0,0,0,4.44-4.72c.27-.64.41-1.33.72-1.94.67-1.3,1.41-2.56,2.13-3.82a1.29,1.29,0,0,1,.36-.41,30.87,30.87,0,0,0,4.4-3.5,2.2,2.2,0,0,1,.25-.17l.07.07c-.22.67-.46,1.34-.66,2a.88.88,0,0,1-.58.59,6.86,6.86,0,0,0-4.11,4.5c-.35,1.11-.6,2.24-.91,3.36-.12.39-.3.77-.48,1.2h.34a6.69,6.69,0,0,0,4.83-3.64,11.17,11.17,0,0,0,1.12-4,4.27,4.27,0,0,1,.14-.87c.35-1.14.73-2.26,1.1-3.38a4.72,4.72,0,0,1,.43-1.21c.36-.55.88-1,1.27-1.54.74-1,1.44-2.09,2.17-3.13,0-.08.11-.15.16-.22h.1v.22a18,18,0,0,1-.13,2.07,1.23,1.23,0,0,1-.36.56,16.21,16.21,0,0,0-1.47,1.4,7.54,7.54,0,0,0-1.58,5.09c0,1.12-.13,2.24-.2,3.36v.32l.19-.06a6.52,6.52,0,0,0,3.7-4.19,11.1,11.1,0,0,0,.25-5.06,1.93,1.93,0,0,1,0-.48c.09-1.37.22-2.75.27-4.13a3.51,3.51,0,0,1,.33-1.27c.51-1.22,1-2.44,1.48-3.68.26-.69.44-1.42.69-2.23a2.83,2.83,0,0,1,.17.4c.24.66.46,1.33.7,2a.83.83,0,0,1-.1.76,7.06,7.06,0,0,0-.32,6.92,16.19,16.19,0,0,1,1.2,3.38.88.88,0,0,0,.1.27h.14c.34-.52.68-1,1-1.57a5.59,5.59,0,0,0,.89-2.83,9.66,9.66,0,0,0-1.39-5.19,10.42,10.42,0,0,1-.61-1.14c-.49-1.33-.94-2.67-1.39-4a1.74,1.74,0,0,1-.07-.68c.15-1.62.32-3.24.47-4.86V37.37c.09.06.15.08.17.11.34.63.69,1.26,1,1.9a.61.61,0,0,1,0,.42,7.05,7.05,0,0,0,.72,6.82,18,18,0,0,1,1.9,3.37l.11.13a1.2,1.2,0,0,0,.17-.21,6.52,6.52,0,0,0,1.11-4.22,9.36,9.36,0,0,0-2.09-4.87A14.42,14.42,0,0,1,184,39.41c-.67-1.15-1.3-2.33-1.94-3.5a1.67,1.67,0,0,1-.22-.65,30.15,30.15,0,0,0-1.48-6.84,1.16,1.16,0,0,0-.08-.32l.1-.05c.41.44.81.89,1.23,1.31a1,1,0,0,1,.3.89,7,7,0,0,0,2.23,6c.71.69,1.46,1.36,2.17,2.06.32.32.58.69.88,1a.39.39,0,0,0,.1-.08.87.87,0,0,0,.07-.17A6.62,6.62,0,0,0,187.05,34Z"/><path class="cls-1" d="M87.11,172c-3.57-.1-7.57-.22-11.5-.6-12.31-1.16-22.66-4-31.64-8.7a38.77,38.77,0,0,1-11.27-9.31l-.82-.94,1.49-.81,3.4-1.83a24.57,24.57,0,0,0,9.58-9.42c3.12-5.31,5.16-11.36,6.4-19a186.81,186.81,0,0,0,2.39-33.15c-.16-9.53-.06-20.83,1.93-32.37,2.22-12.79,5.56-22,10.83-30C79.21,8.84,95.9.39,119,0a37.18,37.18,0,0,1,26,9.9,4.53,4.53,0,0,0,3.49,1.29c15.13-.59,26.62,5.95,34.15,19.43a67.41,67.41,0,0,1,6.94,19.26c2.76,13.09,3.42,27.42,2,43.8-1,11.5-1.66,22.73,1.25,33.69,2.52,9.49,6.49,16.08,12.49,20.76,1.13.87,2.39,1.66,3.61,2.42l1.37.86a8,8,0,0,0,1,.53l.58.3,1,.56-.7.92c-.1.13-.19.27-.29.41a5,5,0,0,1-.87,1.08c-7.66,6.95-17.46,11.44-30,13.71-5.87,1.07-11.81,1.57-17.55,2l-14.05.19v-2l14-.19c5.63-.47,11.52-1,17.29-2,12.13-2.21,21.61-6.54,29-13.23a2.73,2.73,0,0,0,.23-.25c-.23-.12-.45-.25-.67-.38l-1.35-.85a40.33,40.33,0,0,1-3.78-2.55c-6.36-4.95-10.56-11.88-13.19-21.82-3-11.27-2.33-22.69-1.31-34.37,1.4-16.19.76-30.32-2-43.22a66,66,0,0,0-6.74-18.7c-7.13-12.77-18-19-32.32-18.4a6.43,6.43,0,0,1-4.89-1.8A35.21,35.21,0,0,0,119,2C96.65,2.39,80.48,10.55,69.55,27,64.44,34.64,61.2,43.64,59,56.15c-2,11.37-2.07,22.56-1.91,32a188.8,188.8,0,0,1-2.42,33.5c-1.28,7.93-3.39,14.2-6.65,19.74A26.56,26.56,0,0,1,37.7,151.55L35,153a35.43,35.43,0,0,0,9.85,7.92c8.75,4.57,18.86,7.34,30.91,8.48,3.87.37,7.83.49,11.33.59l13.57-.18v2Z"/><path class="cls-1" d="M122.41,147.83c-27.22,0-49.35-26.74-49.35-59.59A71,71,0,0,1,75.41,70l.17-.63.64-.1a103.51,103.51,0,0,0,13-2.94c20.61-6.08,38-18.21,45.33-31.66l3.53-6.47-1.68,7.17a22.3,22.3,0,0,0-.58,5.08c0,14.39,13.83,26.11,30.83,26.11h.94l.8-.07.24.77a70.51,70.51,0,0,1,3.15,21C171.78,121.09,149.61,147.83,122.41,147.83ZM77.18,71.14a68.94,68.94,0,0,0-2.12,17.1c0,31.75,21.24,57.59,47.35,57.59S169.78,120,169.78,88.24a68.34,68.34,0,0,0-2.84-19.68h-.29c-18.11,0-32.83-12.61-32.83-28.11V39.6c-8.58,12.28-25,23-44,28.65A107.06,107.06,0,0,1,77.18,71.14Z"/><path class="cls-1" d="M59.68,35.87A10.12,10.12,0,0,1,63.2,32a3.92,3.92,0,0,0,.72-.57c.91-.93,1.79-1.88,2.69-2.8l.17-.19a4.49,4.49,0,0,0,.83.46c-.13.31-.26.62-.38.94a1.06,1.06,0,0,0,0,.82l1.13,2.9a4.7,4.7,0,0,0,.43,1.13,7.42,7.42,0,0,1,1.07,6.83c-.32,1.11-.49,2.27-.73,3.4a.43.43,0,0,1-.08.3,6.6,6.6,0,0,1-2.69-5.2,11.21,11.21,0,0,1,1.34-5.38.94.94,0,0,0,0-.62c-.25-.79-.55-1.56-.83-2.34,0-.09-.1-.18-.18-.33a1.53,1.53,0,0,1-.14.39,28.93,28.93,0,0,0-.77,12.31,1,1,0,0,0,.29.48c.76.73,1.53,1.44,2.31,2.14a6.8,6.8,0,0,0,1.13.94A7.1,7.1,0,0,1,73.1,52.5a23.22,23.22,0,0,0,1,3.94,1.93,1.93,0,0,1,0,.34,3.91,3.91,0,0,1-.68-.14,11,11,0,0,1-1.71-.78A6.61,6.61,0,0,1,69.25,53a12,12,0,0,1-1-5,1,1,0,0,0-.22-.63c-.56-.57-1.16-1.11-1.75-1.66a.54.54,0,0,0-.21-.08v.17a29.59,29.59,0,0,0,1.67,5.45,32.55,32.55,0,0,0,3.61,6.37.73.73,0,0,0,.39.22c1.35.25,2.7.48,4,.71a1.69,1.69,0,0,0,.55,0,7.16,7.16,0,0,1,6,2.32,16.67,16.67,0,0,0,2.83,2.61.85.85,0,0,1,.14.19l-.11.08a6.61,6.61,0,0,1-5.72-.41,11.29,11.29,0,0,1-3.9-3.84,1,1,0,0,0-.54-.39c-.79-.17-1.6-.3-2.4-.44h-.42c.1.14.15.22.21.29.44.48.88,1,1.33,1.45a28.29,28.29,0,0,0,6.88,5.22,1,1,0,0,0,.59.08c1.06-.19,2.11-.41,3.16-.63a7.42,7.42,0,0,0,1.53-.37,7.41,7.41,0,0,1,6.57.27c1,.52,2.17.89,3.26,1.32l.2.11v.1l-.1.11a6.81,6.81,0,0,1-4.17,1.64,10,10,0,0,1-6.09-2.21,1.21,1.21,0,0,0-1.05-.26c-.43.1-.87.14-1.31.22l-1.13.26a.49.49,0,0,0,.25.22,28.49,28.49,0,0,0,11.48,2.66,1,1,0,0,0,.56-.27c.36-.3.67-.66,1-.94a7.33,7.33,0,0,1,5.44-1.3c.77.1,1.55.17,2.33.2h1.56l-.13.24a6.58,6.58,0,0,1-4,3.19A10.45,10.45,0,0,1,95,70.1a3.78,3.78,0,0,0-.94-.16,30.81,30.81,0,0,1-5.74-.68l-.42-.07a2,2,0,0,0,.17.23c.53.44,1.06.89,1.61,1.31a.62.62,0,0,0,.48.07,7.16,7.16,0,0,1,6.6,2.1c.76.73,1.56,1.4,2.35,2.09a7,7,0,0,0,.72.49l-.51.24a6.63,6.63,0,0,1-4.22.16,9.36,9.36,0,0,1-4.38-3.07,10.29,10.29,0,0,0-.91-1.07c-1.09-.95-2.21-1.86-3.32-2.78a1.71,1.71,0,0,0-.5-.3,30.36,30.36,0,0,1-5.73-2.41,1.94,1.94,0,0,0-.3-.13,17.94,17.94,0,0,0,1.14,2.17.86.86,0,0,0,.51.34A7.24,7.24,0,0,1,87,73c.5,1.07,1.13,2.08,1.7,3.12.05.09.11.18.2.31h-.38A6.74,6.74,0,0,1,86.08,76a8,8,0,0,1-4.44-4.72c-.27-.64-.4-1.33-.72-1.94-.67-1.3-1.41-2.55-2.13-3.82a1.29,1.29,0,0,0-.36-.41,30.87,30.87,0,0,1-4.4-3.5,1,1,0,0,0-.24-.16l-.08.06c.22.67.46,1.34.66,2a.87.87,0,0,0,.59.59,6.87,6.87,0,0,1,4.1,4.5c.35,1.11.6,2.24.92,3.36a12.44,12.44,0,0,0,.47,1.2h-.34a6.63,6.63,0,0,1-4.82-3.64,11,11,0,0,1-1.13-4,4.25,4.25,0,0,0-.13-.87c-.36-1.13-.74-2.26-1.11-3.38a4.69,4.69,0,0,0-.42-1.21c-.37-.55-.88-1-1.27-1.54-.75-1-1.45-2.09-2.17-3.13l-.17-.22h-.11a.81.81,0,0,0,0,.22,18,18,0,0,0,.13,2.07,1,1,0,0,0,.36.56c.48.48,1,.88,1.47,1.4a7.48,7.48,0,0,1,1.57,5.09c0,1.12.13,2.24.2,3.36v.32l-.2-.06a6.45,6.45,0,0,1-3.74-4.23,11,11,0,0,1-.26-5.06,1.29,1.29,0,0,0,0-.48c-.09-1.37-.22-2.75-.27-4.13A3.71,3.71,0,0,0,67.72,53c-.52-1.21-1-2.44-1.49-3.67-.26-.7-.44-1.43-.68-2.24a2.87,2.87,0,0,0-.18.4c-.23.66-.45,1.33-.69,2a.82.82,0,0,0,.09.76,7.06,7.06,0,0,1,.32,6.92,16.16,16.16,0,0,0-1.19,3.38,1.53,1.53,0,0,1-.11.27h-.13c-.34-.52-.69-1-1-1.57a5.69,5.69,0,0,1-.89-2.83,9.66,9.66,0,0,1,1.39-5.19,7.94,7.94,0,0,0,.62-1.1c.49-1.33,1-2.67,1.4-4a1.73,1.73,0,0,0,.06-.68c-.15-1.62-.32-3.24-.47-4.86V39.23c-.1.05-.15.07-.17.1-.34.63-.69,1.26-1,1.9a.61.61,0,0,0,0,.42,7.05,7.05,0,0,1-.72,6.82A17.83,17.83,0,0,0,61,51.88l-.1.13a.91.91,0,0,1-.18-.21,6.52,6.52,0,0,1-1.11-4.22,9.26,9.26,0,0,1,2.1-4.87,13.83,13.83,0,0,0,1-1.41c.68-1.15,1.31-2.33,1.94-3.5a1.67,1.67,0,0,0,.22-.65,30.82,30.82,0,0,1,1.48-6.84A1.16,1.16,0,0,1,66.4,30h-.09c-.41.44-.81.89-1.24,1.31a1,1,0,0,0-.3.89,7,7,0,0,1-2.22,6c-.72.69-1.47,1.36-2.18,2.06-.32.32-.58.69-.87,1a.14.14,0,0,1-.1-.08.89.89,0,0,1-.08-.17A6.59,6.59,0,0,1,59.68,35.87Z"/></svg>