<svg id="Livello_1" data-name="Livello 1" xmlns="http://www.w3.org/2000/svg" viewBox="0 0 595.28 841.89"><defs><style>.cls-1{fill:#5057a3;}.cls-2{fill:#fff;}.cls-3{fill:#5157a2;}.cls-4{fill:#5058a3;}</style></defs><path class="cls-1" d="M14.17,778.18S38.72,602.17,76.36,551s136.06-76.7,136.06-76.7,37.64,115.28,85.33,118.47,88.38-118.47,88.38-118.47,100.06,28.76,132.79,79.9S581.1,778.4,581.1,778.4l-566.93-.22Z"/><path class="cls-1" d="M401.09,182.83h2.1l1.87-.23.47,2.06A203.49,203.49,0,0,1,413,239.22c0,85.14-51.9,154.54-115.49,154.54s-115.26-69.4-115.26-154.54A212.24,212.24,0,0,1,187.64,192l.47-1.6,1.4-.22m2.57,4.56A202.69,202.69,0,0,0,187.17,239c0,82.4,49.57,149.52,110.58,149.52S408.57,321.39,408.57,239A198.17,198.17,0,0,0,402,187.85h-.7"/><path class="cls-1" d="M297.52,398.32c-66.13,0-119.93-71.37-119.93-159.11A216.48,216.48,0,0,1,183.08,191l.53-1.85.82-2.77,4.31-.71.88,5.16,3,.83-.42,1.47-.36,1.56,4.83,1a198.78,198.78,0,0,0-4.8,43.31c0,79.93,47.51,145,105.91,145s106.13-65,106.13-144.95a194.33,194.33,0,0,0-6.39-50l3.82-1v-.63h-.23v-1.3l-.07-.24-.52-2.27.59-.12v-5.21h1.81l5.8-.7,1.39,6.11a206.63,206.63,0,0,1,7.6,55.54C417.69,327,363.78,398.32,297.52,398.32Z"/><path class="cls-2" d="M411.14,169.36V220.5c-68.73-19.86-159.44-19.86-226.77,0,0-1.6-.24-3-.24-4.57V167.08c0-5.25.24-10.27,0-15.07-.46-6.62,2.34-11.41,8-14.61a84.07,84.07,0,0,1,18-7.76c18.23-5.48,36.93-7.07,55.87-8.44,35.77-2.29,71.07-1.37,106.37,5,10.76,2.05,21.28,4.56,30.63,10.5,5.61,3.65,9.12,8.45,8.65,15.52C410.91,158,411.14,163.43,411.14,169.36Z"/><path class="cls-3" d="M411.14,225.06a4.58,4.58,0,0,1-1.32-.19c-67.72-19.56-157.78-19.56-224.1,0a4.77,4.77,0,0,1-4.14-.71,4.52,4.52,0,0,1-1.89-3.66c0-.68-.05-1.31-.1-1.93-.07-.86-.13-1.72-.13-2.64V167.08c0-1.8,0-3.57,0-5.32.05-3.34.1-6.5,0-9.53-.57-8.09,3-14.62,10.27-18.77a88.1,88.1,0,0,1,19-8.19c18.27-5.5,36.56-7.16,56.85-8.63,39.55-2.52,74.73-.86,107.57,5.09,10.23,2,21.95,4.58,32.33,11.16,7.69,5,11.3,11.61,10.76,19.65a2.29,2.29,0,0,1,0,.25,99,99,0,0,0-.45,13c0,1.19,0,2.38,0,3.6V220.5a4.52,4.52,0,0,1-1.88,3.65A4.73,4.73,0,0,1,411.14,225.06Zm-111-100.43q-16.39,0-33.85,1.12c-19.68,1.42-37.42,3-54.81,8.26a78.44,78.44,0,0,0-17,7.34c-4.24,2.41-6,5.6-5.64,10.35.17,3.41.12,6.71.06,10.2,0,1.7-.05,3.43-.05,5.18v47.4c65.32-17.83,151.07-17.84,217.66,0V169.36c0-1.19,0-2.36,0-3.53a106.06,106.06,0,0,1,.5-14c.27-4.68-1.76-8.17-6.58-11.31-8.93-5.67-19.19-8-28.94-9.82A398.57,398.57,0,0,0,300.12,124.63Z"/><path class="cls-3" d="M510,134.89,504.19,137l-39.75,13.92-15.19,5.25-14.5,5h0l-23.61,8.22c0-5.93-.23-11.41,0-16.89.47-7.08-2.8-11.87-8.65-15.52-9.35-5.94-19.87-8.68-30.63-10.5-35.3-6.4-70.6-7.54-106.37-5-18.93,1.15-37.64,3-55.87,8.45a97,97,0,0,0-18,7.76c-5.61,3-8.19,8-8,14.61.23,4.8,0,9.82,0,15.07v2.05c-7-2.51-13.56-4.79-20.11-6.85-25.48-8.9-50.73-17.57-76.21-26.48-.7-.22-1.64-.22-2.34-.45v-.92c16.13-5.47,32.26-11,48.16-16.43C186.47,99.74,240,81,293.31,62.53a13.89,13.89,0,0,1,7.48-.23l143.78,50c.47.23.94.23,1.17.46l57.75,20.09Z"/><path class="cls-4" d="M98.34,367.05H81.27c-.23,0-.47.23-.94.46l1.41,1.37a16.13,16.13,0,0,0,3,2.51c2.1,1.59,7.71,1.82,10,.23a17.65,17.65,0,0,0,3-2.74l1.63-1.6A2.11,2.11,0,0,0,98.34,367.05Z"/><path class="cls-4" d="M90.08,377.27a14.42,14.42,0,0,1-7.92-2.09,20.63,20.63,0,0,1-3.72-3.07l-6-5.85,5.78-2.83a5.58,5.58,0,0,1,3-.95H98.34a6.82,6.82,0,0,1,3.26.72l5.79,2.84-6,5.9a19.58,19.58,0,0,1-3.28,3l-.55.42A13.51,13.51,0,0,1,90.08,377.27Z"/><path class="cls-4" d="M102.54,352.21a8.5,8.5,0,0,1,.24,11.19c-1.17,1.37-2.11,2.51-3.28,3.88a10.8,10.8,0,0,1-1.63,1.6,38.08,38.08,0,0,1-3,2.74c-2.11,1.59-7.72,1.59-10-.23a16.13,16.13,0,0,1-3-2.51l-1.41-1.37a41.59,41.59,0,0,1-2.8-3.2,9.51,9.51,0,0,1,.23-12.55l8.65-9.59a4.76,4.76,0,0,1,7,0Z"/><path class="cls-4" d="M97.87,368.88a38.08,38.08,0,0,1-3,2.74c-2.11,1.59-7.72,1.59-10-.23a16.13,16.13,0,0,1-3-2.51l8-1.83Z"/><path class="cls-4" d="M90.07,377.35a14.12,14.12,0,0,1-7.94-2.19,21.27,21.27,0,0,1-3.7-3.06l-5.92-5.79,17.16-3.95,17.49,3.9-6,5.84a41.41,41.41,0,0,1-3.43,3.08A13,13,0,0,1,90.07,377.35Z"/><polygon class="cls-4" points="118.91 412.25 118.91 412.15 128.26 412.15 118.91 412.25"/><path class="cls-4" d="M125,412.25c0,.23-.24.23,0,0Z"/><polygon class="cls-4" points="122.66 417.74 119.05 411.67 121.5 409.2 121.5 409.2 129.66 401.19 129.66 415.75 126.12 416.83 122.66 417.74"/><path class="cls-4" d="M125,412.25c0,.23-.24.23,0,0Z"/><path class="cls-4" d="M128.49,402.2c0,.46-.23.69-.23,1.15a2.07,2.07,0,0,1,.23-1.15Z"/><path class="cls-4" d="M132.23,439.19c-2.1-1.15-2.8-2.52-2.1-4.57,1.87-4.79,3.51-9.59,6.08-13.93,8.18-12.78,7-27.39-4-38.35a50.55,50.55,0,0,0-21.74-12.55c-3.74-1.14-7.48-1.83-11.22-2.74a10.44,10.44,0,0,1-1.64,1.6,37.87,37.87,0,0,1-3,2.74c-2.11,1.59-7.72,1.59-10.06,0-.93-.92-2.1-1.6-3-2.51l-1.4-1.37c-.23.22-.47.22-.93.22-7,2.29-14.5,3.66-21.05,6.85-19.87,9.82-27.58,30.36-13.56,48.63,2.58,3.42,3.28,8,4.68,12.09a2.47,2.47,0,0,1-.93,2.74c-8.19,4.11-9.12,11-9.12,18.95.23,10,6.31,16.21,16.6,16.21H71.45v10a15.43,15.43,0,0,0-1.64.46c-8.18,1.14-11.45,4.79-11.45,12.78v11c.23,5.93,4,10.27,9.58,11.19,1.17.22,2.11.22,3.51.45h35.3a16.86,16.86,0,0,0,3.74-.23c4.91-.68,9.12-4.11,9.35-8.67a109.76,109.76,0,0,0,0-17.58c-.23-4.34-4.21-7.53-8.65-8.22a27.23,27.23,0,0,0-4.21-.45V473.88h16.37c8.18,0,14.26-4.79,15.43-12.78a42.77,42.77,0,0,0,0-11A11.52,11.52,0,0,0,132.23,439.19Zm-22.91,54.55a4.88,4.88,0,0,1,4.91,4.8V504a4.63,4.63,0,0,1-4.67,4.56H90.39c-7,0-13.8-.23-20.58,0-3.27,0-4.44-1.14-4.2-4.11v-4.34a6.45,6.45,0,0,1,6.54-6.39ZM77.53,483.47v-9.82H103v9.82Zm47-16H52.05c-6.32,0-7-1.14-7-10.5v-5.48c-.23-6.16,1.64-8.44,5.61-8.44h78.09c5.14,0,6.08,1.59,6.08,9.13C135,467.49,135,467.49,124.52,467.49Z"/><path class="cls-1" d="M106.75,523.65l-36.07-.07c-.55-.09-1-.13-1.45-.17-.74-.08-1.43-.16-2.2-.31-7.73-1.25-13-7.34-13.34-15.49V496.48c0-9.52,4.18-14.94,13.09-16.88v-1.84h-11c-12.64,0-21-8.11-21.28-20.67,0-7.87.79-16.54,9.75-22-.2-.65-.39-1.3-.57-2-.79-2.76-1.53-5.36-2.89-7.17-7-9.11-9.56-19.6-7.19-29.51,2.56-10.68,10.72-20.12,22.4-25.89a85,85,0,0,1,14.77-5.09c2.4-.66,4.67-1.29,6.9-2h0l2.41-2.35,4.71,4.6a13.34,13.34,0,0,0,1.08.88c.46.35,1,.73,1.48,1.19a8.15,8.15,0,0,0,4.49,0c.79-.64,1.61-1.44,2.47-2.28l.71-.57.24-.3c.24-.26.46-.51.69-.73L97.84,362l2.57.63c1.21.3,2.43.57,3.64.84,2.54.57,5.17,1.16,7.84,2a55.34,55.34,0,0,1,23.65,13.69c12.36,12.32,14.12,29.17,4.63,44a70.84,70.84,0,0,0-4.7,10.61l-.63,1.65a16,16,0,0,1,8.62,14.57,47.47,47.47,0,0,1,0,11.73c-1.5,10.22-9.37,16.78-20.07,16.78H111.66v1.38l.31.05c6.91,1.07,12.21,6.32,12.54,12.48a114.79,114.79,0,0,1,0,18.17c-.33,6.29-5.84,11.7-13.14,12.81A21.39,21.39,0,0,1,106.75,523.65Zm-34.93-9.13h34.93a17.11,17.11,0,0,0,2.61-.1l.47-.09a6.87,6.87,0,0,0,4.69-2.58,9.4,9.4,0,0,1-5,1.4H90.39c-2.37,0-4.72,0-7,0-4.61-.06-9-.1-13.37,0a11.05,11.05,0,0,1-5.14-1,6.57,6.57,0,0,0,3.88,2,13.2,13.2,0,0,0,1.49.2C70.7,514.37,71.22,514.43,71.82,514.52Zm4.78-10.6c2.29,0,4.58,0,6.84,0s4.61.06,7,.06h19.17v-5.48s-.07-.23-.24-.23H72.15a1.83,1.83,0,0,0-1.87,1.82V504C72.35,503.94,74.47,503.92,76.6,503.92Zm-5-16-.42.2-.75.11c-4.71.66-6.64,1.87-7.23,5.26a11.34,11.34,0,0,1,8.91-4.3h37.17a9.65,9.65,0,0,1,4.07.88,7,7,0,0,0-2.93-1.17,22.69,22.69,0,0,0-3.47-.4h-4.68V488H72.85v-.44C72.39,487.74,72,487.83,71.64,487.91Zm10.57-9H98.34v-.69H82.21ZM50,462.85a20.13,20.13,0,0,0,2,.08h72.47a44,44,0,0,0,5.36-.18c.39-1.57.32-5.91.25-10.49a24.18,24.18,0,0,0-.27-4.58,9.86,9.86,0,0,0-1.13-.05H50.64a3.4,3.4,0,0,0-.58,0,9,9,0,0,0-.35,3.67V457A41.53,41.53,0,0,0,50,462.85Zm3.57-24.35h72a7.86,7.86,0,0,1,.09-5.32l1-2.65a77.94,77.94,0,0,1,5.45-12.12c7.27-11.37,6-23.61-3.27-32.87a46,46,0,0,0-19.68-11.36c-2.43-.74-4.77-1.26-7.25-1.82l-1.22-.27-.06,0A36.29,36.29,0,0,1,97.52,375c-3.76,2.86-11.64,2.92-15.66.18l-.62-.51a10.12,10.12,0,0,0-1.08-.88c-.43-.33-.9-.68-1.37-1.09-1.84.55-3.68,1.06-5.47,1.56a75.55,75.55,0,0,0-13.11,4.46C51,383.2,44.64,390.43,42.72,398.48c-1.76,7.34.17,14.94,5.58,22,2.41,3.2,3.46,6.9,4.4,10.17.31,1.09.62,2.18,1,3.23l.14.54A7.33,7.33,0,0,1,53.57,438.5ZM134.12,435Z"/><path class="cls-2" d="M120.55,745.53c0,16.44-14.27,29.91-30.63,29.91-16.83-.23-30.39-13.7-30.39-30.14A29.72,29.72,0,0,1,71.22,722l1.4-203.17h35.07l.23,202.48A29.72,29.72,0,0,1,120.55,745.53Z"/><path class="cls-3" d="M89.92,780c-19.37-.26-35.07-15.83-35.07-34.7a33.87,33.87,0,0,1,11.7-25.4l1.39-201.08a4.62,4.62,0,0,1,4.68-4.53h35.07a4.61,4.61,0,0,1,4.67,4.56l.24,200.25a34.13,34.13,0,0,1,12.62,26.43C125.22,764.22,109.05,780,89.92,780ZM77.26,523.42,75.89,722.05a4.51,4.51,0,0,1-1.75,3.53A25,25,0,0,0,64.2,745.3c0,13.91,11.57,25.38,25.79,25.57,14,0,25.88-11.6,25.88-25.34A25.05,25.05,0,0,0,105.19,725a4.51,4.51,0,0,1-1.94-3.7L103,523.42Z"/><path class="cls-4" d="M129.2,402.2h-.71v-.45C129,401.75,129,402,129.2,402.2Z"/><path class="cls-4" d="M129.66,402.43c0-.23-.23-.23-.23-.45h.23C129.43,402.2,129.43,402.43,129.66,402.43Z"/><path class="cls-4" d="M125,412.25c0,.23-.24.23,0,0Z"/><path class="cls-4" d="M128.49,402.2c0,.46-.23.69-.23,1.15a2.07,2.07,0,0,1,.23-1.15Z"/><path class="cls-4" d="M129.2,402.2h-.71v-.45C129,401.75,129,402,129.2,402.2Z"/><path class="cls-4" d="M129.66,402.43c0-.23-.23-.23-.23-.45h.23C129.43,402.2,129.43,402.43,129.66,402.43Z"/></svg>