<svg id="Livello_1" data-name="Livello 1" xmlns="http://www.w3.org/2000/svg" viewBox="0 0 595.28 841.89"><defs><style>.cls-1{fill:#5057a3;}</style></defs><path class="cls-1" d="M22.12,773.18S46,597.92,82.54,547s132.19-76.38,132.19-76.38,36.57,114.8,82.68,118,86.09-118,86.09-118,97.21,28.64,129,79.56,60.42,223.23,60.42,223.23H22.12Z"/><path class="cls-1" d="M578.29,778H17.57l0-5.39c1-7.2,24.43-177,61.24-228.22,15.64-21.78,43.11-41.56,81.64-58.78a387.43,387.43,0,0,1,53.07-19.34l4.19-1.12,1.31,4.13c9.92,31.11,43.38,112.39,78.66,114.83,34.94,2.38,70.64-82.11,81.46-114.87l1.38-4.18,4.22,1.24c4,1.19,99.24,29.73,131.58,81.51,31.92,51.1,59.88,217.82,61,224.89Zm-551-9.1H567.54c-5.11-29.3-31-171.66-58.88-216.27-26.87-43-103.64-70.21-122.32-76.3a456,456,0,0,1-24.58,56.64c-21.82,41.4-43.58,61.7-64.66,60.21-20.82-1.44-41.8-22.52-62.36-62.65a439.78,439.78,0,0,1-22.93-54.3c-18.49,5.52-94.63,30.36-125.59,73.46C54.12,594.35,31.52,740.12,27.32,768.86Z"/><path class="cls-1" d="M575.66,775.46h-556l.45-2.51C21,765.68,44.38,596.56,81,545.64c19.3-26.83,54.51-46.38,80.63-58.2a396.63,396.63,0,0,1,52.7-19.32l2-.45.68,2c.46,1.14,36.57,113.21,80.86,116.39S381,470.85,381.45,469.71l.68-2,2.05.68a391.5,391.5,0,0,1,52.7,20.91q56.89,27.28,77.45,59.79c31.8,50.69,59.51,216.86,60.87,223.9Zm-551-4.55h545.6c-3.86-21.82-30.67-173-59.74-219.59-28.39-45.46-111.3-73.65-125.61-78-5.68,16.59-42,117.3-85.63,117.3h-2.05c-44.29-3-78.81-101.16-84-117.3-14.08,4.09-96.08,29.32-128.79,75C51,594.74,27.79,748.86,24.61,770.91Z"/><path class="cls-1" d="M581.1,780H14.17l1.41-7.75c.76-5.77,23.85-176.6,61.68-229.27C97,515.56,133,495.39,159.71,483.3A401.07,401.07,0,0,1,213,463.76l.28-.07,6-1.35,2,5.94h0l.21.59c17.11,50.68,47.46,110.6,76.67,112.69,15.63,1.06,33.72-16.5,52.2-51,13.5-25.16,23.07-51.57,26.56-61.77.08-.23.15-.41.19-.54l2.12-6.36,6.35,2.12a392.86,392.86,0,0,1,53.23,21.12c38.58,18.5,65.27,39.17,79.33,61.46,26.23,41.81,49.4,157.07,60.88,222,.32,1.79.53,3,.61,3.42ZM29.88,766.36h534.9c-8.24-45.76-32.63-171.7-58.16-212.63-26-41.59-100.54-68.55-118.94-74.69-4.19,11.73-14,37.31-27.45,61.4-20.32,36.33-40.85,54.75-61,54.75h-2.35c-20.33-1.35-40.63-20.21-60.35-56-13.39-24.34-22.79-50-26.3-60.17C188,485.81,117.32,510.13,88.05,551,57.23,593.82,34.77,733.76,29.88,766.36Z"/><path class="cls-1" d="M217.23,457c-8.18-.22-17.26-.45-26.12-1.36-27.94-2.73-51.56-9.09-71.78-19.78A91.55,91.55,0,0,1,93.67,414.7l-1.82-2,3.41-1.82,7.72-4.09a57.93,57.93,0,0,0,21.8-21.37c7-12.05,11.81-25.92,14.54-43.19A418.91,418.91,0,0,0,144.77,267c-.45-21.6-.23-47.29,4.32-73.65,5-29.1,12.72-50,24.53-68.2,25.67-38.64,63.6-58,116.07-58.65A85,85,0,0,1,348.74,89a10.28,10.28,0,0,0,7.95,3c34.3-1.36,60.42,13.64,77.46,44.1a148.73,148.73,0,0,1,15.67,43.87c6.36,29.78,7.73,62.29,4.55,99.57-2.28,26.14-3.87,51.6,2.72,76.6,5.68,21.6,14.77,36.6,28.39,47.29a65,65,0,0,0,8.18,5.45l3.18,2a10.44,10.44,0,0,0,2.27,1.13l1.37.69,2.27,1.36-1.59,2.05c-.23.22-.46.68-.68.91a7.23,7.23,0,0,1-2.05,2.5c-17.49,15.91-39.75,25.91-68.14,31.14-13.4,2.5-26.8,3.64-40,4.55l-31.8.45v-4.55l31.8-.45c12.72-1.14,26.12-2.27,39.3-4.55,27.48-5,49.06-14.77,65.87-30l.45-.46a5.77,5.77,0,0,1-1.59-.91l-2.95-2c-2.95-1.82-5.91-3.64-8.63-5.69-14.54-11.36-24.08-27.05-30-49.55-6.82-25.69-5.23-51.6-3-78.2,3.18-36.82,1.82-68.88-4.54-98.2a158.52,158.52,0,0,0-15.22-42.51c-16.13-29.09-40.88-43.19-73.37-41.82a14.54,14.54,0,0,1-11.13-4.1,79.82,79.82,0,0,0-56.1-21.36C238.81,72.14,202,90.55,177,127.83c-11.59,17.5-18.86,38-23.85,66.38-4.55,25.91-4.77,51.37-4.32,72.74a428.34,428.34,0,0,1-5.45,76.15c-2.95,18-7.72,32.28-15.22,44.78a59.55,59.55,0,0,1-23.62,23.19l-6.14,3.18a80.89,80.89,0,0,0,22.26,18c20,10.45,42.93,16.59,70.19,19.32,8.86.91,17.72,1.13,25.67,1.36l30.89-.45V457Z"/><path class="cls-1" d="M252,461.53l-35.67,0c-7.93-.22-16.92-.47-25.66-1.37-28.94-2.82-53-9.46-73.44-20.28a96.66,96.66,0,0,1-27-22.23l-5.57-6.27,16.23-8.63a53.24,53.24,0,0,0,20-19.66c6.82-11.67,11.39-25.28,14-41.59a415,415,0,0,0,5.4-74.45c-.43-20.36-.32-47.24,4.38-74.51,5-29.24,12.79-50.8,25.2-69.9,26.68-40.16,65.86-60,119.82-60.71A89.12,89.12,0,0,1,351.81,85.6a5.92,5.92,0,0,0,4.54,1.78c36.3-1.48,63.73,14.17,81.76,46.41A153.13,153.13,0,0,1,454.28,179c6.35,29.7,7.86,62.7,4.61,100.81-2.33,26.83-3.74,51,2.59,75.06,5.39,20.49,13.91,34.75,26.81,44.86a59.57,59.57,0,0,0,7.66,5.1L499.3,407a7,7,0,0,0,1.24.64l.6.25,1.67.85,6.67,4-4.9,6.29c-.09.14-.19.28-.28.4a11.58,11.58,0,0,1-2.95,3.51c-17.87,16.2-40.85,26.71-70.24,32.12-14.25,2.66-28.37,3.77-40.49,4.61h-.24l-36.41.52V446.59l36.11-.52,1.74-.15c12.13-1.08,24.68-2.2,37-4.33,24.52-4.46,44.07-12.8,59.57-25.44-2.81-1.73-5.67-3.52-8.37-5.54-15.47-12.09-25.5-28.61-31.65-52-6.91-26.05-5.4-52.58-3.08-79.74,3.17-36.72,1.71-68.4-4.46-96.85A154,154,0,0,0,426,140.63c-15.19-27.4-38.48-40.64-69.15-39.4a19,19,0,0,1-14.54-5.42,74.62,74.62,0,0,0-52.79-20c-49.16.88-84.73,18.74-108.76,54.59-11.09,16.76-18.24,36.7-23.15,64.63-4.57,26-4.67,52.09-4.25,71.86a433.37,433.37,0,0,1-5.51,77c-3.09,18.83-8.11,33.56-15.8,46.39a64,64,0,0,1-25.35,24.84l-.89.46a74.91,74.91,0,0,0,17,12.69c19,9.93,41.41,16.08,68.48,18.79,8.41.87,17,1.11,24.54,1.33l.81,0,35.3-.53Z"/><path class="cls-1" d="M297.41,402c-61.78,0-112-60.69-112-135.48a168.23,168.23,0,0,1,5.22-41.37l.46-1.36,1.36-.23A264.88,264.88,0,0,0,222,216.94c46.79-13.87,86.31-41.37,102.89-72.06l7.95-14.78L329,146.47a50.39,50.39,0,0,0-1.36,11.59c0,32.74,31.35,59.33,70,59.33h2l1.82-.23.46,1.82a162.23,162.23,0,0,1,7.26,47.74C409.62,341.28,359.19,402,297.41,402ZM194.74,227.62A159.8,159.8,0,0,0,190,266.49c0,72.29,48.16,130.94,107.44,130.94s107.67-58.65,107.67-130.94a157.12,157.12,0,0,0-6.36-44.78H398c-41.11,0-74.5-28.64-74.5-63.88v-2c-19.53,28-56.78,52.28-99.94,65A183.36,183.36,0,0,1,194.74,227.62Z"/><path class="cls-1" d="M297.41,406.52c-64.25,0-116.52-62.82-116.52-140A172.72,172.72,0,0,1,186.25,224l.55-1.68.86-2.59,4.06-.69a258,258,0,0,0,29.06-6.48C266.57,199,305,172.22,320.9,142.71l24.29-45.14L333.4,147.51a46.47,46.47,0,0,0-1.24,10.55c0,30.21,29.35,54.79,65.42,54.79h1.76l5.53-.7,1.4,5.61a166.12,166.12,0,0,1,7.44,49c.25,41.31-14.84,80.36-41.39,107.1C351.38,394.91,324.77,406.52,297.41,406.52Zm-99-174.91a155.84,155.84,0,0,0-3.94,34.88c0,69.69,46.15,126.39,102.89,126.39s103.12-56.7,103.12-126.39a153.7,153.7,0,0,0-5.26-40.28c-38.39-1.14-69.92-26.11-75.43-58.31-21.36,24.76-55.92,45.75-95,57.26A179,179,0,0,1,198.46,231.61Z"/></svg>