<svg id="Livello_1" data-name="Livello 1" xmlns="http://www.w3.org/2000/svg" viewBox="0 0 244.83 312.09"><defs><style>.cls-1{fill:#5156a1;}</style></defs><path class="cls-1" d="M1.15,311.09S11.66,234,27.78,211.56,86,177.92,86,177.92s16.12,50.46,36.45,51.87,37.85-51.87,37.85-51.87,42.75,12.62,56.77,35,26.63,98.17,26.63,98.17Z"/><path class="cls-1" d="M244.83,312.09H0L.16,311C.59,307.8,10.89,233.35,27,211c8.46-11.77,24-20.4,35.53-25.56a173.93,173.93,0,0,1,23.2-8.47l.92-.24.29.91c.16.49,16.14,49.83,35.56,51.17s36.65-50.67,36.83-51.17l.3-.92.93.27a177.81,177.81,0,0,1,23.25,9.15c16.68,8,28.14,16.84,34.06,26.31,14,22.33,26.25,95.38,26.77,98.48Zm-242.53-2H242.47c-1.67-9.64-13.49-76.1-26.3-96.59-12.53-20.05-49-32.35-55.29-34.33-2.49,7.27-18.48,51.64-37.69,51.64h-.86c-19.46-1.34-34.65-44.52-37-51.64-6.19,1.8-42.28,12.94-56.71,33C13.86,232.62,3.68,300.44,2.3,310.09Z"/><path class="cls-1" d="M87.11,172c-3.57-.1-7.57-.22-11.5-.6-12.31-1.16-22.66-4-31.64-8.7a38.77,38.77,0,0,1-11.27-9.31l-.82-.94,1.49-.81,3.4-1.83a24.57,24.57,0,0,0,9.58-9.42c3.12-5.31,5.16-11.36,6.4-19a186.81,186.81,0,0,0,2.39-33.15c-.16-9.53-.06-20.83,1.93-32.37,2.22-12.79,5.56-22,10.83-30C79.21,8.84,95.9.39,119,0a37.18,37.18,0,0,1,26,9.9,4.53,4.53,0,0,0,3.49,1.29c15.13-.59,26.62,5.95,34.15,19.43a67.41,67.41,0,0,1,6.94,19.26c2.76,13.09,3.42,27.42,2,43.8-1,11.5-1.66,22.73,1.25,33.69,2.52,9.49,6.49,16.08,12.49,20.76,1.13.87,2.39,1.66,3.61,2.42l1.37.86a8,8,0,0,0,1,.53l.58.3,1,.56-.7.92c-.1.13-.19.27-.29.41a5,5,0,0,1-.87,1.08c-7.66,6.95-17.46,11.44-30,13.71-5.87,1.07-11.81,1.57-17.55,2l-14.05.19v-2l14-.19c5.63-.47,11.52-1,17.29-2,12.13-2.21,21.61-6.54,29-13.23a2.73,2.73,0,0,0,.23-.25c-.23-.12-.45-.25-.67-.38l-1.35-.85a40.33,40.33,0,0,1-3.78-2.55c-6.36-4.95-10.56-11.88-13.19-21.82-3-11.27-2.33-22.69-1.31-34.37,1.4-16.19.76-30.32-2-43.22a66,66,0,0,0-6.74-18.7c-7.13-12.77-18-19-32.32-18.4a6.43,6.43,0,0,1-4.89-1.8A35.21,35.21,0,0,0,119,2C96.65,2.39,80.48,10.55,69.55,27,64.44,34.64,61.2,43.64,59,56.15c-2,11.37-2.07,22.56-1.91,32a188.8,188.8,0,0,1-2.42,33.5c-1.28,7.93-3.39,14.2-6.65,19.74A26.56,26.56,0,0,1,37.7,151.55L35,153a35.43,35.43,0,0,0,9.85,7.92c8.75,4.57,18.86,7.34,30.91,8.48,3.87.37,7.83.49,11.33.59l13.57-.18v2Z"/><path class="cls-1" d="M122.41,147.83c-27.22,0-49.35-26.74-49.35-59.59A71,71,0,0,1,75.41,70l.17-.63.64-.1a103.51,103.51,0,0,0,13-2.94c20.61-6.08,38-18.21,45.33-31.66l3.53-6.47-1.68,7.17a22.3,22.3,0,0,0-.58,5.08c0,14.39,13.83,26.11,30.83,26.11h.94l.8-.07.24.77a70.51,70.51,0,0,1,3.15,21C171.78,121.09,149.61,147.83,122.41,147.83ZM77.18,71.14a68.94,68.94,0,0,0-2.12,17.1c0,31.75,21.24,57.59,47.35,57.59S169.78,120,169.78,88.24a68.34,68.34,0,0,0-2.84-19.68h-.29c-18.11,0-32.83-12.61-32.83-28.11V39.6c-8.58,12.28-25,23-44,28.65A107.06,107.06,0,0,1,77.18,71.14Z"/></svg>