<svg id="Livello_1" data-name="Livello 1" xmlns="http://www.w3.org/2000/svg" viewBox="0 0 244.83 312.09"><defs><style>.cls-1{fill:#5156a1;}.cls-2{fill:#fff;}</style></defs><path class="cls-1" d="M23.92,157.34A26.2,26.2,0,0,1-2.27,131.15V16.69A15.55,15.55,0,0,1,13.35,1.22h215.8a15.56,15.56,0,0,1,15.6,15.51h0V127.06a30.37,30.37,0,0,1-30.37,30.36Z"/><path class="cls-2" d="M18.5,72.47A124.07,124.07,0,0,1,18,54.8a19.88,19.88,0,0,1,.11-2c0-.3,0-.81.28-1,.58-.53,1.57.65,1.86,1C22,55,23.49,57.48,25,59.85q2.65,4.11,5.17,8.3c1,1.59,3.48.14,2.5-1.46q-2.5-4.19-5.17-8.3c-.88-1.37-1.78-2.73-2.69-4a39.06,39.06,0,0,0-2.68-3.82,4.53,4.53,0,0,0-3.65-1.71,3.44,3.44,0,0,0-3.09,2.87,28,28,0,0,0-.32,4.58c-.05,1.66-.08,3.32-.06,5q0,5.63.57,11.25A1.5,1.5,0,0,0,17,74a1.46,1.46,0,0,0,1.45-1.45Z"/><path class="cls-2" d="M17.2,65.14a29.62,29.62,0,0,1,8.58-2.52,1.43,1.43,0,0,0,1-1.76,1.49,1.49,0,0,0-1.77-1,31.31,31.31,0,0,0-9.26,2.81,1.46,1.46,0,0,0-.51,2A1.47,1.47,0,0,0,17.2,65.14Z"/><path class="cls-2" d="M44.63,53.83a46.22,46.22,0,0,1-6.36-11.32,27.23,27.23,0,0,1-1-3,1.36,1.36,0,0,1,0-1,1.42,1.42,0,0,1,.41-.28,1.36,1.36,0,0,1,1.48.3,3.42,3.42,0,0,1,1,2,5.78,5.78,0,0,1-2.16,5.17c-1.27,1,.38,3.15,1.74,2.28,2.89-1.83,6.94-4.58,10.47-2.82,1.25.63,2.54,1.81,2.6,3.28s-1.31,2.78-2.6,3.51c-2,1.16-4.37,1.61-6.36,2.86-1.57,1-.12,3.47,1.46,2.5,2.07-1.31,4.54-1.74,6.64-3a7.08,7.08,0,0,0,3.74-5.45,6.62,6.62,0,0,0-3-5.57A8.58,8.58,0,0,0,46,41.85c-2.85.46-5.39,2-7.79,3.56L40,47.68A8.58,8.58,0,0,0,43,41c0-2.38-1.32-5.2-3.89-5.78a3.85,3.85,0,0,0-4.84,4.12,17,17,0,0,0,1.28,4.12c.51,1.29,1.06,2.57,1.67,3.82a47.81,47.81,0,0,0,4.9,8,1.52,1.52,0,0,0,2,.52,1.46,1.46,0,0,0,.51-2Z"/><path class="cls-2" d="M70.32,26c-1.51-3.14-5.9-2.71-8.3-1a10.73,10.73,0,0,0-4.38,8.49C57.54,40.69,65.45,45.76,72,43a10.83,10.83,0,0,0,6.36-8.68,1.45,1.45,0,0,0-1.44-1.45,1.48,1.48,0,0,0-1.45,1.45,7.87,7.87,0,0,1-3.86,5.62,7.17,7.17,0,0,1-6.73.26,7.54,7.54,0,0,1-4.26-5.36,7.69,7.69,0,0,1,1.83-6.3,5.34,5.34,0,0,1,3-1.88,3.22,3.22,0,0,1,1.51.07,1.23,1.23,0,0,1,.82.78A1.45,1.45,0,0,0,70.3,26Z"/><path class="cls-1" d="M244.12,312.09H14.89c.46-3.15,2.84-19.53,6.73-38.11C26,252.91,32.38,229,40,218.32a46,46,0,0,1,3-3.66c1.08-1.2,2.24-2.36,3.46-3.48h0l.17-.14c1.39-1.28,2.86-2.49,4.38-3.67,14.11-10.81,33.18-17.45,40.71-19.8,1.32-.41,2.29-.7,2.81-.84a176.05,176.05,0,0,0,10.32,24.45c4,7.75,9,15.48,14.72,20.16-.09-.28-.16-.56-.23-.84s-.14-.56-.2-.85c-.48-2.15-.79-4.35-1.46-6.41-1-3.08-1.43-6.33-2.4-9.41a10.26,10.26,0,0,1-.49-2.64,9.72,9.72,0,0,1,.74-4.16c1.19-3,2.94-4.47,6.17-4.47,5.58,0,11.18-.11,16.75.07a5.49,5.49,0,0,1,3.47,1.59,8.68,8.68,0,0,1,2.54,7,8.57,8.57,0,0,1-.3,1.74c-1.57,6-3,12-4.5,18.08-.05.25-.11.48-.17.73s-.12.5-.18.73c5.23-3.84,10-10.51,14-17.61.69-1.21,1.36-2.44,2-3.67s1.29-2.51,1.89-3.75a185.6,185.6,0,0,0,8.52-20.7h0l1.75.57c6.46,2.15,25.77,9.11,39.79,20,1.5,1.18,2.95,2.4,4.3,3.66a1.29,1.29,0,0,1,.21.19,47.18,47.18,0,0,1,3.54,3.67,37.59,37.59,0,0,1,3.59,4.81c6.63,10.6,13,34,17.64,54.73C240.74,292.75,243.56,309,244.12,312.09Z"/><path class="cls-1" d="M185.06,47.76C184,41.92,181.68,35,173.48,32.24l.07-.07c.28-.28.56-.56.87-.83l1.91-1.67-1.83-.5a7.47,7.47,0,0,1-.91-.3,5.26,5.26,0,0,0-2-.4,77.59,77.59,0,0,0-7.91.64,1.69,1.69,0,0,1-.45,0c0-.06-.05-.16-.06-.32A7.11,7.11,0,0,0,160,23.61a27,27,0,0,0-5.69-2.46L153.9,21c-.91-.3-1.28-.45-1.48-1a1.87,1.87,0,0,0-1.09-1.19,2.31,2.31,0,0,0-1.83.19l-.37.17c-1.4.69-2,.85-2.74.07a2.45,2.45,0,0,0-1.84-.51h-.17c-.64,0-1.28,0-1.9,0-1,0-2,.07-2.95,0a20.82,20.82,0,0,1-3.45-.38c-.93-.19-1.93-.4-2.89-.62a47.07,47.07,0,0,0-5.79-1,14.83,14.83,0,0,0-11.85,4,3.5,3.5,0,0,1-1.18.35c-.91.16-1.82.29-2.68.4-1.45.22-2.92.43-4.37.72a4.24,4.24,0,0,0-3.66,3,.81.81,0,0,1-.27.15C97.7,27.74,93,31.63,88,38.11c-.14.19-.28.36-.43.54a5.68,5.68,0,0,0-.49.59c-.16.19-.53.62-.8.91a9.62,9.62,0,0,0-1.79,2.58A70.39,70.39,0,0,0,79.8,63.66c-.31,4.28-.28,8.65-.23,12.88v5.87A43.27,43.27,0,0,0,82,96.85V97l.06.21.1.28c.17.58.35,1.18.51,1.79l.26,1,.06.24,1,3.32a67.9,67.9,0,0,0,8.65,33.26,52.7,52.7,0,0,0,22,21.41l1.08.52a41.18,41.18,0,0,0,29.31,2.16c.73-.22,1.47-.46,2.18-.71,20.34-7.34,35.21-30.09,35.21-57,0-1,0-1.93,0-2.9l.09-1.84a3.83,3.83,0,0,1,.13-.51c.11-.43.24-.91.37-1.3l.11-.37v-.07c.25-.86.48-1.64.67-2.45a11.57,11.57,0,0,0,.24-1.53c.92-7.44,1.62-14.94,2.39-22.58A79.26,79.26,0,0,0,185.06,47.76ZM145.94,158.91c-.42.13-.81.27-1.23.38a38.85,38.85,0,0,1-11.53,1.76A39.87,39.87,0,0,1,115.77,157C98.37,148.57,86,127.81,86,103.64A67.47,67.47,0,0,1,88,86.83,115.14,115.14,0,0,0,100.15,84c18.25-5.38,34.29-15.41,43.59-27.15,1.24,15.23,15.92,27.31,33.88,27.48a67,67,0,0,1,2.48,14.25l.22,2.15c0,.91.06,1.94.06,2.89C180.37,129.9,165.77,152.11,145.94,158.91Zm38.35-89c-.68,7-1.37,13.73-2.14,20.54l-.22,2c-.05.48-.16.92-.22,1.31v.16c-.19-1.39-.42-2.75-.69-4.14a13.44,13.44,0,0,0-.27-1.38c-.13-.64-.29-1.26-.43-1.9-.3-1.15-.59-2.31-.93-3.45l-.22-.72h-1.1c-17.85,0-32.39-12.36-32.39-27.58V53.9l.12-3.43-2,2.82C135.19,65.66,118.61,76.43,99.59,82A110.29,110.29,0,0,1,86.94,85l-.67.11-.16.64a68.47,68.47,0,0,0-1.93,11.45V97a1.85,1.85,0,0,0-.12-.4v-.08l0-.21c-.19-.54-.37-1.08-.53-1.62a40.78,40.78,0,0,1-1.77-12.21V76.67c0-4.18-.08-8.52.22-12.73a68.74,68.74,0,0,1,4.58-20.33,7.15,7.15,0,0,1,1.44-2c.29-.34.59-.66.86-1l.43-.53c.14-.17.35-.4.51-.62,4.68-6.17,9.16-9.86,14.49-12,.3-.12,1.34-.59,1.48-1.48s.69-1.32,2-1.6,2.84-.49,4.25-.7l2.74-.4a4.19,4.19,0,0,0,2.25-.91A12.81,12.81,0,0,1,127.19,19a39.46,39.46,0,0,1,5.51,1c1,.22,2,.43,3,.62a23.53,23.53,0,0,0,3.75.43h3.08l1.83-.06H145c1.84,1.77,3.67.84,5,.24l.35-.18.16-.06a3.73,3.73,0,0,0,2.76,2.15l.38.13a26.29,26.29,0,0,1,5.32,2.27,5.21,5.21,0,0,1,2.17,3.76,2.33,2.33,0,0,0,.9,1.72,2.68,2.68,0,0,0,1.92.26,69,69,0,0,1,7.72-.62,1.34,1.34,0,0,1,.53.08l-.18.19a2.16,2.16,0,0,0-.7,2.07,1.93,1.93,0,0,0,1.4,1.31c5.73,1.84,8.81,6,10.29,14a83.61,83.61,0,0,1,1.6,15.38Q184.58,66.82,184.29,69.89Z"/><path class="cls-2" d="M184.58,63.59q0,3.22-.29,6.3c-.68,7-1.37,13.73-2.14,20.54l-.22,2c-.05.48-.16.92-.22,1.31v.16c-.19-1.39-.42-2.75-.69-4.14a13.44,13.44,0,0,0-.27-1.38c-.13-.64-.29-1.26-.43-1.9-.3-1.15-.59-2.31-.93-3.45l-.22-.72h-1.1c-17.85,0-32.39-12.36-32.39-27.58V53.9l.12-3.43-2,2.82C135.19,65.66,118.61,76.43,99.59,82A110.29,110.29,0,0,1,86.94,85l-.67.11-.16.64a68.47,68.47,0,0,0-1.93,11.45V97a1.85,1.85,0,0,0-.12-.4v-.08l0-.21c-.19-.54-.37-1.08-.53-1.62a40.78,40.78,0,0,1-1.77-12.21V76.67c0-4.18-.08-8.52.22-12.73a68.74,68.74,0,0,1,4.58-20.33,7.15,7.15,0,0,1,1.44-2c.29-.34.59-.66.86-1l.43-.53c.14-.17.35-.4.51-.62,4.68-6.17,9.16-9.86,14.49-12,.3-.12,1.34-.59,1.48-1.48s.69-1.32,2-1.6,2.84-.49,4.25-.7l2.74-.4a4.19,4.19,0,0,0,2.25-.91A12.81,12.81,0,0,1,127.19,19a39.46,39.46,0,0,1,5.51,1c1,.22,2,.43,3,.62a23.53,23.53,0,0,0,3.75.43h3.08l1.83-.06H145c1.84,1.77,3.67.84,5,.24l.35-.18.16-.06a3.73,3.73,0,0,0,2.76,2.15l.38.13a26.29,26.29,0,0,1,5.32,2.27,5.21,5.21,0,0,1,2.17,3.76,2.33,2.33,0,0,0,.9,1.72,2.68,2.68,0,0,0,1.92.26,69,69,0,0,1,7.72-.62,1.34,1.34,0,0,1,.53.08l-.18.19a2.16,2.16,0,0,0-.7,2.07,1.93,1.93,0,0,0,1.4,1.31c5.73,1.84,8.81,6,10.29,14A83.61,83.61,0,0,1,184.58,63.59Z"/><path class="cls-2" d="M180.38,103.61c0,26.29-14.61,48.5-34.44,55.3-.42.13-.81.27-1.23.38a38.85,38.85,0,0,1-11.53,1.76A39.87,39.87,0,0,1,115.77,157C98.37,148.57,86,127.81,86,103.64A67.47,67.47,0,0,1,88,86.83,115.14,115.14,0,0,0,100.15,84c18.25-5.38,34.29-15.41,43.59-27.15,1.24,15.23,15.92,27.31,33.88,27.48a67,67,0,0,1,2.48,14.25l.22,2.15C180.32,101.63,180.38,102.66,180.38,103.61Z"/><path class="cls-1" d="M115.77,157a15.4,15.4,0,0,1-.09,2.15l-1.08-.51Z"/></svg>