<svg id="Livello_1" data-name="Livello 1" xmlns="http://www.w3.org/2000/svg" viewBox="0 0 595.28 841.89"><defs><style>.cls-1{fill:#fff;}.cls-2{fill:#5057a3;}</style></defs><path class="cls-1" d="M87.35,315a63.44,63.44,0,0,1,19.43-5.7,3.27,3.27,0,0,0,2.26-4.11,3.42,3.42,0,0,0-4.07-2.28,76.7,76.7,0,0,0-21,6.39,3.32,3.32,0,0,0-1.13,4.56A3.27,3.27,0,0,0,87.35,315Z"/><path class="cls-1" d="M90.29,331.89a300.68,300.68,0,0,1-1.13-40.36,28.81,28.81,0,0,1,.23-4.56c0-.69,0-1.83.67-2.28,1.36-1.14,3.62,1.59,4.3,2.28,3.84,5.24,7.22,10.72,10.61,16.19,4.07,6.16,7.91,12.54,11.75,18.93,2.26,3.65,7.9.22,5.64-3.42-3.84-6.39-7.68-12.77-11.74-18.93-2-3.19-4.07-6.16-6.1-9.12a75,75,0,0,0-6.1-8.67,10.35,10.35,0,0,0-8.13-3.88,7.72,7.72,0,0,0-7,6.62,79.47,79.47,0,0,0-.68,10.49c-.23,3.87-.23,7.52-.23,11.4a247.16,247.16,0,0,0,1.36,25.77,3.25,3.25,0,0,0,3.16,3.19,4.34,4.34,0,0,0,3.39-3.65Z"/><path class="cls-1" d="M149.24,289.25a115.53,115.53,0,0,1-14.45-25.77,39.68,39.68,0,0,1-2.26-6.84,4.63,4.63,0,0,1,0-2.51c.22-.23.67-.46.9-.68a3.13,3.13,0,0,1,3.39.68,8.73,8.73,0,0,1,2.26,4.56,13.46,13.46,0,0,1-5,11.86c-2.94,2.51.9,7.07,3.84,5.24,6.55-4.1,15.58-10.49,23.71-6.38,2.71,1.37,5.65,4.1,5.88,7.52.22,3.65-2.94,6.39-5.88,8-4.51,2.73-9.93,3.64-14.45,6.61-3.62,2.28-.23,8,3.39,5.7,4.74-3,10.16-3.88,14.9-6.84,4.52-2.74,8.14-7.07,8.36-12.54.23-5.25-2.94-9.81-6.77-12.77a20.22,20.22,0,0,0-14.91-3.2c-6.33,1.14-12.2,4.56-17.62,8.21l3.84,5.25a19,19,0,0,0,6.78-15.28c0-5.47-2.94-11.86-8.81-13.23s-11.75,3-10.84,9.35a44.73,44.73,0,0,0,2.93,9.35c1.13,3,2.49,5.93,3.84,8.67a115.31,115.31,0,0,0,11.07,18.24,3.27,3.27,0,0,0,4.52,1.14,3.09,3.09,0,0,0,1.35-4.33Z"/><path class="cls-1" d="M207.29,225.85c-3.39-7.07-13.33-6.16-18.75-2.28A24.93,24.93,0,0,0,178.6,243c-.22,16.42,17.62,28.05,32.3,21.44a25.4,25.4,0,0,0,14.46-19.84,3.11,3.11,0,0,0-3.16-3.19,3.25,3.25,0,0,0-3.17,3.19,17.88,17.88,0,0,1-8.8,12.77,16.21,16.21,0,0,1-15.14.69,16.85,16.85,0,0,1-5.64-26.69,12.11,12.11,0,0,1,6.77-4.33,5.72,5.72,0,0,1,3.39.23,2.48,2.48,0,0,1,1.81,1.82,3.25,3.25,0,0,0,4.51,1.14c1.59-.68,2-2.73,1.36-4.33Z"/><path class="cls-1" d="M87.35,315a63.44,63.44,0,0,1,19.43-5.7,3.27,3.27,0,0,0,2.26-4.11,3.42,3.42,0,0,0-4.07-2.28,76.7,76.7,0,0,0-21,6.39,3.32,3.32,0,0,0-1.13,4.56A3.27,3.27,0,0,0,87.35,315Z"/><path class="cls-1" d="M90.29,331.89a300.68,300.68,0,0,1-1.13-40.36,28.81,28.81,0,0,1,.23-4.56c0-.69,0-1.83.67-2.28,1.36-1.14,3.62,1.59,4.3,2.28,3.84,5.24,7.22,10.72,10.61,16.19,4.07,6.16,7.91,12.54,11.75,18.93,2.26,3.65,7.9.22,5.64-3.42-3.84-6.39-7.68-12.77-11.74-18.93-2-3.19-4.07-6.16-6.1-9.12a75,75,0,0,0-6.1-8.67,10.35,10.35,0,0,0-8.13-3.88,7.72,7.72,0,0,0-7,6.62,79.47,79.47,0,0,0-.68,10.49c-.23,3.87-.23,7.52-.23,11.4a247.16,247.16,0,0,0,1.36,25.77,3.25,3.25,0,0,0,3.16,3.19,4.34,4.34,0,0,0,3.39-3.65Z"/><path class="cls-1" d="M149.24,289.25a115.53,115.53,0,0,1-14.45-25.77,39.68,39.68,0,0,1-2.26-6.84,4.63,4.63,0,0,1,0-2.51c.22-.23.67-.46.9-.68a3.13,3.13,0,0,1,3.39.68,8.73,8.73,0,0,1,2.26,4.56,13.46,13.46,0,0,1-5,11.86c-2.94,2.51.9,7.07,3.84,5.24,6.55-4.1,15.58-10.49,23.71-6.38,2.71,1.37,5.65,4.1,5.88,7.52.22,3.65-2.94,6.39-5.88,8-4.51,2.73-9.93,3.64-14.45,6.61-3.62,2.28-.23,8,3.39,5.7,4.74-3,10.16-3.88,14.9-6.84,4.52-2.74,8.14-7.07,8.36-12.54.23-5.25-2.94-9.81-6.77-12.77a20.22,20.22,0,0,0-14.91-3.2c-6.33,1.14-12.2,4.56-17.62,8.21l3.84,5.25a19,19,0,0,0,6.78-15.28c0-5.47-2.94-11.86-8.81-13.23s-11.75,3-10.84,9.35a44.73,44.73,0,0,0,2.93,9.35c1.13,3,2.49,5.93,3.84,8.67a115.31,115.31,0,0,0,11.07,18.24,3.27,3.27,0,0,0,4.52,1.14,3.09,3.09,0,0,0,1.35-4.33Z"/><path class="cls-1" d="M207.29,225.85c-3.39-7.07-13.33-6.16-18.75-2.28A24.93,24.93,0,0,0,178.6,243c-.22,16.42,17.62,28.05,32.3,21.44a25.4,25.4,0,0,0,14.46-19.84,3.11,3.11,0,0,0-3.16-3.19,3.25,3.25,0,0,0-3.17,3.19,17.88,17.88,0,0,1-8.8,12.77,16.21,16.21,0,0,1-15.14.69,16.85,16.85,0,0,1-5.64-26.69,12.11,12.11,0,0,1,6.77-4.33,5.72,5.72,0,0,1,3.39.23,2.48,2.48,0,0,1,1.81,1.82,3.25,3.25,0,0,0,4.51,1.14c1.59-.68,2-2.73,1.36-4.33Z"/><path class="cls-1" d="M87.35,315a63.44,63.44,0,0,1,19.43-5.7,3.27,3.27,0,0,0,2.26-4.11,3.42,3.42,0,0,0-4.07-2.28,76.7,76.7,0,0,0-21,6.39,3.32,3.32,0,0,0-1.13,4.56A3.27,3.27,0,0,0,87.35,315Z"/><path class="cls-1" d="M90.29,331.89a300.68,300.68,0,0,1-1.13-40.36,28.81,28.81,0,0,1,.23-4.56c0-.69,0-1.83.67-2.28,1.36-1.14,3.62,1.59,4.3,2.28,3.84,5.24,7.22,10.72,10.61,16.19,4.07,6.16,7.91,12.54,11.75,18.93,2.26,3.65,7.9.22,5.64-3.42-3.84-6.39-7.68-12.77-11.74-18.93-2-3.19-4.07-6.16-6.1-9.12a75,75,0,0,0-6.1-8.67,10.35,10.35,0,0,0-8.13-3.88,7.72,7.72,0,0,0-7,6.62,79.47,79.47,0,0,0-.68,10.49c-.23,3.87-.23,7.52-.23,11.4a247.16,247.16,0,0,0,1.36,25.77,3.25,3.25,0,0,0,3.16,3.19,4.34,4.34,0,0,0,3.39-3.65Z"/><path class="cls-1" d="M149.24,289.25a115.53,115.53,0,0,1-14.45-25.77,39.68,39.68,0,0,1-2.26-6.84,4.63,4.63,0,0,1,0-2.51c.22-.23.67-.46.9-.68a3.13,3.13,0,0,1,3.39.68,8.73,8.73,0,0,1,2.26,4.56,13.46,13.46,0,0,1-5,11.86c-2.94,2.51.9,7.07,3.84,5.24,6.55-4.1,15.58-10.49,23.71-6.38,2.71,1.37,5.65,4.1,5.88,7.52.22,3.65-2.94,6.39-5.88,8-4.51,2.73-9.93,3.64-14.45,6.61-3.62,2.28-.23,8,3.39,5.7,4.74-3,10.16-3.88,14.9-6.84,4.52-2.74,8.14-7.07,8.36-12.54.23-5.25-2.94-9.81-6.77-12.77a20.22,20.22,0,0,0-14.91-3.2c-6.33,1.14-12.2,4.56-17.62,8.21l3.84,5.25a19,19,0,0,0,6.78-15.28c0-5.47-2.94-11.86-8.81-13.23s-11.75,3-10.84,9.35a44.73,44.73,0,0,0,2.93,9.35c1.13,3,2.49,5.93,3.84,8.67a115.31,115.31,0,0,0,11.07,18.24,3.27,3.27,0,0,0,4.52,1.14,3.09,3.09,0,0,0,1.35-4.33Z"/><path class="cls-1" d="M207.29,225.85c-3.39-7.07-13.33-6.16-18.75-2.28A24.93,24.93,0,0,0,178.6,243c-.22,16.42,17.62,28.05,32.3,21.44a25.4,25.4,0,0,0,14.46-19.84,3.11,3.11,0,0,0-3.16-3.19,3.25,3.25,0,0,0-3.17,3.19,17.88,17.88,0,0,1-8.8,12.77,16.21,16.21,0,0,1-15.14.69,16.85,16.85,0,0,1-5.64-26.69,12.11,12.11,0,0,1,6.77-4.33,5.72,5.72,0,0,1,3.39.23,2.48,2.48,0,0,1,1.81,1.82,3.25,3.25,0,0,0,4.51,1.14c1.59-.68,2-2.73,1.36-4.33Z"/><path class="cls-1" d="M87.35,315a63.44,63.44,0,0,1,19.43-5.7,3.27,3.27,0,0,0,2.26-4.11,3.42,3.42,0,0,0-4.07-2.28,76.7,76.7,0,0,0-21,6.39,3.32,3.32,0,0,0-1.13,4.56A3.27,3.27,0,0,0,87.35,315Z"/><path class="cls-1" d="M90.29,331.89a300.68,300.68,0,0,1-1.13-40.36,28.81,28.81,0,0,1,.23-4.56c0-.69,0-1.83.67-2.28,1.36-1.14,3.62,1.59,4.3,2.28,3.84,5.24,7.22,10.72,10.61,16.19,4.07,6.16,7.91,12.54,11.75,18.93,2.26,3.65,7.9.22,5.64-3.42-3.84-6.39-7.68-12.77-11.74-18.93-2-3.19-4.07-6.16-6.1-9.12a75,75,0,0,0-6.1-8.67,10.35,10.35,0,0,0-8.13-3.88,7.72,7.72,0,0,0-7,6.62,79.47,79.47,0,0,0-.68,10.49c-.23,3.87-.23,7.52-.23,11.4a247.16,247.16,0,0,0,1.36,25.77,3.25,3.25,0,0,0,3.16,3.19,4.34,4.34,0,0,0,3.39-3.65Z"/><path class="cls-1" d="M149.24,289.25a115.53,115.53,0,0,1-14.45-25.77,39.68,39.68,0,0,1-2.26-6.84,4.63,4.63,0,0,1,0-2.51c.22-.23.67-.46.9-.68a3.13,3.13,0,0,1,3.39.68,8.73,8.73,0,0,1,2.26,4.56,13.46,13.46,0,0,1-5,11.86c-2.94,2.51.9,7.07,3.84,5.24,6.55-4.1,15.58-10.49,23.71-6.38,2.71,1.37,5.65,4.1,5.88,7.52.22,3.65-2.94,6.39-5.88,8-4.51,2.73-9.93,3.64-14.45,6.61-3.62,2.28-.23,8,3.39,5.7,4.74-3,10.16-3.88,14.9-6.84,4.52-2.74,8.14-7.07,8.36-12.54.23-5.25-2.94-9.81-6.77-12.77a20.22,20.22,0,0,0-14.91-3.2c-6.33,1.14-12.2,4.56-17.62,8.21l3.84,5.25a19,19,0,0,0,6.78-15.28c0-5.47-2.94-11.86-8.81-13.23s-11.75,3-10.84,9.35a44.73,44.73,0,0,0,2.93,9.35c1.13,3,2.49,5.93,3.84,8.67a115.31,115.31,0,0,0,11.07,18.24,3.27,3.27,0,0,0,4.52,1.14,3.09,3.09,0,0,0,1.35-4.33Z"/><path class="cls-1" d="M207.29,225.85c-3.39-7.07-13.33-6.16-18.75-2.28A24.93,24.93,0,0,0,178.6,243c-.22,16.42,17.62,28.05,32.3,21.44a25.4,25.4,0,0,0,14.46-19.84,3.11,3.11,0,0,0-3.16-3.19,3.25,3.25,0,0,0-3.17,3.19,17.88,17.88,0,0,1-8.8,12.77,16.21,16.21,0,0,1-15.14.69,16.85,16.85,0,0,1-5.64-26.69,12.11,12.11,0,0,1,6.77-4.33,5.72,5.72,0,0,1,3.39.23,2.48,2.48,0,0,1,1.81,1.82,3.25,3.25,0,0,0,4.51,1.14c1.59-.68,2-2.73,1.36-4.33Z"/><path class="cls-2" d="M77.87,422.43c-32.75,0-59.18-26.68-59.18-59.75V101.79A35.25,35.25,0,0,1,53.93,66.45H541.35a35.25,35.25,0,0,1,35.23,35.34h0V353.33c0,38.31-30.71,69.32-68.66,69.32Z"/><path class="cls-2" d="M507.92,427.22,77.86,427c-35.11,0-63.69-28.85-63.69-64.31V101.8A39.88,39.88,0,0,1,53.93,61.89H541.35A39.87,39.87,0,0,1,581.1,101.8V353.33C581.1,394.07,548.27,427.22,507.92,427.22ZM53.93,71A30.79,30.79,0,0,0,23.21,101.8V362.68c0,30.43,24.52,55.19,54.66,55.19h0l430.05.22c35.37,0,64.15-29,64.15-64.76V101.8A30.79,30.79,0,0,0,541.35,71Z"/><path class="cls-2" d="M575.23,775.44H57.31c1.13-7.3,6.33-44.47,15.14-86.88,9.93-48.12,24.39-102.62,41.56-127a78.83,78.83,0,0,1,6.77-8.43,86.22,86.22,0,0,1,7.91-8h0l.45-.23c3.16-3,6.55-5.7,9.94-8.44,31.84-24.63,75-39.91,91.93-45.15,2.93-.92,5.19-1.6,6.32-1.83a415.26,415.26,0,0,0,23.26,55.87c9,17.56,20.56,35.35,33.21,46.07a7,7,0,0,1-.45-1.83c-.23-.68-.23-1.36-.46-1.82-1.13-5-1.8-10-3.38-14.6-2.26-7.06-3.17-14.36-5.43-21.43A27.53,27.53,0,0,1,283,545.8a23.07,23.07,0,0,1,1.58-9.58c2.71-6.84,6.55-10.26,14-10.26,12.65,0,25.3-.23,37.72.23a13.36,13.36,0,0,1,7.91,3.65,19,19,0,0,1,5.64,16,10.58,10.58,0,0,1-.68,3.88C345.52,563.36,342.36,577,339,591c-.22.46-.22,1.14-.45,1.6s-.23,1.14-.45,1.59c11.74-8.66,22.58-23.94,31.62-40.13,1.58-2.74,3.16-5.47,4.52-8.44s2.93-5.7,4.29-8.66a429.11,429.11,0,0,0,19.2-47.21h0l3.84,1.37c14.68,4.79,58.27,20.75,89.89,45.61,3.39,2.73,6.55,5.47,9.71,8.44l.46.45c2.71,2.74,5.42,5.47,7.9,8.44a96.46,96.46,0,0,1,8.13,11c14.91,24.17,29.37,77.53,39.76,124.74C567.55,731.43,573.87,768.37,575.23,775.44Z"/><path class="cls-2" d="M580.7,780H52l1.38-9c1.86-12.53,6.81-45.81,14.62-83.38,9.14-44.3,23.91-102.59,42.29-128.73a84,84,0,0,1,7.13-8.88,92.41,92.41,0,0,1,8.32-8.38l.78-.53c3.14-2.91,6.48-5.6,9.71-8.21,34.07-26.35,80.12-41.84,93.42-45.95,3.49-1.09,5.49-1.68,6.77-1.94l3.91-.79,1.26,3.82a410.7,410.7,0,0,0,23,55.25c5.21,10.11,12.58,22.86,21.26,33.43-.2-.69-.41-1.37-.64-2-1.23-3.84-2.05-7.6-2.85-11.23s-1.54-7-2.6-10.31a31.07,31.07,0,0,1-1.32-6.83,27.76,27.76,0,0,1,1.85-11.72c2.25-5.69,6.57-13.18,18.22-13.18l9.49,0c9.34,0,19-.09,28.39.26a17.9,17.9,0,0,1,10.77,4.82,23.82,23.82,0,0,1,7.14,19.62,15.59,15.59,0,0,1-.89,5c-2.57,9.73-5,19.68-7.27,29.31,6.45-7.27,13-16.85,19.58-28.63,1.61-2.79,3.09-5.35,4.35-8.11.71-1.55,1.48-3,2.24-4.53s1.41-2.72,2.06-4.14a421.77,421.77,0,0,0,19-46.75l1.46-4.38,8.16,2.91c9.11,3,56.86,19.34,91.17,46.31,3.59,2.9,6.85,5.73,10,8.69l.55.56c2.74,2.77,5.56,5.61,8.18,8.73a102.72,102.72,0,0,1,8.48,11.42c16.18,26.23,30.88,83.12,40.37,126.23,8.77,36,14.77,68.93,17,81.33.37,2,.65,3.57.83,4.54ZM62.57,770.88H569.8c-2.36-12.9-8.26-45-16.8-80.09-13.22-60.06-27.14-103.86-39.2-123.42A92.28,92.28,0,0,0,506.09,557c-2.41-2.88-5.09-5.59-7.69-8.2l-.46-.47c-2.86-2.68-6-5.37-9.33-8.09-32.66-25.68-78.38-41.52-88.12-44.72a439.54,439.54,0,0,1-17.92,43.35c-.68,1.5-1.44,3-2.21,4.47s-1.41,2.73-2.05,4.14c-1.44,3.16-3.11,6-4.71,8.81-10.87,19.48-21.94,33.47-32.87,41.54L325.64,609l8.23-16.55a7.7,7.7,0,0,1,.44-1.53,9.66,9.66,0,0,1,.35-1.35c.91-3.71,1.79-7.41,2.68-11.09,2.36-9.82,4.8-20,7.43-30l.17-.52a6.1,6.1,0,0,0,.36-2.18l0-.52a14.53,14.53,0,0,0-4.26-12.13,9.05,9.05,0,0,0-5.15-2.42c-9-.32-18.59-.28-27.84-.24-3.18,0-6.35,0-9.53,0-5.14,0-7.62,1.87-9.81,7.4a18.38,18.38,0,0,0-1.27,7.55,21.82,21.82,0,0,0,.91,4.81c1.21,3.79,2,7.54,2.84,11.18s1.53,7,2.59,10.31a77.92,77.92,0,0,1,2.56,10.41c.27,1.4.55,2.81.86,4.22a9.24,9.24,0,0,1,.36,1.46c0,.1,0,.21.06.32l.23.7v.42c.05.21.13.43.21.66l5.1,15.35L290.89,594.9c-14.49-12.28-26.65-32.58-34.3-47.45A425.19,425.19,0,0,1,234.42,495l-2.09.65c-12.94,4-57.71,19.05-90.51,44.41-3.34,2.7-6.57,5.31-9.61,8.16l-.47.44-.54.27a87.78,87.78,0,0,0-7.07,7.22,74.33,74.33,0,0,0-6.41,8C100.21,589,85.84,646,76.87,689.49,69.41,725.42,64.57,757.43,62.57,770.88Zm271.9-180.35Zm0,0h0Zm-36.64-1.38Z"/><path class="cls-2" d="M441.74,172.72c-2.48-13.23-7.68-29.19-26.2-35.35l.23-.23a13.94,13.94,0,0,1,2-1.82l4.29-3.88L418,130.3l-2-.68a9.93,9.93,0,0,0-4.52-.92c-5.87.23-12,.69-17.84,1.37h-.9a.83.83,0,0,0-.23-.68,16.7,16.7,0,0,0-7-11.86,65.56,65.56,0,0,0-12.87-5.7l-.91-.23c-2-.68-2.93-.91-3.39-2.28a4.92,4.92,0,0,0-2.48-2.74,5.08,5.08,0,0,0-4.07.46l-.9.46c-3.16,1.59-4.52,1.82-6.1.22a5.38,5.38,0,0,0-4.06-1.14h-5.2a66.66,66.66,0,0,1-6.78,0,41.17,41.17,0,0,1-7.67-.91c-2-.45-4.3-.91-6.55-1.37A83.54,83.54,0,0,0,311.41,102a32.83,32.83,0,0,0-26.87,9.35,12.18,12.18,0,0,1-2.71.91,56.19,56.19,0,0,1-6.1.92c-3.39.45-6.55.91-9.94,1.59-1.81.46-7,1.37-8.36,6.84a.82.82,0,0,1-.68.23c-12.87,5-23.49,13.91-34.55,28.74a5.15,5.15,0,0,1-.91,1.14,6,6,0,0,0-1.13,1.37c-.45.45-1.13,1.36-1.8,2a22.76,22.76,0,0,0-4.07,5.93,165.62,165.62,0,0,0-10.61,47.66c-.68,9.8-.68,19.61-.46,29.42v13.45a101.24,101.24,0,0,0,5.42,32.84v.46l.23.45c0,.23.23.46.23.69a28.11,28.11,0,0,1,1.13,4.1l.67,2.28.23.46,2.26,7.52c.22,28.05,7.23,54.28,19.42,75.94s29.37,38.77,49.69,48.8L285,426.3a92.3,92.3,0,0,0,66.18,5c1.58-.46,3.39-1.14,5-1.6,45.85-16.64,79.5-68.64,79.5-130v-6.62l.23-4.1c0-.46.22-.68.22-1.14a15.24,15.24,0,0,1,.91-3l.22-.92v-.22a52.82,52.82,0,0,0,1.58-5.71,17.46,17.46,0,0,0,.46-3.42c2-16.87,3.61-34,5.42-51.54A179.86,179.86,0,0,0,441.74,172.72ZM353.43,426.08c-.91.22-1.81.68-2.71.91a83.86,83.86,0,0,1-26,4.1,87.46,87.46,0,0,1-39.3-9.35c-39.3-19.15-67.31-66.59-67.31-121.55a156.3,156.3,0,0,1,4.74-38.31,276.4,276.4,0,0,0,27.33-6.38c41.34-12.32,77.48-35.12,98.48-62,2.71,34.66,35.92,62.26,76.57,62.71a156.76,156.76,0,0,1,5.65,32.38l.45,5c0,2.05.23,4.33.23,6.61C431.13,359.94,398.15,410.57,353.43,426.08Zm86.73-203c-1.58,16-3.16,31.24-4.74,46.74l-.46,4.57c0,1.14-.45,2.05-.45,3v.46c-.45-3.2-.9-6.16-1.58-9.35-.22-1.14-.45-2.06-.68-3.2-.22-1.36-.67-3-.9-4.33-.68-2.51-1.35-5.24-2-7.75l-.45-1.6h-2.49c-40.43,0-73.18-28.28-73.18-62.94v-1.82l.23-7.76-4.52,6.39c-19.43,28.28-56.92,52.68-99.83,65.45a251.35,251.35,0,0,1-28.69,6.61l-1.58.23-.45,1.37a146.79,146.79,0,0,0-4.29,26.22v-.45c0-.23-.23-.69-.23-.92v-.68a23.19,23.19,0,0,1-1.13-3.65,97.57,97.57,0,0,1-4.07-27.82V238.39c0-9.57-.22-19.38.46-29a154.52,154.52,0,0,1,10.39-46.29,20.25,20.25,0,0,1,3.16-4.56c.68-.69,1.35-1.6,2-2.28a5.2,5.2,0,0,1,.9-1.14c.23-.46.91-.91,1.13-1.37,10.62-14.14,20.78-22.58,32.76-27.37.67-.22,2.93-1.36,3.38-3.42.23-2,1.58-3,4.52-3.65s6.32-1.14,9.49-1.59l6.1-.91a9.68,9.68,0,0,0,5-2.06,28.88,28.88,0,0,1,23-8,75.26,75.26,0,0,1,12.43,2.28l6.77,1.37a51.63,51.63,0,0,0,8.36.91h7l4.07-.23h1.58c4.06,4.11,8.35,1.83,11.29.46h.9l.46-.23a9,9,0,0,0,6.32,5l.9.23a56.17,56.17,0,0,1,12,5.24,12.6,12.6,0,0,1,5,8.67,5.13,5.13,0,0,0,2,3.88,7.15,7.15,0,0,0,4.29.68,112,112,0,0,1,17.39-1.37,1.68,1.68,0,0,1,1.13.23l-.45.46a4.73,4.73,0,0,0-1.58,4.78,4.21,4.21,0,0,0,3.16,3c12.87,4.1,19.88,13.68,23.26,31.93a203.76,203.76,0,0,1,3.62,35.11C440.61,213.54,440.39,218.33,440.16,223.12Z"/><path class="cls-2" d="M324.67,439.8a97.5,97.5,0,0,1-41.59-9.36l-2.45-1.12c-21.06-10.4-38.91-27.91-51.75-50.7s-19.67-49.46-20-77.5l-3.11-10.21a24.06,24.06,0,0,0-1-3.41l0-.09c-.05-.12-.11-.26-.16-.42l-.49-1v-.77a105.21,105.21,0,0,1-5.42-33.6V238.17c-.28-11.92-.14-21.12.46-29.74a169,169,0,0,1,10.91-49l.17-.39a27.23,27.23,0,0,1,4.91-7.12c.29-.29.57-.63.83-.94l.54-.63a11.52,11.52,0,0,1,1.56-1.84l.17-.17.33-.5c11.3-15.13,22.24-24.36,35.3-29.75,2.63-5.77,8.42-7.16,10.48-7.65l.32-.08c3.54-.72,6.6-1.18,10.44-1.69a56.29,56.29,0,0,0,5.72-.85c.39-.1.8-.2,1.16-.33a37.45,37.45,0,0,1,29.91-10,86.38,86.38,0,0,1,13.61,2.37c2.25.45,4.49.91,6.51,1.36a37.76,37.76,0,0,0,6.7.8l.45,0a29.81,29.81,0,0,0,3.92,0c.8,0,1.61-.06,2.41-.06h4.89a9.87,9.87,0,0,1,7.07,2c.3-.12.74-.32,1.38-.64l.77-.39a9.41,9.41,0,0,1,7.65-.77l.25.09a9.3,9.3,0,0,1,4.71,4.63l.57.18.91.25a69.44,69.44,0,0,1,14,6.13l.41.26a21.35,21.35,0,0,1,8.18,11.4c4.89-.5,9.93-.86,15-1a15.25,15.25,0,0,1,6.39,1.23l1.66.56,11.91,3.34L423.82,136c15.41,8.34,20.14,24.1,22.35,35.83a184.58,184.58,0,0,1,3,51.65c-.51,4.93-1,9.72-1.46,14.48-1.28,12.75-2.48,24.8-4,37a22.72,22.72,0,0,1-.53,4,55.22,55.22,0,0,1-1.5,5.58v.06L441,287a10.33,10.33,0,0,0-.45,1.55l0,.12a8,8,0,0,1-.21,1l-.2,3.65v6.49c0,61.42-33.92,116.64-82.5,134.28l-.28.09c-.73.21-1.52.48-2.3.74s-1.82.61-2.67.86A96.16,96.16,0,0,1,324.67,439.8ZM226.56,265.85a152.94,152.94,0,0,0-3.91,34.34c0,51.37,26,98.57,64.75,117.44,19.11,9.65,42,11.53,61.92,5l.3-.09a7.47,7.47,0,0,0,.87-.3c.54-.2,1.08-.4,1.62-.55,43.71-15.25,74.52-65.2,74.95-121.55,0-1.06-.06-2.15-.11-3.21s-.11-2.15-.12-3.16L426.4,289a149.63,149.63,0,0,0-4.63-28.34c-37.1-1.78-68.27-25.53-76-56.73-22.14,24.39-55.93,44.52-94.33,56C244.62,261.78,235.82,264.11,226.56,265.85Zm-12.88,19.68c.16.49.32,1,.47,1.53,0-.5.08-1,.13-1.5Zm9.88-120.4a150.94,150.94,0,0,0-10,44.63c-.53,7.5-.49,15.31-.46,22.87,0,1.93,0,3.85,0,5.76v13.46q0,4,.35,8L214,258l.53-1.65.89-2.68,4.34-.63a242.39,242.39,0,0,0,28.09-6.48C290,234,326.44,210.19,345.2,182.89l13.18-18.63L357.72,187v1.69c0,32.19,30.8,58.38,68.66,58.38h5.89l.69,2.42c.9-8.79,1.8-17.64,2.69-26.7.22-4.7.45-9.39.67-13.65A197.92,197.92,0,0,0,432.79,175c-3.09-16.63-8.94-24.86-20.19-28.45a8.67,8.67,0,0,1-6.15-6.06,10.93,10.93,0,0,1-.29-2A107.45,107.45,0,0,0,395,139.6a11.67,11.67,0,0,1-7-1.11l-.8-.52a9.71,9.71,0,0,1-3.73-7.08,7.93,7.93,0,0,0-3-5.23A50.93,50.93,0,0,0,369.81,121l-.77-.19a13.84,13.84,0,0,1-7-4c-3.12,1.25-7.93,2.41-12.52-1.06l-4,.21h-7a55.81,55.81,0,0,1-9.1-1l-7.24-1.47a68.91,68.91,0,0,0-11.69-2.14,24.34,24.34,0,0,0-19.43,6.73l-.24.22a14.26,14.26,0,0,1-7.31,3.07l-6.94,1c-2.81.4-5.72.81-8.18,1.39-.55.13-.92.24-1.16.32-.89,3.76-4.23,5.87-6.19,6.58-11.15,4.48-20.6,12.4-30.58,25.64a7.45,7.45,0,0,1-1.05,1.29l-.11.22-.51.52-.17.18-.23.45-.52.52c-.26.27-.52.58-.78.89-.41.49-.83,1-1.24,1.39A15.65,15.65,0,0,0,223.56,165.13Zm-5.23-16.86Z"/><path class="cls-1" d="M440.61,208.75a143.51,143.51,0,0,1-.68,14.37c-1.58,16-3.16,31.24-4.74,46.74l-.45,4.57c0,1.14-.45,2.05-.45,3v.46c-.45-3.2-.91-6.16-1.58-9.35-.23-1.14-.46-2.06-.68-3.2-.23-1.36-.68-3-.91-4.33-.67-2.51-1.35-5.24-2-7.75l-.45-1.6h-2.48c-40.43,0-73.19-28.28-73.19-62.94v-1.82l.23-7.76-4.52,6.39c-19.42,28.28-56.92,52.68-99.83,65.45a250.86,250.86,0,0,1-28.69,6.61l-1.58.23-.45,1.37a147.69,147.69,0,0,0-4.29,26.22v-.45c0-.23-.23-.69-.23-.92v-.68a23.19,23.19,0,0,1-1.13-3.65,97.56,97.56,0,0,1-4.06-27.82V238.39c0-9.57-.23-19.38.45-29a154.82,154.82,0,0,1,10.39-46.29,20.58,20.58,0,0,1,3.16-4.56c.68-.69,1.36-1.6,2-2.28a4.67,4.67,0,0,1,.9-1.14c.22-.46.9-.91,1.13-1.37,10.61-14.14,20.78-22.58,32.75-27.37.68-.22,2.94-1.36,3.39-3.42.22-2,1.58-3,4.51-3.65s6.33-1.14,9.49-1.59l6.1-.91a9.71,9.71,0,0,0,5-2.06,28.86,28.86,0,0,1,23-8,75.15,75.15,0,0,1,12.42,2.28l6.78,1.37a51.51,51.51,0,0,0,8.35.91h7l4.06-.23h1.58c4.07,4.11,8.36,1.83,11.3.46h1.12l.46-.23a9,9,0,0,0,6.32,5l.9.23a56.17,56.17,0,0,1,12,5.24,12.6,12.6,0,0,1,5,8.67,5.13,5.13,0,0,0,2,3.88,7.15,7.15,0,0,0,4.29.68,112,112,0,0,1,17.39-1.37,1.68,1.68,0,0,1,1.13.23l-.45.46a4.73,4.73,0,0,0-1.58,4.78,4.21,4.21,0,0,0,3.16,3c12.87,4.1,19.88,13.68,23.26,31.93A193.11,193.11,0,0,1,440.61,208.75Z"/><path class="cls-2" d="M209.46,286a6.57,6.57,0,0,1-.36-1.8,26.16,26.16,0,0,1-1-3.38,102.08,102.08,0,0,1-4.2-28.94V238.39c0-1.91,0-3.83,0-5.75,0-7.72-.07-15.7.48-23.53a159.87,159.87,0,0,1,10.71-47.67l.27-.56a24.52,24.52,0,0,1,3.89-5.53c.26-.26.52-.58.78-.88s.56-.66.84-1a9.12,9.12,0,0,1,1-1.22,10.06,10.06,0,0,1,.9-1l.17-.22c11.11-14.8,21.81-23.7,34.69-28.85l.23-.08a2.13,2.13,0,0,0,.43-.3c1-5.28,6-6.44,7.89-6.89,2.84-.66,5.94-1.11,8.94-1.53l7-1a5.43,5.43,0,0,0,2.64-1,33.5,33.5,0,0,1,26.51-9.08,78.58,78.58,0,0,1,13,2.37l6.61,1.34a48.07,48.07,0,0,0,7.47.82h6.88l7.64-.23,1.33,1.34c1.38,1.39,2.35,1.35,5.81-.28l1.29-.6h1.06l3.69-1.86,1.94,4.31a4.51,4.51,0,0,0,3.23,2.46l1.25.32a61.19,61.19,0,0,1,12.9,5.66l.42.28A17.29,17.29,0,0,1,392.47,130l0,.55a2.58,2.58,0,0,0,1.07.08,117.28,117.28,0,0,1,18.13-1.43,5.78,5.78,0,0,1,4.31,1.55l3.22,3.22-3.86,3.9c14.54,4.7,22.62,15.62,26.29,35.41a196.81,196.81,0,0,1,3.47,35.51c0,5.13-.24,10.11-.7,14.82-1.19,12-2.38,23.59-3.56,35.19l-1.62,15.93a11.45,11.45,0,0,1-.36,2.43c0,.15-.07.29-.09.43v.3l-9,.64c-.49-3.42-.91-6.13-1.53-9-.12-.58-.22-1.05-.33-1.53s-.24-1.11-.36-1.73-.28-1.37-.42-2-.35-1.51-.47-2.22c-.32-1.18-.64-2.41-.95-3.64-.19-.72-.37-1.44-.56-2.14-40.64-.43-73.88-28.11-76.57-62.94C328,220,291.65,243,250.13,255.31a254.44,254.44,0,0,1-28,6.54,144.1,144.1,0,0,0-3.77,23.87l-9-.35A3.56,3.56,0,0,0,209.46,286Zm13.88-120.85a150.38,150.38,0,0,0-10,44.64c-.53,7.48-.5,15.29-.46,22.84,0,1.93,0,3.87,0,5.79v13.46c0,2.68.11,5.35.35,8,.15-.63.31-1.26.47-1.88l.54-1.65.88-2.68,4.34-.63a242.39,242.39,0,0,0,28.09-6.48c42.2-12.56,78.61-36.36,97.36-63.66l13.18-18.63L357.49,187v1.69c0,32.19,30.8,58.38,68.67,58.38h5.89l.68,2.42c.91-8.83,1.81-17.71,2.71-26.82.43-4.4.65-9.08.65-13.91a188.11,188.11,0,0,0-3.31-33.84c-3.08-16.58-8.93-24.81-20.18-28.4a8.67,8.67,0,0,1-6.15-6.06,10.93,10.93,0,0,1-.29-2A107.45,107.45,0,0,0,395,139.6a11.67,11.67,0,0,1-7-1.11l-.8-.52a9.71,9.71,0,0,1-3.73-7.08,7.93,7.93,0,0,0-3-5.23A50.93,50.93,0,0,0,369.81,121l-.77-.19a13.76,13.76,0,0,1-7.07-4.11c-3.11,1.27-8,2.54-12.69-1l-4,.21h-7a55.81,55.81,0,0,1-9.1-1L322,113.49a68.72,68.72,0,0,0-11.69-2.14,24.34,24.34,0,0,0-19.43,6.73l-.24.22a14.19,14.19,0,0,1-7.3,3.07l-7,1c-2.81.4-5.72.81-8.18,1.39-.54.13-.91.24-1.15.32-.89,3.76-4.23,5.87-6.19,6.58-11.16,4.48-20.61,12.4-30.58,25.65a8.26,8.26,0,0,1-1.05,1.28l-.12.23-.52.53a2.11,2.11,0,0,0-.15.15l-.23.46-.52.52c-.26.27-.52.58-.78.88-.42.49-.84,1-1.26,1.41A15.35,15.35,0,0,0,223.34,165.12Zm191.58-27.45Z"/><path class="cls-1" d="M431.13,300c0,60-33,110.6-77.7,126.11-.91.22-1.81.68-2.71.91a83.86,83.86,0,0,1-26,4.1,87.46,87.46,0,0,1-39.3-9.35c-39.3-19.15-67.31-66.59-67.31-121.55a156.3,156.3,0,0,1,4.74-38.31,276.4,276.4,0,0,0,27.33-6.38c41.34-12.32,77.48-35.12,98.48-62,2.71,34.66,35.92,62.26,76.57,62.71a156.76,156.76,0,0,1,5.65,32.38l.45,5A59.83,59.83,0,0,0,431.13,300Z"/><path class="cls-2" d="M324.74,435.65a92.15,92.15,0,0,1-41.32-9.83c-41.73-20.34-69.81-70.83-69.81-125.63a161.44,161.44,0,0,1,4.89-39.43l.72-2.87,2.89-.5c9.93-1.72,19.59-4.26,26.9-6.29C289.5,239,324.57,217,345.14,190.65l7.14-9.15.91,11.61c2.53,32.38,34.21,58.09,72.11,58.51l3.38,0,.92,3.28a161.49,161.49,0,0,1,5.81,33.34l.48,5.38-.06.48a56.17,56.17,0,0,0-.19,5.83c0,60.3-33.2,113.93-80.75,130.42l-.37.11a7.33,7.33,0,0,0-.86.3c-.56.21-1.12.42-1.68.57A87.88,87.88,0,0,1,324.74,435.65Zm-98.18-169.8a152.94,152.94,0,0,0-3.91,34.34c0,51.37,26,98.57,64.75,117.44,19.11,9.65,42,11.53,61.92,5l.3-.09a7.47,7.47,0,0,0,.87-.3c.54-.2,1.08-.4,1.62-.55,43.87-15.3,74.5-65.34,74.5-121.74,0-2,0-4.42.2-6.44L426.4,289a149.63,149.63,0,0,0-4.63-28.34c-37.1-1.78-68.27-25.53-76-56.73-22.14,24.39-55.93,44.52-94.33,56C244.62,261.78,235.82,264.11,226.56,265.85Z"/><path class="cls-1" d="M36.79,279.91a139.69,139.69,0,0,1,42.66-12.52c4-1,6-5,5-9a7.49,7.49,0,0,0-8.93-5,169.39,169.39,0,0,0-46.14,14,7.34,7.34,0,0,0-2.48,10A7.2,7.2,0,0,0,36.79,279.91Z"/><path class="cls-1" d="M43.23,317a663.23,663.23,0,0,1-2.48-88.66,63.94,63.94,0,0,1,.5-10c0-1.5,0-4,1.49-5,3-2.5,7.94,3.51,9.42,5C60.6,229.82,68,241.84,75.48,253.86c8.93,13.53,17.37,27.55,25.8,41.58,5,8,17.36.5,12.4-7.52-8.43-14-16.86-28.05-25.79-41.57-4.47-7-8.93-13.52-13.4-20a163.54,163.54,0,0,0-13.4-19,22.72,22.72,0,0,0-17.86-8.52c-7.93.5-13.89,6.52-15.38,14.53a174.35,174.35,0,0,0-1.48,23c-.5,8.52-.5,16.53-.5,25a539.36,539.36,0,0,0,3,56.6,7.12,7.12,0,0,0,6.94,7,9.54,9.54,0,0,0,7.44-8Z"/><path class="cls-1" d="M172.72,223.31A254,254,0,0,1,141,166.71c-2-5-4-10-5-15a10.26,10.26,0,0,1,0-5.51c.5-.5,1.49-1,2-1.5a6.89,6.89,0,0,1,7.45,1.5,19.16,19.16,0,0,1,5,10,29.5,29.5,0,0,1-10.92,26c-6.45,5.51,2,15.53,8.44,11.52,14.38-9,34.23-23,52.09-14,6,3,12.4,9,12.9,16.53.49,8-6.45,14-12.9,17.53-9.92,6-21.83,8-31.75,14.53-7.94,5-.5,17.53,7.44,12.52,10.42-6.51,22.32-8.52,32.74-15,9.93-6,17.86-15.53,18.36-27.55.5-11.52-6.45-21.54-14.88-28a44.44,44.44,0,0,0-32.75-7c-13.89,2.5-26.79,10-38.7,18l8.44,11.52a41.68,41.68,0,0,0,14.88-33.56c0-12-6.45-26-19.35-29.05s-25.79,6.51-23.81,20.54a98.53,98.53,0,0,0,6.45,20.53c2.48,6.52,5.46,13,8.43,19a253.91,253.91,0,0,0,24.31,40.07,7.2,7.2,0,0,0,9.93,2.51,6.8,6.8,0,0,0,3-9.52Z"/><path class="cls-1" d="M308.66,152.18c-.5.5-1.49,1-2,1.5a35.61,35.61,0,0,1-33.24,1.51A37,37,0,0,1,261,96.58a26.66,26.66,0,0,1,14.88-9.52,12.69,12.69,0,0,1,7.45.5,5.43,5.43,0,0,1,4,4,7.19,7.19,0,0,0,9.92,2.51c3.47-1.51,4.46-6,3-9.52C292.78,69,271,71,259.05,79.55a54.7,54.7,0,0,0-21.83,42.58c-.5,36.06,38.69,61.61,70.94,47.08a20.09,20.09,0,0,0,4.47-2.5A30.43,30.43,0,0,1,308.66,152.18Z"/></svg>