<svg id="Livello_1" data-name="Livello 1" xmlns="http://www.w3.org/2000/svg" viewBox="0 0 244.83 312.09"><defs><style>.cls-1{fill:#5156a0;}.cls-2{fill:none;stroke:#5156a0;stroke-linecap:round;stroke-linejoin:round;stroke-width:2px;}</style></defs><path class="cls-1" d="M175.18,111.33c3.06-1.06,5.87-2,8.66-3,1.17-.42,2.38-.78,3.51-1.3"/><path class="cls-2" d="M137.81,182.67c6.3-.27,13-.44,19.64-.89,10.41-.71,20.84-1.41,31.22-2.47s20.7-2.53,31-3.88c1.48-.2,2.16.37,2.38,1.67,1.16,6.62,2.86,13.2,3.29,19.87a209.09,209.09,0,0,1,0,26.61c-.42,6.6-2.11,13.12-3.25,19.67-.26,1.5-1,2-2.66,1.74-9.7-1.34-19.4-2.7-29.14-3.71-9.46-1-19-1.63-28.45-2.31-5.45-.39-10.91-.55-16.68-.83.24-.83.37-1.41.58-2,3.93-10.35,2.3-19.75-4.7-28.29a5.15,5.15,0,0,1-1.13-2.61C139.19,197.81,138.52,190.34,137.81,182.67Z"/><path class="cls-2" d="M19.19,176.56c12.36,1.32,24.27,2.79,36.21,3.79,11,.91,22,1.24,33,2,7.2.47,5.3-1.15,6.91,6a87.49,87.49,0,0,1,1.88,21.6,9.83,9.83,0,0,1-1,3.81,27.08,27.08,0,0,0-1,21.89c.2.53.41,1.06.6,1.59a2.35,2.35,0,0,1,0,.54C83,238.43,70.29,238.93,57.6,240s-25.38,2.58-38.37,3.93A142.21,142.21,0,0,0,23,210.19,140.08,140.08,0,0,0,19.19,176.56Z"/><path class="cls-2" d="M175.18,111.33v27.05c-35.46-10.52-82.13-10.52-116.85,0,0-.82-.12-1.59-.12-2.36,0-8.59,0-17.18,0-25.77"/><path class="cls-1" d="M120.54,245.36a19.55,19.55,0,1,1,19.6-19.42A19.61,19.61,0,0,1,120.54,245.36Z"/><path class="cls-1" d="M132.54,201.25c-10.09-4.06-19-3.33-27.43,2.13-.9-6.92-1.78-13.7-2.68-20.58h7.31c5.9,0,11.8,0,17.7-.11,1.24,0,1.95.22,2.18,1.63C130.49,189.76,131.48,195.19,132.54,201.25Z"/><path class="cls-1" d="M130,251.39a28,28,0,0,0,6.05-3.15,4,4,0,0,1,6,1.71l7.1,17c-2.27-.94-4.11-1.71-6-2.46-3-1.19-4.68-.52-6,2.35-.82,1.78-1.61,3.59-2.64,5.9l-6.72-16.06A4,4,0,0,1,130,251.39Z"/><path class="cls-1" d="M112,249.78a27.76,27.76,0,0,1-6-3.15,4,4,0,0,0-6,1.71l-7.1,17c2.27-.93,4.12-1.71,6-2.46,2.95-1.19,4.68-.52,6,2.36.83,1.78,1.61,3.58,2.65,5.89l6.72-16A4,4,0,0,0,112,249.78Z"/><path class="cls-1" d="M226.1,93.16l-3,1.09-20.44,7.31-7.8,2.79L187.38,107h0l-12.17,4.33c0-3.11-.14-6,0-8.89.23-3.72-1.49-6.23-4.43-8.15C166,91.17,160.55,89.77,155,88.74c-18.13-3.37-36.41-3.93-54.78-2.69-9.71.65-19.4,1.57-28.75,4.43a47.73,47.73,0,0,0-9.27,4.14,7.73,7.73,0,0,0-4.07,7.65c.16,2.9,0,5.82,0,9.06l-10.3-3.66q-19.64-7-39.27-14a9.27,9.27,0,0,0-1.21-.27V93c8.28-2.91,16.58-5.78,24.85-8.73q41.27-14.7,82.53-29.39a6.13,6.13,0,0,1,3.81-.07c24.71,8.75,49.39,17.6,74.1,26.37a5,5,0,0,1,.66.27l29.71,10.64Z"/></svg>