<svg id="Livello_1" data-name="Livello 1" xmlns="http://www.w3.org/2000/svg" viewBox="0 0 595.28 841.89"><defs><style>.cls-1{fill:#5157a2;}</style></defs><path class="cls-1" d="M446,248.71c8-3.62,15.16-6.58,22.36-9.87a82.7,82.7,0,0,0,9-4.28"/><path class="cls-1" d="M561.69,695.65a12.9,12.9,0,0,1-3-.35l-14.82-2.56c-19.55-3.41-39.77-6.93-59.61-9.55-19.45-2.62-39.25-4.44-58.4-6.19q-7.35-.68-14.72-1.37c-13.32-1.26-26.66-1.9-42.72-2.61a4.93,4.93,0,0,1-3.93-2.62,8.06,8.06,0,0,1-.88-5.55c.56-2.9,1.14-5.12,1.65-7.08,9.44-31.91,5.75-60.26-11.19-86.92a26.74,26.74,0,0,1-3.95-12c-1.81-24.8-3.61-49.49-5.41-74.51a7.88,7.88,0,0,1,1.24-4.93,4.81,4.81,0,0,1,3.64-2.25c5.63-.34,11.38-.61,17.2-.88,10.84-.49,22.05-1,33-2.07,26.42-2.28,53.48-4.62,80-8.22s53.35-8.25,79.26-12.76l.28-.05c6.49-1.11,11,3,11.94,11.11.82,5.75,1.76,11.68,2.69,17.61,2.5,15.76,5.08,32.05,5.84,48.51a835.47,835.47,0,0,1,0,88.4c-.72,15.18-3,30.3-5.28,44.93-1,6.74-2.11,13.71-3,20.56C570.93,688.87,568.73,695.65,561.69,695.65ZM375.58,660.16c13.25.61,24.78,1.24,36.37,2.35l14.7,1.36c19.23,1.76,39.12,3.58,58.72,6.22,20,2.64,40.3,6.18,59.94,9.6q7.5,1.32,15,2.6a10.52,10.52,0,0,0,1.12.2l.1-.56c.88-6.83,2-13.89,3-20.72,2.28-14.86,4.43-28.89,5.11-43.23a819.78,819.78,0,0,0,0-86.72c-.72-15.59-3.23-31.42-5.65-46.74-.95-6-1.91-12-2.76-18,0-.11,0-.2,0-.29a3.47,3.47,0,0,0-.39.05l-.27,0c-26,4.53-52.84,9.2-79.56,12.82s-53.92,6-80.18,8.23c-11.36,1.1-22.67,1.62-33.61,2.12-3.94.18-7.85.36-11.71.57,1.63,22.66,3.26,45.08,4.9,67.51a11.42,11.42,0,0,0,1.61,4.88C380.92,592.16,385.45,625,375.58,660.16Z"/><path class="cls-1" d="M45,692.11a4.74,4.74,0,0,1-3.88-2.26A8,8,0,0,1,40,684c6.57-34.58,9.64-70.34,9.37-109.32.27-39.09-2.8-74.85-9.37-109.43a8,8,0,0,1,1.13-5.89,4.68,4.68,0,0,1,4.41-2.22c10.78,1.45,21.41,3,32,4.48,21,3,40.81,5.85,61,8,15.32,1.61,30.94,2.65,46.05,3.66,12.68.84,25.8,1.72,38.72,2.92,3.34.3,5.87.35,7.91.39,9.29.18,11.35,2.48,13,14.46.35,2.6.78,5.83,1.51,10,3.94,22.36,5.58,46.15,5,72.71a42.51,42.51,0,0,1-3.11,15.27,103.43,103.43,0,0,0-2.36,66.85c.24.73.51,1.7.78,2.66s.48,1.69.72,2.46a7.93,7.93,0,0,1,.37,2.44v1.65c0,3.49-2.13,6.38-4.86,6.57-8.28.59-16.57,1.13-24.88,1.67-24,1.57-48.87,3.2-73.15,5.89-20.95,2.11-42.36,5.1-63.06,8-11.78,1.64-23.63,3.3-35.58,4.83Zm6.64-220.92c5.64,32.83,8.26,66.78,8,103.46a582.63,582.63,0,0,1-8,103.4c9.5-1.26,18.94-2.58,28.35-3.89,20.77-2.91,42.26-5.91,63.32-8,24.43-2.7,49.36-4.33,73.48-5.91q9.16-.6,18.33-1.22C228,633.23,229,608.5,238.3,583.31a26.84,26.84,0,0,0,2.08-9.7c.54-25.64-1-48.36-4.76-69.66-.79-4.54-1.26-8.09-1.61-10.68-.16-1.19-.33-2.48-.49-3.45-.72,0-1.64-.06-2.5-.08-2,0-4.84-.09-8.48-.42-12.83-1.19-25.89-2.06-38.52-2.91-15.19-1-30.89-2.06-46.37-3.68-20.33-2.19-40.22-5-61.28-8.05C68.2,473.51,60,472.33,51.66,471.19Zm183,18.77h0Z"/><path class="cls-1" d="M446,294.8a4.14,4.14,0,0,1-1.46-.27c-89.93-34.07-209.4-34.07-297.29,0a4.24,4.24,0,0,1-4.55-1,7.31,7.31,0,0,1-2.08-5.29c0-1.18-.06-2.36-.12-3.54-.07-1.45-.13-2.91-.13-4.36V195.38c0-3.63,2.3-6.58,5.14-6.58s5.14,2.95,5.14,6.58v84.14c86.81-31.54,201.52-31.55,290.21,0V199.33c0-3.63,2.3-6.58,5.14-6.58s5.14,2.95,5.14,6.58v88.88a7.39,7.39,0,0,1-2.06,5.28A4.45,4.45,0,0,1,446,294.8Z"/><path class="cls-1" d="M305.41,690.14c-27.5,0-50.38-29-50.38-64.19s22.62-64.19,50.13-64.52c27.76-.33,50.63,29,50.38,64.85C355.79,661.5,333.43,690.14,305.41,690.14Z"/><path class="cls-1" d="M336.26,544.64c-26-13.5-48.84-10.86-70.43,6.91-2.32-22.71-4.63-45.09-6.94-67.81h18.76c15.17,0,30.33,0,45.5-.33,3.08,0,4.88.66,5.65,5.27C331.12,507.11,333.69,524.89,336.26,544.64Z"/><path class="cls-1" d="M329.83,709.89a60.28,60.28,0,0,0,15.42-10.54c5.4-4.93,12.86-2.3,15.43,5.6,5.91,18.43,12.08,36.54,18.25,56-5.91-3-10.54-5.6-15.42-8.23-7.72-3.95-12.09-1.65-15.43,7.9C346,766.51,344,772.43,341.4,780c-5.91-18.1-11.57-35.22-17.22-53C322.12,720.42,324.69,712.52,329.83,709.89Z"/><path class="cls-1" d="M283.56,704.62a60.34,60.34,0,0,1-15.42-10.53c-5.4-4.94-12.85-2.31-15.42,5.59-5.92,18.44-12.08,36.54-18.25,56,5.91-3,10.54-5.59,15.42-8.23,7.71-3.95,12.08-1.64,15.42,7.9,2.06,5.93,4.11,11.85,6.69,19.43,5.91-18.11,11.56-35.23,17.22-53C291.53,715.15,289,707.25,283.56,704.62Z"/><path class="cls-1" d="M576.86,189.13l-7.71,3.62-52.44,24L496.66,226l-19.28,8.56h0L446,248.71c0-10.2-.26-19.75,0-29.3.51-12.18-3.86-20.41-11.31-27-12.34-10.2-26.22-14.81-40.62-18.1-46.52-11.2-93.56-12.84-140.86-8.89-24.93,2-49.87,5.27-74,14.48-8.23,3.29-16.19,8.23-23.91,13.5-7.19,5.27-11,13.82-10.53,25,.51,9.54,0,19.09,0,29.95-9.26-4.28-17.74-8.23-26.48-12.18-33.67-15.47-67.35-30.61-101-46.08l-3.09-1v-.66l64-28.64L290.25,63.05c3.08-1.31,6.94-1.64,9.76-.32l190.48,86.9c.51.33,1.28.66,1.8,1l76.34,34.89Z"/></svg>