<svg id="Livello_1" data-name="Livello 1" xmlns="http://www.w3.org/2000/svg" viewBox="0 0 244.83 312.09"><defs><style>.cls-1{fill:#5156a1;}</style></defs><path class="cls-1" d="M187.08,41a10.14,10.14,0,0,0-3.54-3.87,5,5,0,0,1-.72-.57c-.91-1-1.79-1.94-2.7-2.82a1.56,1.56,0,0,1-.16-.2,4.16,4.16,0,0,1-.85.47c.14.31.27.63.39,1a1,1,0,0,1,0,.81c-.39,1-.75,1.94-1.13,2.91a4.8,4.8,0,0,1-.44,1.14,7.4,7.4,0,0,0-1.07,6.85c.33,1.12.49,2.28.72,3.41a1.58,1.58,0,0,0,.09.31,6.61,6.61,0,0,0,2.7-5.23,11.31,11.31,0,0,0-1.34-5.4.83.83,0,0,1,0-.62c.25-.79.55-1.57.83-2.34a1.74,1.74,0,0,1,.18-.33,4,4,0,0,1,.14.38A28.91,28.91,0,0,1,181,49.17a1,1,0,0,1-.28.48c-.77.73-1.55,1.44-2.32,2.14a7.5,7.5,0,0,1-1.14,1,7.24,7.24,0,0,0-3.61,4.84,21.4,21.4,0,0,1-1,4,1,1,0,0,0,0,.34,5,5,0,0,0,.69-.14,12.14,12.14,0,0,0,1.72-.79,6.54,6.54,0,0,0,2.46-2.85,12.11,12.11,0,0,0,1-5,1,1,0,0,1,.22-.63c.57-.57,1.17-1.11,1.76-1.66a.32.32,0,0,0,.21-.08.43.43,0,0,1,0,.16,29.55,29.55,0,0,1-1.67,5.47,32.78,32.78,0,0,1-3.61,6.4.73.73,0,0,1-.39.22c-1.36.25-2.71.48-4.07.71a1.69,1.69,0,0,1-.55,0A7.12,7.12,0,0,0,164.39,66a16.37,16.37,0,0,1-2.84,2.61.85.85,0,0,0-.14.19l.11.08a6.62,6.62,0,0,0,5.74-.4,11.43,11.43,0,0,0,3.88-3.88,1,1,0,0,1,.54-.38c.79-.19,1.61-.31,2.41-.46h.41a3.25,3.25,0,0,1-.23.29c-.43.49-.87,1-1.32,1.46A28.51,28.51,0,0,1,166,70.76a.92.92,0,0,1-.59.08c-1.05-.2-2.11-.41-3.16-.63a7.36,7.36,0,0,1-1.54-.37,7.43,7.43,0,0,0-6.61.27c-1,.52-2.16.89-3.26,1.33l-.2.09v.11l.1.12A6.69,6.69,0,0,0,155,73.39a10,10,0,0,0,6.11-2.2,1.15,1.15,0,0,1,1.05-.26c.44.09.88.13,1.32.22l1.13.25a.53.53,0,0,1-.24.23,28.67,28.67,0,0,1-11.51,2.69,1,1,0,0,1-.56-.27c-.37-.3-.68-.66-1.06-1a7.32,7.32,0,0,0-5.46-1.3c-.77.09-1.56.16-2.33.2h-1.57l.12.24A6.72,6.72,0,0,0,146,75.43a10.42,10.42,0,0,0,5.62-.19,5.19,5.19,0,0,1,1-.15,31.9,31.9,0,0,0,5.76-.68l.42-.08a2,2,0,0,1-.16.24c-.55.44-1.07.9-1.62,1.31a.68.68,0,0,1-.48.07,7.29,7.29,0,0,0-6.64,2.1c-.75.74-1.56,1.41-2.36,2.1a7.45,7.45,0,0,1-.71.51l.51.23a6.62,6.62,0,0,0,4.24.15A9.36,9.36,0,0,0,156,78a13.31,13.31,0,0,1,.92-1.07c1.09-1,2.22-1.87,3.34-2.8a1.32,1.32,0,0,1,.5-.29,30.24,30.24,0,0,0,5.75-2.43l.3-.13a17.22,17.22,0,0,1-1.14,2.17.8.8,0,0,1-.52.34,7.33,7.33,0,0,0-5.46,4.39c-.5,1.07-1.13,2.09-1.7,3.12,0,.1-.12.19-.2.32h.38a6.73,6.73,0,0,0,2.48-.41,8,8,0,0,0,4.47-4.75c.27-.64.4-1.33.71-1.93.68-1.31,1.42-2.57,2.15-3.88a1.16,1.16,0,0,1,.36-.4,30.54,30.54,0,0,0,4.41-3.52l.25-.16.07.07c-.22.67-.46,1.34-.66,2a.87.87,0,0,1-.59.6,6.91,6.91,0,0,0-4.12,4.51c-.35,1.12-.6,2.26-1,3.37a10.44,10.44,0,0,1-.47,1.21h.35a6.73,6.73,0,0,0,4.84-3.66,11.28,11.28,0,0,0,1.12-4,4.48,4.48,0,0,1,.14-.88c.35-1.13.73-2.26,1.11-3.39a4.86,4.86,0,0,1,.43-1.21c.36-.55.88-1,1.26-1.55.76-1,1.47-2.09,2.19-3.14l.17-.21h.09v.22a18,18,0,0,1-.12,2.07,1.11,1.11,0,0,1-.36.56A16.44,16.44,0,0,0,176,64.53a7.48,7.48,0,0,0-1.58,5.11c0,1.12-.13,2.24-.2,3.37v.33l.19-.06A6.61,6.61,0,0,0,178.12,69a11.37,11.37,0,0,0,.26-5.09,1.85,1.85,0,0,1,0-.47c.09-1.38.22-2.77.28-4.15a3.71,3.71,0,0,1,.32-1.27c.52-1.22,1-2.45,1.49-3.69.27-.71.44-1.44.69-2.25.08.19.14.29.18.4l.69,2a.79.79,0,0,1-.1.77,7.1,7.1,0,0,0-.32,6.94,15.72,15.72,0,0,1,1.2,3.39c0,.1.08.18.11.28h.13l1-1.59a5.72,5.72,0,0,0,.89-2.83,9.82,9.82,0,0,0-1.39-5.21,8.5,8.5,0,0,1-.62-1.15c-.49-1.33-1-2.68-1.4-4a1.73,1.73,0,0,1-.06-.68c.15-1.64.32-3.26.47-4.89V44.18c.09.06.14.08.16.12.34.63.69,1.26,1,1.94a.58.58,0,0,1,0,.41,7.13,7.13,0,0,0,.73,6.86,17.18,17.18,0,0,1,1.93,3.42l.11.13.17-.21a6.56,6.56,0,0,0,1.12-4.23,9.38,9.38,0,0,0-2.06-4.84,14.78,14.78,0,0,1-1.07-1.43c-.68-1.15-1.31-2.33-1.94-3.5a1.91,1.91,0,0,1-.22-.66,31.11,31.11,0,0,0-1.48-6.86,1.67,1.67,0,0,0-.08-.32h.09c.42.43.81.89,1.25,1.31a1,1,0,0,1,.29.89,7,7,0,0,0,2.24,6c.72.7,1.47,1.37,2.18,2.07.32.32.58.69.87,1l.11-.07a1.3,1.3,0,0,0,.08-.17A6.68,6.68,0,0,0,187.08,41Z"/><path class="cls-1" d="M65.53,42.26a10.06,10.06,0,0,1,3.53-3.88,3.92,3.92,0,0,0,.72-.57c.91-1,1.79-1.88,2.7-2.8a1.56,1.56,0,0,0,.16-.2,4.66,4.66,0,0,0,.85.46c-.14.32-.27.63-.39,1a1.06,1.06,0,0,0,0,.82c.39,1,.76,1.93,1.13,2.9a4.87,4.87,0,0,0,.44,1.15A7.4,7.4,0,0,1,75.74,48c-.33,1.11-.49,2.27-.72,3.41a1.71,1.71,0,0,1-.09.3,6.61,6.61,0,0,1-2.7-5.23,11.24,11.24,0,0,1,1.34-5.39.89.89,0,0,0,.05-.62c-.26-.8-.56-1.57-.84-2.36,0-.08-.1-.17-.19-.32-.06.18-.1.28-.13.38a29,29,0,0,0-.85,12.35.9.9,0,0,0,.29.48l2.31,2.14a8.64,8.64,0,0,0,1.13,1A7.12,7.12,0,0,1,79,58.91a22.31,22.31,0,0,0,1,4,1,1,0,0,1,0,.34,3.91,3.91,0,0,1-.68-.14,9.91,9.91,0,0,1-1.72-.79,6.55,6.55,0,0,1-2.47-2.91,11.87,11.87,0,0,1-1-5,.93.93,0,0,0-.23-.62c-.56-.58-1.16-1.12-1.75-1.67A.6.6,0,0,0,71.9,52v.17a30.58,30.58,0,0,0,1.67,5.47A33,33,0,0,0,77.2,64a.68.68,0,0,0,.39.23l4.07.71a2.53,2.53,0,0,0,.55,0,7.16,7.16,0,0,1,6.06,2.33,16.37,16.37,0,0,0,2.84,2.61,1.33,1.33,0,0,1,.14.19c-.06,0-.08.08-.11.09a6.61,6.61,0,0,1-5.75-.41,11.37,11.37,0,0,1-3.87-3.87,1,1,0,0,0-.54-.39c-.79-.17-1.61-.31-2.41-.44h-.43a3.15,3.15,0,0,0,.22.29c.45.48.88,1,1.34,1.45A28.7,28.7,0,0,0,86.6,72a1.09,1.09,0,0,0,.59.08q1.61-.3,3.18-.63a8.12,8.12,0,0,0,1.53-.37,7.41,7.41,0,0,1,6.6.27c1,.52,2.17.88,3.27,1.33l.2.09v.11a.52.52,0,0,1-.1.11,6.79,6.79,0,0,1-4.17,1.64,9.89,9.89,0,0,1-6.12-2.21,1.22,1.22,0,0,0-1-.27c-.44.11-.89.15-1.32.23l-1.13.26a.51.51,0,0,0,.24.22,28.5,28.5,0,0,0,11.51,2.69.91.91,0,0,0,.56-.26c.37-.3.68-.67,1.06-1a7.23,7.23,0,0,1,5.46-1.3c.77.09,1.56.16,2.33.2.49,0,1,0,1.58,0l-.14.24a6.68,6.68,0,0,1-4.07,3.21,10.52,10.52,0,0,1-5.62-.19,3.94,3.94,0,0,0-1-.16,30.92,30.92,0,0,1-5.75-.68l-.42-.07a1.93,1.93,0,0,0,.16.24c.54.44,1.07.89,1.62,1.31a.68.68,0,0,0,.48.07,7.21,7.21,0,0,1,6.63,2.1c.76.74,1.57,1.41,2.37,2.1a5,5,0,0,0,.71.5c-.23.1-.37.18-.51.23a6.69,6.69,0,0,1-4.24.16,9.41,9.41,0,0,1-4.39-3.08,12.17,12.17,0,0,0-1-1.07c-1.08-1-2.2-1.87-3.33-2.79a1.48,1.48,0,0,0-.5-.3,30.86,30.86,0,0,1-5.75-2.42c-.1-.06-.2-.09-.3-.14A16.69,16.69,0,0,0,87,74.64a.92.92,0,0,0,.52.34A7.32,7.32,0,0,1,93,79.36c.5,1.07,1.13,2.09,1.7,3.13l.2.31a2.41,2.41,0,0,1-.38,0A6.73,6.73,0,0,1,92,82.39a8,8,0,0,1-4.47-4.74c-.27-.64-.4-1.34-.71-1.93-.68-1.3-1.43-2.56-2.15-3.88a1.22,1.22,0,0,0-.35-.4,31.37,31.37,0,0,1-4.41-3.37,1.46,1.46,0,0,0-.24-.17l-.08.06c.23.69.47,1.36.67,2.05a.89.89,0,0,0,.58.6A6.86,6.86,0,0,1,85,75.12c.35,1.1.6,2.24,1,3.37a10.23,10.23,0,0,0,.46,1.2H86A6.71,6.71,0,0,1,81.2,76a10.93,10.93,0,0,1-1.12-4,4.27,4.27,0,0,0-.14-.87c-.36-1.13-.73-2.27-1.11-3.4a4.72,4.72,0,0,0-.43-1.21c-.36-.55-.88-1-1.26-1.54-.76-1-1.47-2.1-2.19-3.15,0-.07-.11-.14-.17-.22h-.09v.21a18.31,18.31,0,0,0,.12,2.09,1.09,1.09,0,0,0,.36.56,15,15,0,0,1,1.48,1.4A7.53,7.53,0,0,1,78.23,71c0,1.12.13,2.25.2,3.37v.33l-.19-.07a6.49,6.49,0,0,1-3.76-4.25,11.14,11.14,0,0,1-.26-5.07,1.93,1.93,0,0,0,0-.48c-.1-1.38-.22-2.76-.28-4.15a3.83,3.83,0,0,0-.32-1.28c-.52-1.22-1-2.45-1.49-3.68-.27-.7-.45-1.44-.69-2.24a3.7,3.7,0,0,0-.18.4l-.69,2a.77.77,0,0,0,.1.76A7.1,7.1,0,0,1,71,63.57a15.61,15.61,0,0,0-1.2,3.4c0,.09-.07.18-.11.27h-.14c-.33-.53-.68-1-1-1.58a5.64,5.64,0,0,1-.9-2.84A9.66,9.66,0,0,1,69,57.61a7.83,7.83,0,0,0,.62-1.14c.49-1.34,1-2.69,1.4-4a1.56,1.56,0,0,0,.06-.68c-.14-1.63-.32-3.26-.47-4.85V45.58c-.1.06-.16.08-.17.1-.34.63-.69,1.26-1,1.94a.61.61,0,0,0,0,.42,7.06,7.06,0,0,1-.72,6.84,17.34,17.34,0,0,0-1.93,3.44l-.12.12s-.13-.14-.17-.21A6.57,6.57,0,0,1,65.38,54a9.35,9.35,0,0,1,2.1-4.84,14.65,14.65,0,0,0,1.07-1.42c.68-1.15,1.3-2.34,1.93-3.51a1.68,1.68,0,0,0,.23-.66,31,31,0,0,1,1.48-6.86,3,3,0,0,0,.08-.32l-.09-.06c-.42.45-.81.89-1.25,1.32a1,1,0,0,0-.29.89,7,7,0,0,1-2.24,6c-.72.7-1.47,1.37-2.19,2.07-.32.32-.58.7-.87,1,0,0-.08,0-.1-.08a.89.89,0,0,1-.08-.17A6.59,6.59,0,0,1,65.53,42.26Z"/><path class="cls-1" d="M243,312.17H.74c.48-3.33,3-20.64,7.11-40.27,4.66-22.27,11.38-47.6,19.45-58.84,13.21-18.39,44.32-29.31,54.7-32.57,1.39-.43,2.42-.73,3-.88,1.43,4.41,11.91,35.18,26.39,47.2-.09-.29-.16-.6-.24-.9s-.15-.59-.2-.89c-.52-2.27-.85-4.6-1.55-6.78-1.05-3.25-1.51-6.68-2.54-9.93a10,10,0,0,1,.27-7.2c1.25-3.15,3.1-4.72,6.52-4.73,5.89,0,11.81-.1,17.69.08a5.84,5.84,0,0,1,3.67,1.69,9.24,9.24,0,0,1,2.38,9.2c-1.67,6.35-3.19,12.73-4.76,19.1-.06.26-.11.52-.18.78s-.13.52-.2.78c14.94-11,26.43-43.76,28-48.35l1.87.6c9.12,3,42.45,15.12,54.36,34.21,7,11.2,13.7,36,18.64,57.85C239.43,291.72,242.41,308.82,243,312.17Z"/><path class="cls-1" d="M180.59,32.77c-1.16-6.17-3.59-13.6-12.24-16.4l.07-.08a12.48,12.48,0,0,1,.92-.86l2-1.77-1.94-.54c-.37-.1-.69-.21-1-.31a5.31,5.31,0,0,0-2.08-.43,77.86,77.86,0,0,0-8.36.69h-.48c0-.07-.05-.18-.06-.33a7.52,7.52,0,0,0-3.32-5.5,30.13,30.13,0,0,0-6-2.59l-.46-.14c-1-.31-1.35-.48-1.57-1a2.11,2.11,0,0,0-1.14-1.27,2.57,2.57,0,0,0-1.94.2l-.4.19c-1.48.73-2.08.91-2.9.07a2.52,2.52,0,0,0-1.94-.53h-.17l-2,0c-1,0-2.1.08-3.11.06a24.72,24.72,0,0,1-3.65-.42l-3-.64A45.74,45.74,0,0,0,119.64.09a15.69,15.69,0,0,0-12.52,4.27,3.23,3.23,0,0,1-1.25.37c-1,.17-1.94.31-2.85.44-1.52.22-3.07.44-4.6.75a4.39,4.39,0,0,0-3.83,3.23l-.27.13c-6,2.38-11,6.5-16.23,13.34-.15.2-.3.38-.46.56a8.06,8.06,0,0,0-.52.64c-.16.22-.55.65-.84,1a9.44,9.44,0,0,0-1.93,2.71,74.42,74.42,0,0,0-5,22.17c-.33,4.52-.29,9.14-.24,13.62v6.2a45.23,45.23,0,0,0,2.52,15.25.54.54,0,0,0,0,.18l.06.21c0,.1.07.2.1.3.19.62.37,1.25.54,1.93l.27,1.07.07.26,1,3.51h0c.15,34.44,23.41,62.41,52,62.41s52-28.16,52-62.77c0-1,0-2-.06-3l.1-1.94a1.78,1.78,0,0,1,.14-.55c.11-.47.25-.92.38-1.38l.12-.39h0v-.08c.27-.9.51-1.72.72-2.59a12.55,12.55,0,0,0,.26-1.61c.92-7.86,1.71-15.77,2.51-23.86A83.55,83.55,0,0,0,180.59,32.77ZM125.75,152.49c-27.51,0-49.88-27.22-49.88-60.67a71.86,71.86,0,0,1,2.18-17.76,117.09,117.09,0,0,0,12.8-3c19.3-5.69,36.24-16.29,46.07-28.69,1.32,16.08,16.83,28.85,35.82,29.05a69.85,69.85,0,0,1,2.58,15l.24,2.29c0,1,.07,2,.07,3C175.63,125.27,153.25,152.49,125.75,152.49Zm54-96.35c-.71,7.37-1.44,14.57-2.25,21.74l-.24,2.1a12.79,12.79,0,0,1-.24,1.39.14.14,0,0,0,0,.09v.07c-.19-1.47-.43-2.91-.71-4.38-.08-.48-.18-1-.3-1.46-.14-.66-.3-1.33-.46-2-.31-1.23-.62-2.44-1-3.65l-.24-.76h-1.11C154.38,69.28,139,56.21,139,40.14v-.88l.13-3.63-2.08,3C127.88,51.71,110.38,63.06,90.26,69a113,113,0,0,1-13.37,3.07l-.7.11L76,72.9A72.94,72.94,0,0,0,74,85v-.13a2.8,2.8,0,0,0-.13-.41v-.1l0-.21c-.2-.57-.39-1.14-.57-1.72a43.6,43.6,0,0,1-1.86-12.89V63.31c0-4.43-.09-9,.24-13.45a72.36,72.36,0,0,1,4.84-21.48A7.74,7.74,0,0,1,78,26.29c.31-.35.62-.7,1-1.07.14-.2.3-.38.45-.56s.37-.43.53-.65c5-6.52,9.69-10.42,15.32-12.65.32-.13,1.41-.63,1.56-1.56S97.53,8.39,99,8.1s3-.51,4.49-.73l2.91-.43a4.41,4.41,0,0,0,2.37-1,13.53,13.53,0,0,1,10.86-3.66,40.83,40.83,0,0,1,5.81,1c1,.24,2.07.46,3.12.66a27.74,27.74,0,0,0,4,.46c1.1,0,2.2,0,3.25-.06l1.94,0h.71c1.94,1.86,3.88.89,5.25.24L144,4.4l.17-.07a3.93,3.93,0,0,0,2.91,2.28l.41.14a27.85,27.85,0,0,1,5.62,2.39,5.49,5.49,0,0,1,2.28,4,2.58,2.58,0,0,0,1,1.82,2.85,2.85,0,0,0,2,.28,77.12,77.12,0,0,1,8.17-.67,1.76,1.76,0,0,1,.55.09l-.2.2a2.29,2.29,0,0,0-.73,2.18,2,2,0,0,0,1.49,1.38c6,1.94,9.29,6.35,10.87,14.78a88.64,88.64,0,0,1,1.63,16.33c0,2.25-.14,4.47-.35,6.63Z"/></svg>