<svg id="Livello_1" data-name="Livello 1" xmlns="http://www.w3.org/2000/svg" viewBox="0 0 595.28 841.89"><defs><style>.cls-1{fill:#5057a3;}</style></defs><path class="cls-1" d="M447.28,159.14a23.08,23.08,0,0,0-8-8.87,10,10,0,0,1-1.61-1.36c-2.06-2.27-4.13-4.32-6.2-6.36l-.46-.46c-.68.46-1.14.68-1.83,1.14a23.07,23.07,0,0,1,.92,2.27,2.47,2.47,0,0,1,0,1.82c-.92,2.27-1.84,4.32-2.53,6.59a8.05,8.05,0,0,1-.92,2.5,16.69,16.69,0,0,0-2.52,15.68c.69,2.5,1.14,5.23,1.6,7.73a.83.83,0,0,0,.23.68,14.59,14.59,0,0,0,6.2-11.82,28.52,28.52,0,0,0-3-12.27,1.45,1.45,0,0,1,0-1.37c.69-1.81,1.38-3.63,1.83-5.22.23-.23.23-.46.46-.68a1.69,1.69,0,0,1,.23.91A63.93,63.93,0,0,1,433.73,178a1.24,1.24,0,0,1-.69,1.13c-1.84,1.59-3.44,3.19-5.28,4.78a11.92,11.92,0,0,1-2.53,2.27A15.92,15.92,0,0,0,417,197.09a44.09,44.09,0,0,1-2.3,9.09v.68c.46,0,1.15-.23,1.61-.23a19.41,19.41,0,0,0,3.9-1.82,16,16,0,0,0,5.74-6.59,27.88,27.88,0,0,0,2.3-11.36,2.4,2.4,0,0,1,.46-1.36c1.38-1.37,2.75-2.5,4.13-3.87.23,0,.46,0,.46-.22v.45a61.16,61.16,0,0,1-3.9,12.5,82,82,0,0,1-8.27,14.54,1.19,1.19,0,0,1-.92.46c-3.21.68-6.2,1.14-9.41,1.59h-1.38a17,17,0,0,0-14,5.23,32,32,0,0,1-6.43,5.91c-.23.22-.23.22-.23.45l.23.23a15.49,15.49,0,0,0,13.08-.91,27.68,27.68,0,0,0,9-8.86,2.23,2.23,0,0,1,1.15-.91c1.83-.46,3.67-.69,5.51-1.14h.92c-.23.23-.23.45-.46.68-.92,1.14-2.07,2.27-3,3.41a61.29,61.29,0,0,1-15.84,11.82,2.92,2.92,0,0,1-1.38.23c-2.52-.46-4.82-.91-7.35-1.37a19.24,19.24,0,0,1-3.44-.91,17.74,17.74,0,0,0-15.16.68,74,74,0,0,1-7.57,3l-.46.23v.22l.23.23a14.91,14.91,0,0,0,9.64,3.64,22.47,22.47,0,0,0,14-5,3.31,3.31,0,0,1,2.52-.68c.92.22,2.07.22,3,.45l2.52.68c-.23.23-.23.46-.45.46A66.18,66.18,0,0,1,369,234.81a2,2,0,0,1-1.38-.68c-.92-.68-1.61-1.59-2.52-2.27a17.6,17.6,0,0,0-12.63-3,44.93,44.93,0,0,1-5.28.46h-3.68a.76.76,0,0,0,.23.45,15.12,15.12,0,0,0,9.42,7.27,22.45,22.45,0,0,0,12.85-.45c.69-.23,1.38-.23,2.3-.45a89,89,0,0,0,13.32-1.6l.92-.22a.49.49,0,0,1-.46.45c-1.15.91-2.53,2.05-3.68,3a1.76,1.76,0,0,1-1.14.22,16.44,16.44,0,0,0-15.16,4.78l-5.51,4.77a9.74,9.74,0,0,1-1.61,1.13l1.15.46a15.57,15.57,0,0,0,9.65.45,22.08,22.08,0,0,0,10.1-7c.69-.91,1.38-1.59,2.06-2.5,2.53-2.27,5.06-4.32,7.58-6.36a5,5,0,0,1,1.15-.69A74.77,74.77,0,0,0,400,227.54a.84.84,0,0,1,.69-.23,51,51,0,0,1-2.53,5A1.26,1.26,0,0,1,397,233a17.11,17.11,0,0,0-12.63,10,67.39,67.39,0,0,1-3.9,7c0,.23-.23.45-.46.68h.92a16.89,16.89,0,0,0,5.74-.91A18.94,18.94,0,0,0,397,239.13c.69-1.36.92-2.95,1.61-4.32l4.82-8.86a1.78,1.78,0,0,1,.92-.91,57.48,57.48,0,0,0,10.1-7.95c.23-.23.46-.23.46-.46l.23.23c-.46,1.59-1.15,2.95-1.61,4.54a2,2,0,0,1-1.37,1.37A15.56,15.56,0,0,0,402.73,233c-.69,2.5-1.38,5.23-2.29,7.73a13.83,13.83,0,0,1-1.15,2.73H400A14.92,14.92,0,0,0,411,235a25.63,25.63,0,0,0,2.52-9.09c0-.68.23-1.36.23-2,.92-2.5,1.61-5.22,2.53-7.72a12.73,12.73,0,0,1,.92-2.73c.92-1.36,2.06-2.27,3-3.41,1.84-2.27,3.45-4.77,5.05-7l.46-.46h.23V203a33.13,33.13,0,0,1-.23,4.77,4.9,4.9,0,0,1-.91,1.36,45.37,45.37,0,0,0-3.45,3.18,18,18,0,0,0-3.67,11.59c0,2.5-.23,5-.46,7.73v.68l.46-.23a15.47,15.47,0,0,0,8.72-9.77,24.8,24.8,0,0,0,.69-11.59v-1.13l.69-9.55a6.91,6.91,0,0,1,.69-2.95c1.15-2.73,2.3-5.46,3.44-8.41.69-1.59.92-3.18,1.61-5,.23.45.23.68.46.91l1.61,4.54a1.76,1.76,0,0,1-.23,1.82,15.9,15.9,0,0,0-.69,15.68,44,44,0,0,1,2.75,7.73c0,.23.23.45.23.68h.23l2.3-3.64a12.3,12.3,0,0,0,2.07-6.36A21.84,21.84,0,0,0,439,193.22c-.46-.91-.92-1.59-1.38-2.5-1.14-2.95-2.29-6.13-3.21-9.09a3.32,3.32,0,0,1-.23-1.59c.46-3.63.69-7.5,1.15-11.13v-3c.23.23.23.23.46.23.69,1.36,1.6,2.95,2.29,4.32v.91a16,16,0,0,0,1.61,15.68,37.08,37.08,0,0,1,4.36,7.72l.23.23.46-.45a15.36,15.36,0,0,0,2.53-9.55,19.06,19.06,0,0,0-4.82-10.91c-.92-1.13-1.61-2-2.53-3.18-1.61-2.72-3-5.22-4.36-7.95a3.28,3.28,0,0,1-.46-1.59,63.89,63.89,0,0,0-3.45-15.68.82.82,0,0,0-.23-.68h.23c.92.9,1.84,2,2.76,2.95a2.27,2.27,0,0,1,.69,2.05,16.06,16.06,0,0,0,5.05,13.63c1.61,1.59,3.44,3.18,5,4.77.69.68,1.38,1.59,2.07,2.28l.23-.23c0-.23.23-.23.23-.46C449.57,166.86,449.11,162.77,447.28,159.14Z"/><path class="cls-1" d="M380.92,255.27h-12l4.34-4.28a27.52,27.52,0,0,1-5.92,2.88L367,254a20.18,20.18,0,0,1-12.45-.54l-9.41-3.72,7.86-5.18c.13-.09.25-.15.37-.24l2.39-2.08a26.71,26.71,0,0,1-3.82-.71,19.76,19.76,0,0,1-12.07-9.13,5.1,5.1,0,0,1-1-3v-4.55h8.27a41,41,0,0,0,4.71-.42,21.66,21.66,0,0,1,9.21.61l1.73-.82,1.33-.48a54.5,54.5,0,0,0,5.76-2.27,22,22,0,0,1,15.29-2,6.84,6.84,0,0,1,.5-.55l.62-.52a27,27,0,0,0,5.48-5l.24-.28a21.77,21.77,0,0,1,17.54-6.65h.5v-1.08l.31-.78a38.92,38.92,0,0,0,2-8.16,20.71,20.71,0,0,1,9.51-13.58,5.37,5.37,0,0,1-.82-2.48l-.13-.71c-.38-2.1-.78-4.28-1.3-6.22a21.19,21.19,0,0,1,3.1-19.52c0-.15.2-.72.28-1.07a58,58,0,0,1,2.12-5.71l.32-.77c-.06-.11-.12-.22-.17-.33-.16-.34-.31-.68-.44-1l-4.51-4.49H425l1.6-1.06c.41-.27.76-.47,1.1-.67l.73-.46,3.13-2.07,3.14,3.1c2,2,4.13,4.09,6.27,6.44a5.56,5.56,0,0,0,.82.71,27.46,27.46,0,0,1,9.6,10.61h0c2.55,5.07,2.8,10.3.71,14.5v.77L449,175.45a24.37,24.37,0,0,1,2.83,9.09,19.91,19.91,0,0,1-3.27,12.57l-.57.69-1.7,1.68a28.74,28.74,0,0,1,.52,5.56,16.8,16.8,0,0,1-2.77,8.77l-3.64,5.78h-7.14l-.18-3.6a4.52,4.52,0,0,1-.2-.75c-.29-1.11-.62-2.19-1-3.28a29.59,29.59,0,0,1-1.09,11.64,20,20,0,0,1-11.27,12.64l-5.39,2.67a19.5,19.5,0,0,1-13.29,9L400,248h-3.1a23.66,23.66,0,0,1-8.41,6A21.3,21.3,0,0,1,380.92,255.27Zm52.14-39.84v0Z"/><path class="cls-1" d="M168.3,162.09a23,23,0,0,1,8-8.86,9.88,9.88,0,0,0,1.6-1.37c2.07-2.27,4.14-4.31,6.2-6.36l.46-.45c.69.45,1.15.68,1.84,1.13a24.12,24.12,0,0,0-.92,2.27,2.46,2.46,0,0,0,0,1.82c.92,2.27,1.84,4.32,2.53,6.59a8.05,8.05,0,0,0,.92,2.5A16.7,16.7,0,0,1,191.49,175c-.69,2.5-1.15,5.23-1.61,7.73a.83.83,0,0,1-.23.68,14.62,14.62,0,0,1-6.2-11.82,28.46,28.46,0,0,1,3-12.27,1.43,1.43,0,0,0,0-1.36,50.81,50.81,0,0,1-1.84-5.46c0-.22-.23-.45-.46-.68a1.71,1.71,0,0,0-.23.91,64.09,64.09,0,0,0-2.06,27.95,1.25,1.25,0,0,0,.69,1.14l5.28,4.77a12.19,12.19,0,0,0,2.52,2.28,15.91,15.91,0,0,1,8.27,10.9,43.77,43.77,0,0,0,2.3,9.09v.69c-.46,0-1.15-.23-1.61-.23a21,21,0,0,1-3.91-1.82,14.62,14.62,0,0,1-5.74-6.59,28.07,28.07,0,0,1-2.29-11.36,3.23,3.23,0,0,0-.46-1.37c-1.38-1.36-2.76-2.5-4.13-3.86-.23,0-.23-.23-.46-.23v.46a60.54,60.54,0,0,0,3.9,12.5,82.32,82.32,0,0,0,8.27,14.54,1.19,1.19,0,0,0,.91.46l9.42,1.59h1.38a17,17,0,0,1,14,5.22,31.44,31.44,0,0,0,6.43,5.91c.23.23.23.23.23.46a.22.22,0,0,0-.23.22,15.47,15.47,0,0,1-13.09-.9,27.78,27.78,0,0,1-8.95-8.87,2.33,2.33,0,0,0-1.15-.91,47.93,47.93,0,0,0-5.51-.91h-.69c.23.23.23.46.46.69.92,1.13,2.07,2.27,3,3.41a57.4,57.4,0,0,0,15.84,11.81,2.92,2.92,0,0,0,1.38.23c2.52-.45,4.82-.91,7.34-1.36a20,20,0,0,0,3.45-.91,16.23,16.23,0,0,1,15.15.68,74.11,74.11,0,0,0,7.58,3l.46.23v.23l-.23.22a14.88,14.88,0,0,1-9.64,3.64,22.43,22.43,0,0,1-14-5,2.61,2.61,0,0,0-2.53-.68c-.91.23-2.06.23-3,.45l-2.53.69c.23.22.23.45.46.45a66.16,66.16,0,0,0,26.41,6.14,2,2,0,0,0,1.37-.69c.92-.68,1.61-1.59,2.53-2.27a16.55,16.55,0,0,1,12.63-2.95,46.86,46.86,0,0,0,5.28.45h3.67a.71.71,0,0,0-.23.46,15.17,15.17,0,0,1-9.41,7.27,24.57,24.57,0,0,1-12.86-.46c-.69-.22-1.38-.22-2.29-.45a66.46,66.46,0,0,1-13.32-1.59l-.92-.23c.23.23.23.46.46.46,1.15.91,2.53,2,3.67,2.95a1.72,1.72,0,0,0,1.15.23,16.42,16.42,0,0,1,15.16,4.77l5.51,4.77c.46.46,1.14.68,1.6,1.14a3.76,3.76,0,0,1-1.14.45,15.58,15.58,0,0,1-9.65.46,21,21,0,0,1-10.1-7,22.73,22.73,0,0,0-2.3-2.5c-2.52-2.27-5-4.31-7.57-6.36a5,5,0,0,0-1.15-.68,74.51,74.51,0,0,1-13.32-5.46.87.87,0,0,0-.69-.22,34.42,34.42,0,0,0,2.53,5,1.27,1.27,0,0,0,1.15.68,17.06,17.06,0,0,1,12.62,10,69.17,69.17,0,0,0,3.91,7l.46.68h-.92a16.84,16.84,0,0,1-5.74-.9,19,19,0,0,1-10.33-10.69c-.69-1.36-.92-3-1.61-4.31q-2.41-4.44-4.82-8.87a3.25,3.25,0,0,0-.69-.91,66,66,0,0,1-10.11-7.72c-.23-.23-.45-.23-.45-.46l-.23.23c.45,1.59,1.14,3.18,1.6,4.55a2.07,2.07,0,0,0,1.38,1.36,15.54,15.54,0,0,1,9.41,10.23c.69,2.5,1.38,5,2.3,7.72a13.83,13.83,0,0,0,1.15,2.73h-.69a14.9,14.9,0,0,1-11-8.41,25.59,25.59,0,0,1-2.53-9.09c0-.68-.23-1.36-.23-2-.92-2.5-1.6-5.23-2.52-7.73a12.73,12.73,0,0,0-.92-2.73c-.92-1.36-2.07-2.27-3-3.41-1.83-2.27-3.44-4.77-5.05-7,0-.23-.23-.23-.46-.46h-.23v.46a33.13,33.13,0,0,0,.23,4.77,4.74,4.74,0,0,0,.92,1.36,43.58,43.58,0,0,1,3.45,3.19,17.92,17.92,0,0,1,3.67,11.59c0,2.5.23,5,.46,7.72v.68l-.46-.22a15.53,15.53,0,0,1-8.73-9.78,24.75,24.75,0,0,1-.68-11.59v-1.13c-.23-3.18-.46-6.37-.69-9.32a6.91,6.91,0,0,0-.69-2.95c-1.15-2.73-2.3-5.46-3.45-8.41-.68-1.59-.91-3.18-1.6-5-.23.23-.23.68-.46.91l-1.61,4.54a1.77,1.77,0,0,0,.23,1.82,16,16,0,0,1,.69,15.68,44.08,44.08,0,0,0-2.76,7.73c0,.23-.23.45-.23.68h-.23c-.68-1.14-1.6-2.27-2.29-3.64a10.52,10.52,0,0,1-2.07-6.36,21.84,21.84,0,0,1,3.22-11.82c.46-.91.91-1.59,1.37-2.5,1.15-2.95,2.3-6.13,3.22-9.09a3.8,3.8,0,0,0,.23-1.59c-.23-3.63-.69-7.5-1.15-10.91v-2.95a.71.71,0,0,1-.46.23c-.69,1.36-1.61,3-2.3,4.31V175a15.55,15.55,0,0,1-1.6,15.46,37.13,37.13,0,0,0-4.37,7.72l-.22.23-.46-.45a15.36,15.36,0,0,1-2.53-9.55,20.69,20.69,0,0,1,4.82-10.91c.92-1.13,1.61-2,2.53-3.18,1.6-2.73,3-5.23,4.36-8a3.28,3.28,0,0,0,.46-1.59,64.33,64.33,0,0,1,3.44-15.68c0-.23.23-.46.23-.69l-.23-.22c-.91.91-1.83,2-2.75,3a2.28,2.28,0,0,0-.69,2,16,16,0,0,1-5,13.63c-1.61,1.59-3.45,3.18-5.05,4.77-.69.69-1.38,1.6-2.07,2.28a.23.23,0,0,1-.23-.23c0-.23-.23-.23-.23-.45C166,169.82,166.23,165.73,168.3,162.09Z"/><path class="cls-1" d="M244.16,258.22h-9.5a21,21,0,0,1-7.35-1.2,24,24,0,0,1-8.39-5.85H215.4l-.43-.08a19.5,19.5,0,0,1-13.29-9l-5.58-2.76A19.77,19.77,0,0,1,185,226.8a29,29,0,0,1-1.13-11.35c-.38,1.05-.7,2.11-1,3.2a4.43,4.43,0,0,1-.14.6V223h-7.42l-1.34-2.2c-.22-.36-.46-.71-.71-1.08a24.55,24.55,0,0,1-1.57-2.51,15.12,15.12,0,0,1-2.74-8.75,29.56,29.56,0,0,1,.51-5.56l-2.26-2.37A19.8,19.8,0,0,1,164,188.15a25.08,25.08,0,0,1,3.29-9.87,4.86,4.86,0,0,1-3.12-2.66,4.77,4.77,0,0,1-.25-.51,15.41,15.41,0,0,1,.37-15.15,27.52,27.52,0,0,1,9.55-10.51,6.71,6.71,0,0,0,.9-.79c2-2.19,4.11-4.3,6.17-6.34L184,139.2l3.13,2.06c.27.18.5.32.73.45l1.11.69,2.91,1.93-1.1,3.28c-.15.44-.35.88-.56,1.34l-.17.34.32.77c.72,1.74,1.46,3.53,2.06,5.5.14.54.27,1.07.37,1.31a21.22,21.22,0,0,1,3.07,19.48c-.53,2-.92,4.12-1.3,6.22l-.13.72a5.31,5.31,0,0,1-.72,2.31,20.59,20.59,0,0,1,9.37,13.32,40.2,40.2,0,0,0,2.08,8.35l.31.79v1.07h.5a21.79,21.79,0,0,1,17.54,6.66l.24.28a27.23,27.23,0,0,0,5.47,5l.61.5a5.89,5.89,0,0,1,.63.72A20.71,20.71,0,0,1,246,224.45a59.18,59.18,0,0,0,5.61,2.21l2.95,1.24a22.35,22.35,0,0,1,9.44-.54,41.53,41.53,0,0,0,4.6.41H283.4L276.07,235a19.74,19.74,0,0,1-12.17,9.4l-.28.07a34.94,34.94,0,0,1-3.7.57l2.35,2a8.61,8.61,0,0,1,1.81,1.33l4.51,4.45-5.7,2.82a8.86,8.86,0,0,1-2,.8,20.16,20.16,0,0,1-12.08.42l-.27-.09a27.6,27.6,0,0,1-8.39-4.6ZM174.8,160.56a17.66,17.66,0,0,0-1.81,2.5A12.14,12.14,0,0,0,174.8,160.56Z"/><path class="cls-1" d="M575.63,775.46H19.51c1.15-7.5,6.89-46.82,16.31-91.59C46.61,633.19,62,575.7,80.59,550.25c30.31-41.82,101.72-66.59,125.6-74.09,3.21-.91,5.51-1.59,6.88-2.05,3.22,10,27.33,80,60.62,107.27a6.53,6.53,0,0,1-.46-2c-.23-.68-.23-1.36-.46-2-1.14-5.23-1.83-10.45-3.44-15.45-2.3-7.5-3.45-15.23-5.74-22.5a22.36,22.36,0,0,1,.69-16.37c2.75-7,7.12-10.68,14.92-10.68,13.55,0,27.1-.22,40.64.23a13.4,13.4,0,0,1,8.5,3.86,21.33,21.33,0,0,1,5.51,20.91c-3.9,14.55-7.35,28.86-11,43.41-.23.68-.23,1.13-.46,1.82s-.23,1.13-.46,1.81c34.21-25,60.62-99.53,64.29-110,.92.23,2.3.68,4.36,1.37,20.9,6.81,97.36,34.31,124.91,77.72,16.07,25.45,31.46,81.81,42.71,131.35C567.59,728.87,574.25,767.73,575.63,775.46Z"/><path class="cls-1" d="M581.1,780H14.17l1.11-7.25c4.82-31.88,10.21-62.1,16-89.8C45.88,614.56,61.21,569,76.87,547.58,107,506,176.37,480.76,204.8,471.83c3.27-.93,5.52-1.6,6.82-2l4.42-1.46,1.41,4.4a414.5,414.5,0,0,0,18.8,46.59c9.69,20.26,19.84,36.61,29.86,48.16-.34-1.46-.71-2.88-1.16-4.28-1.19-3.88-2.07-7.74-2.92-11.47s-1.71-7.51-2.83-11a26.69,26.69,0,0,1,.87-19.53c3.5-9,9.78-13.41,19.13-13.41l10.14,0c10,0,20.41-.09,30.66.26a18.14,18.14,0,0,1,11.59,5.19,26,26,0,0,1,6.69,25.32c-2.72,10.13-5.27,20.38-7.74,30.3l-.51,2.06c25.81-27.86,45.78-80.77,51.83-98l1.38-3.93,4.07,1c1.08.27,2.48.73,4.61,1.43,22.81,7.44,99.16,35.1,127.44,79.65,13.62,21.57,28.19,66.24,43.3,132.78,8.55,40.05,14.88,76.05,17,87.88ZM24.85,770.91H570.17c-2.42-13.69-8.48-47.69-16.48-85.19C539,621.17,524.46,576.24,511.58,555.84c-11.31-17.82-32.58-35-63.2-51A408.93,408.93,0,0,0,389.13,480l-.08,0c-8.74,24.07-33.34,85.28-64.41,108L313,596.53l4.6-13.64a3.15,3.15,0,0,0,.09-.36,11.47,11.47,0,0,1,.37-1.45c.05-.14.06-.25.09-.36a10.14,10.14,0,0,1,.31-1.27q1.62-6.44,3.21-12.83c2.48-10,5-20.26,7.79-30.5a16.9,16.9,0,0,0-4.32-16.52,8.63,8.63,0,0,0-5.57-2.54c-9.9-.33-20.19-.29-30.14-.25-3.39,0-6.78,0-10.18,0-5.54,0-8.42,2.11-10.64,7.77A18,18,0,0,0,268,537.9c1.25,4,2.16,8,3,11.84.82,3.57,1.66,7.26,2.73,10.78a90.89,90.89,0,0,1,2.55,10.87c.3,1.58.61,3.16,1,4.75a12,12,0,0,1,.31,1.42c0,.13,0,.25.07.37l.24.7,0,.7c0,.11.14.35.23.61l5,15-12.32-10.08c-31.68-26-54.75-88.1-60.63-105.12l-2.68.77c-27.43,8.62-94.59,33-123.13,72.36-14.7,20.13-29.92,65.74-44,131.92C34.71,711.42,29.51,740.37,24.85,770.91Z"/><path class="cls-1" d="M432.35,140.5c-2.75-14.09-8.26-30.91-28-37.27l.23-.23,2.07-2,4.59-4.09-4.36-1.14c-.92-.23-1.61-.45-2.3-.68a12.12,12.12,0,0,0-4.82-.91,184.39,184.39,0,0,0-19.29,1.59h-1.15a.83.83,0,0,0-.23-.68,16.62,16.62,0,0,0-7.57-12.5,74.12,74.12,0,0,0-13.78-5.91l-1.15-.23c-2.3-.68-3-1.13-3.67-2.27a5.39,5.39,0,0,0-2.53-3,5.86,5.86,0,0,0-4.36.45l-.92.46c-3.44,1.59-4.82,2-6.66.22a5.77,5.77,0,0,0-4.36-1.13H329c-2.3,0-4.82.22-7.12.22a57.58,57.58,0,0,1-8.5-.9l-6.88-1.37a102.74,102.74,0,0,0-14-2.5,36,36,0,0,0-28.7,9.77,12.39,12.39,0,0,1-2.76.91c-2.29.46-4.36.68-6.43.91a86.72,86.72,0,0,0-10.56,1.82,10.33,10.33,0,0,0-8.72,7.27.84.84,0,0,1-.69.23c-13.78,5.45-25.26,14.77-37.2,30.22-.46.46-.69.91-1.15,1.37a6,6,0,0,0-1.15,1.36c-.45.46-1.14,1.37-1.83,2.27a18.74,18.74,0,0,0-4.36,6.14,166.3,166.3,0,0,0-11.49,50.45c-.68,10.23-.68,20.68-.45,30.91v14.09a103.67,103.67,0,0,0,5.74,34.54v.46l.23.45c0,.23.23.45.23.68a24.78,24.78,0,0,1,1.14,4.32l.69,2.5.23.68,2.3,8h0c.46,78.17,53.73,141.8,119.4,141.8S426.38,353.67,426.38,275a67.47,67.47,0,0,0-.23-6.82l.23-4.32c0-.45.23-.91.23-1.36.23-1.14.69-2.05.92-3.18l.23-.91h0v-.23a56.4,56.4,0,0,0,1.61-5.91c.23-1.14.46-2.5.69-3.64,2.06-17.95,3.9-35.9,5.74-54.31A201,201,0,0,0,432.35,140.5Zm-125.82,272C243.38,412.53,192,350.71,192,274.58A160.31,160.31,0,0,1,197,234.13c9.88-1.82,19.75-4.09,29.39-6.82,44.32-12.95,83.12-37,105.85-65.22,3,36.59,38.58,65.45,82.2,65.9a158.28,158.28,0,0,1,6,34.09l.46,5.23c0,2.27.23,4.55.23,6.82C421.1,350.71,369.67,412.53,306.53,412.53Zm124-219.08c-1.61,16.82-3.22,33.18-5.29,49.32l-.45,4.77a17.52,17.52,0,0,0-.46,3.18v.45c-.46-3.4-.92-6.59-1.61-10l-.69-3.41a33,33,0,0,0-1.15-4.55c-.69-2.73-1.38-5.45-2.29-8.41l-.46-1.82h-2.53c-43.4,0-78.53-29.77-78.53-66.13v-2l.23-8.18-4.82,6.81c-21.12,29.77-61.3,55.68-107.46,69.09a288.17,288.17,0,0,1-30.76,7.05l-1.61.22-.46,1.59a159.67,159.67,0,0,0-4.59,27.5v-.23c0-.22-.23-.68-.23-.9v-.23l-.23-.46c-.46-1.36-.92-2.5-1.38-3.86a97.7,97.7,0,0,1-4.36-29.32V209.81c0-10-.23-20.45.46-30.45a162.5,162.5,0,0,1,11-48.86,18.3,18.3,0,0,1,3.44-4.77c.69-.68,1.38-1.59,2.3-2.5a5.82,5.82,0,0,1,1.15-1.36,6.06,6.06,0,0,0,1.15-1.37c11.25-14.77,22.27-23.63,35.13-28.63.68-.23,3.21-1.37,3.67-3.64.23-2,1.61-3.18,5-3.86,3.22-.68,6.89-1.14,10.33-1.59l6.66-.91a9.9,9.9,0,0,0,5.51-2.27,31.61,31.61,0,0,1,25-8.41,85,85,0,0,1,13.32,2.27c2.29.45,4.82,1.14,7.12,1.59a60.14,60.14,0,0,0,9.18,1.14c2.53,0,5,0,7.58-.23h6c4.36,4.32,9,2,11.94.45l.92-.45.45-.23A9.23,9.23,0,0,0,355.43,81l.92.23a64.11,64.11,0,0,1,12.86,5.45,12.93,12.93,0,0,1,5.28,9.09,5.75,5.75,0,0,0,2.3,4.09,7.85,7.85,0,0,0,4.59.68,170.92,170.92,0,0,1,18.83-1.59,2.86,2.86,0,0,1,1.37.23l-.45.45a5.07,5.07,0,0,0-1.61,5,4.87,4.87,0,0,0,3.44,3.19c13.78,4.31,21.36,14.54,25,33.63a202.2,202.2,0,0,1,3.67,37c-.23,5.23-.46,10.23-1.14,15Z"/><path class="cls-1" d="M307,422.3c-67.71,0-123.22-65.3-124-145.7l-3.17-11.15a19.72,19.72,0,0,0-1-3.52l0-.09c-.06-.13-.11-.27-.17-.42l-.5-1v-.76a108.79,108.79,0,0,1-5.74-35.3V210.27c-.28-12.36-.13-22.31.47-31.21a170.73,170.73,0,0,1,11.79-51.82,22.79,22.79,0,0,1,5.15-7.44c.6-.79,1.13-1.48,1.64-2a12.2,12.2,0,0,1,1.59-1.83l.14-.19c.23-.3.47-.61.75-.91,12.09-15.6,23.82-25.22,37.87-31a15,15,0,0,1,11.37-8.2,87.77,87.77,0,0,1,10.24-1.78l.59-.07c2.12-.24,4-.45,6.13-.86.34-.09.73-.19,1.09-.31A40.45,40.45,0,0,1,293,62.12a106.13,106.13,0,0,1,14.62,2.61l7.11,1.38a48.05,48.05,0,0,0,7.16.76c1.08,0,2.21-.06,3.34-.11s2.56-.12,3.78-.12h4.77a10.39,10.39,0,0,1,7.51,2.13h0c.61-.24,1.45-.62,1.84-.8l.8-.4a10.54,10.54,0,0,1,7.88-.71l.9.42a10,10,0,0,1,4.13,4.43c.17.07.44.16.83.28l1.48.33a78.12,78.12,0,0,1,14.63,6.29A21.17,21.17,0,0,1,383,90.82c5.07-.61,10.54-1,16.63-1.22h0a17,17,0,0,1,6.58,1.19c.53.18,1.08.36,1.79.53l12.64,3.29-8,7.12c16.38,8.37,21.58,24.36,24.23,37.88a205.6,205.6,0,0,1,3.52,55c-1.75,17.59-3.65,36.23-5.76,54.55l-.06.38c-.11.54-.22,1.14-.33,1.74s-.24,1.3-.36,1.9c-.4,1.77-.84,3.62-1.52,5.73V259l-.37,1.45a14.87,14.87,0,0,1-.55,1.92c-.09.27-.19.54-.26.82a7,7,0,0,1-.21,1.09l-.2,3.83c.21,2.37.21,4.68.21,6.92C431,356.24,375.35,422.3,307,422.3ZM200.75,238.05a156.8,156.8,0,0,0-4.21,36.53c0,73.56,49.34,133.4,110,133.4s110-60.05,110-133.85c0-1.06-.06-2.12-.11-3.19s-.11-2.28-.12-3.43l-.44-5a152.33,152.33,0,0,0-4.93-30c-40-1.78-73.57-26.94-81.62-60-24,25.84-60.39,47.15-101.6,59.19C219,234.14,209.94,236.28,200.75,238.05Zm-13.07,21.3.27.82c0-.36.06-.72.1-1.09h-.44C187.63,259.16,187.66,259.25,187.68,259.35Zm236.33-8c.1.8.19,1.59.29,2.39.22-.86.41-1.67.58-2.45v0Zm-226.94-119a158.16,158.16,0,0,0-10.64,47.31c-.54,7.84-.5,16.11-.47,24.1,0,2,0,4,0,6V223.9A99,99,0,0,0,186.6,235c.35-1.55.73-3.11,1.12-4.69l1.32-4.57,4.56-.64a279.34,279.34,0,0,0,30.11-6.91c45.14-13.11,84.39-38.29,105-67.34l13.6-19.22-.65,23.32v1.92c0,34,33.16,61.59,73.93,61.59h6.11l1.21,4.78c1.08-10,2.06-20,3-30.21l0-.21c.67-4.65.89-9.69,1.11-14.55a198.43,198.43,0,0,0-3.61-36c-3.33-17.35-9.88-26.37-21.89-30.13a9.28,9.28,0,0,1-6.48-6.27,10.2,10.2,0,0,1-.29-2.12c-4.64.28-8.78.7-12.76,1.28a12.46,12.46,0,0,1-7.32-1.11l-.49-.29a10.17,10.17,0,0,1-4.3-7.23,8.56,8.56,0,0,0-3.18-5.88A59.34,59.34,0,0,0,355,85.54l-.71-.17a14.31,14.31,0,0,1-7-3.82c-3.25,1.43-8.48,2.81-13.54-1h-4.05c-2.66.23-5.26.23-7.78.23h-.33a63.45,63.45,0,0,1-9.89-1.24c-1.06-.21-2.33-.51-3.59-.8s-2.3-.55-3.39-.76l-.27-.07a81.07,81.07,0,0,0-12.61-2.14,27,27,0,0,0-21.38,7.16l-.2.18a14.52,14.52,0,0,1-8,3.33l-7.52,1c-3.08.4-6.28.82-9,1.4a10.1,10.1,0,0,0-1.53.41c-.79,3.7-4,6-6.57,6.91-12.14,4.75-22.29,13-32.87,26.87a10.81,10.81,0,0,1-1.75,2.08c-.13.13-.27.26-.39.39l-.23.45-.52.52c-.41.41-.77.82-1.1,1.19s-.81.92-1.2,1.31A13.49,13.49,0,0,0,197.07,132.36Z"/></svg>