<svg id="Livello_1" data-name="Livello 1" xmlns="http://www.w3.org/2000/svg" viewBox="0 0 244.83 312.09"><defs><style>.cls-1{fill:#5156a1;}.cls-2{fill:#fff;stroke:#5156a0;stroke-linecap:round;stroke-linejoin:round;stroke-width:2px;}.cls-3{fill:#5156a0;}.cls-4,.cls-5{fill:#5057a3;}.cls-4{stroke:#5057a3;stroke-miterlimit:10;stroke-width:0.25px;}</style></defs><path class="cls-1" d="M1.15,316.3s10.51-77.1,26.63-99.53S86,183.13,86,183.13,102.07,233.59,122.4,235s37.85-51.87,37.85-51.87,42.75,12.62,56.77,35,26.63,98.17,26.63,98.17Z"/><path class="cls-1" d="M166.65,55.47h.94l.8-.08.24.87a90.33,90.33,0,0,1,3.15,23.87c0,37.31-22.17,67.7-49.37,67.7S73.06,117.44,73.06,80.11a91.15,91.15,0,0,1,2.35-20.73l.17-.72.64-.11m1,2.12a88.52,88.52,0,0,0-2.12,19.44c0,36.08,21.24,65.45,47.35,65.45s47.37-29.37,47.37-65.45a87.51,87.51,0,0,0-2.84-22.37h-.29"/><path class="cls-2" d="M170.93,49.55V72c-29.44-8.74-68.19-8.74-97,0,0-.68-.1-1.32-.1-2,0-7.13,0-14.26,0-21.39,0-2.34.09-4.48,0-6.61a6.4,6.4,0,0,1,3.38-6.35,39.47,39.47,0,0,1,7.69-3.44c7.77-2.38,15.81-3.14,23.88-3.68a181.4,181.4,0,0,1,45.48,2.23c4.58.86,9.1,2,13.08,4.61,2.44,1.6,3.87,3.68,3.68,6.77C170.81,44.56,170.93,47,170.93,49.55Z"/><path class="cls-3" d="M213.21,34.46l-2.51.91-17,6.07-6.48,2.31L181.06,46h0l-10.1,3.6c0-2.58-.12-5,0-7.38.19-3.09-1.24-5.17-3.68-6.77-4-2.59-8.5-3.75-13.08-4.61a181.4,181.4,0,0,0-45.48-2.23c-8.07.54-16.11,1.3-23.88,3.68a39.47,39.47,0,0,0-7.69,3.44A6.4,6.4,0,0,0,73.77,42c.12,2.13,0,4.27,0,6.61,0,.3,0,.6,0,.91l-8.55-3q-16.3-5.8-32.6-11.61a8.23,8.23,0,0,0-1-.22v-.36c6.88-2.41,13.77-4.8,20.63-7.25q34.28-12.19,68.53-24.4A5.1,5.1,0,0,1,124,2.61c20.52,7.27,41,14.62,61.53,21.9a3.37,3.37,0,0,1,.54.22l24.67,8.84Z"/><path class="cls-4" d="M37.13,136.17l-7.27,0-.36.15c.19.22.4.43.6.63a13.84,13.84,0,0,0,1.29,1.14,4.5,4.5,0,0,0,4.26.05A14,14,0,0,0,36.94,137q.33-.33.66-.69Z"/><path class="cls-5" d="M38.94,129.73a3.77,3.77,0,0,1,.09,4.9c-.47.57-.94,1.12-1.43,1.65q-.33.36-.66.69a14,14,0,0,1-1.29,1.15,4.5,4.5,0,0,1-4.26-.05,13.84,13.84,0,0,1-1.29-1.14c-.2-.2-.41-.41-.6-.63-.41-.44-.81-.9-1.2-1.36a4.2,4.2,0,0,1,.08-5.47l3.67-4.18a2,2,0,0,1,3,0Z"/><path class="cls-4" d="M36.94,137a14,14,0,0,1-1.29,1.15,4.5,4.5,0,0,1-4.26-.05,13.84,13.84,0,0,1-1.29-1.14l3.36-.76Z"/><path class="cls-4" d="M47.89,156v0l0,0Z"/><path class="cls-4" d="M48.5,156a.59.59,0,0,0,0,.08.22.22,0,0,1,0-.08Z"/><path class="cls-5" d="M48.5,156a.59.59,0,0,0,0,.08.22.22,0,0,1,0-.08Z"/><path class="cls-5" d="M49.92,151.63h0l0-.19C49.91,151.51,49.92,151.57,49.92,151.63Z"/><path class="cls-5" d="M50.06,151.61c0,.16-.06.34-.1.5,0-.16,0-.32,0-.48Z"/><path class="cls-5" d="M51.58,167.79c-.92-.48-1.21-1.11-.88-2a34.7,34.7,0,0,1,2.65-6.12c3.52-5.61,3-12-1.72-16.75a21.51,21.51,0,0,0-9.27-5.47c-1.57-.46-3.17-.81-4.76-1.21q-.33.36-.66.69a14,14,0,0,1-1.29,1.15,4.5,4.5,0,0,1-4.26-.05,13.84,13.84,0,0,1-1.29-1.14c-.2-.2-.41-.41-.6-.63a3,3,0,0,1-.38.15c-3,1-6.2,1.61-9,3-8.46,4.29-11.75,13.34-5.78,21.34,1.08,1.47,1.4,3.53,2,5.34a1.37,1.37,0,0,1-.38,1.25c-3.48,1.76-3.95,4.83-3.86,8.26.12,4.44,2.69,7.09,7.11,7.09h6.7v4.36c-.28.07-.49.13-.7.16-3.46.47-4.86,2.07-4.86,5.61,0,1.6,0,3.19,0,4.79a4.79,4.79,0,0,0,4.12,4.86c.46.07.94.09,1.53.15l15.05,0h0c.69,0,1.18,0,1.65-.1a4.36,4.36,0,0,0,4-3.79,55.54,55.54,0,0,0,0-7.74A4.14,4.14,0,0,0,43,187.41c-.6-.09-1.19-.15-1.82-.23v-4.41h7a6.26,6.26,0,0,0,6.59-5.64,20,20,0,0,0,0-4.76A5.61,5.61,0,0,0,51.58,167.79Zm-9.77,23.94a2.13,2.13,0,0,1,2.13,2.13v2.4a2,2,0,0,1-2,2l-8.17,0c-2.95,0-5.89-.08-8.84,0-1.39,0-1.87-.45-1.79-1.81,0-.64,0-1.29,0-1.94A2.75,2.75,0,0,1,26,191.73Zm-13.62-4.56v-4.33h11v4.33Zm20.14-6.94h-31c-2.72,0-3-.46-3-4.62,0-.8,0-1.59,0-2.39-.12-2.69.73-3.74,2.45-3.74h17c5.47,0,10.92,0,16.39,0,2.19,0,2.6.69,2.64,4C52.79,180.23,52.79,180.23,48.33,180.23Z"/><path class="cls-2" d="M46.58,302a13.08,13.08,0,1,1-26.16-.12,13,13,0,0,1,5-10.21l.57-89,15.05,0h0l.12,88.67A13.09,13.09,0,0,1,46.58,302Z"/><path class="cls-5" d="M50.33,151.57l-.27,0a1.52,1.52,0,0,0,0-.21A.81.81,0,0,1,50.33,151.57Z"/><path class="cls-5" d="M50.47,151.74a1.15,1.15,0,0,0-.14-.17l.13,0Z"/><path class="cls-5" d="M17.06,149.58c0-.05,0-.11-.08-.15l0-.08Z"/><path class="cls-5" d="M48.5,156a.59.59,0,0,0,0,.08.22.22,0,0,1,0-.08Z"/><path class="cls-5" d="M49.92,151.63h0l0-.19C49.91,151.51,49.92,151.57,49.92,151.63Z"/><path class="cls-5" d="M50.06,151.61c0,.16-.06.34-.1.5,0-.16,0-.32,0-.48Z"/><path class="cls-5" d="M50.33,151.57l-.27,0a1.52,1.52,0,0,0,0-.21A.81.81,0,0,1,50.33,151.57Z"/><path class="cls-5" d="M50.47,151.74a1.15,1.15,0,0,0-.14-.17l.13,0Z"/></svg>