<svg id="Livello_1" data-name="Livello 1" xmlns="http://www.w3.org/2000/svg" viewBox="0 0 244.83 312.09"><defs><style>.cls-1{fill:#5156a1;}</style></defs><path class="cls-1" d="M183.07,33.84c-1.19-6.37-3.7-14.05-12.64-16.94l.08-.08c.3-.31.62-.61,1-.89l2.08-1.83-2-.55c-.38-.11-.71-.22-1-.33a5.66,5.66,0,0,0-2.15-.44,83.39,83.39,0,0,0-8.64.71h-.49c0-.07,0-.18-.07-.34a7.76,7.76,0,0,0-3.42-5.68,31,31,0,0,0-6.24-2.67l-.48-.15c-1-.32-1.39-.49-1.62-1.07a2.18,2.18,0,0,0-1.18-1.31,2.62,2.62,0,0,0-2,.2l-.41.2c-1.53.75-2.15.94-3,.07a2.62,2.62,0,0,0-2-.55h-.18l-2.08.05c-1.07,0-2.17.08-3.22.06a25,25,0,0,1-3.77-.44c-1-.2-2.1-.43-3.14-.66A45.32,45.32,0,0,0,120.12.09,16.17,16.17,0,0,0,107.19,4.5a3.44,3.44,0,0,1-1.29.38c-1,.17-2,.32-2.94.45-1.57.23-3.18.46-4.76.78a4.52,4.52,0,0,0-4,3.33L94,9.58C87.75,12,82.57,16.29,77.21,23.36c-.16.2-.31.39-.48.58s-.38.44-.54.66-.56.67-.86,1a9.89,9.89,0,0,0-2,2.8,76.68,76.68,0,0,0-5.15,22.9c-.34,4.67-.3,9.44-.25,14.06v6.41a46.89,46.89,0,0,0,2.6,15.75.54.54,0,0,0,0,.18l.07.22a2.81,2.81,0,0,1,.1.31c.2.64.38,1.29.56,2l.28,1.1.07.27,1.06,3.62h0c.16,35.58,24.18,64.47,53.69,64.47s53.69-29.09,53.69-64.84c0-1,0-2.11-.06-3.15l.1-2a2.16,2.16,0,0,1,.14-.57c.12-.48.26-.95.4-1.43l.12-.4h0v-.08c.28-.93.53-1.78.74-2.68a11.72,11.72,0,0,0,.27-1.66c1-8.12,1.77-16.29,2.6-24.64A86.1,86.1,0,0,0,183.07,33.84ZM126.43,157.5c-28.41,0-51.52-28.12-51.52-62.67a74.64,74.64,0,0,1,2.25-18.34,120.33,120.33,0,0,0,13.23-3.1c19.93-5.88,37.43-16.83,47.58-29.63,1.36,16.61,17.38,29.79,37,30a72.52,72.52,0,0,1,2.66,15.54l.25,2.36c0,1,.07,2.1.07,3.15C178,129.38,154.84,157.5,126.43,157.5ZM182.23,58c-.74,7.61-1.49,15.05-2.33,22.45l-.24,2.17c-.06.53-.17,1.05-.25,1.44a.14.14,0,0,0,0,.09v.07c-.2-1.52-.45-3-.74-4.52-.08-.5-.18-1-.31-1.51-.14-.68-.31-1.37-.47-2.06-.32-1.27-.64-2.52-1-3.77l-.25-.79h-1.15c-19.49,0-35.35-13.5-35.35-30.1v-.91l.13-3.74-2.15,3.07C128.63,53.4,110.56,65.13,89.78,71.3A114.58,114.58,0,0,1,76,74.47l-.73.12-.17.7A75.68,75.68,0,0,0,73,87.8v-.14a3.38,3.38,0,0,0-.13-.42v-.1l-.06-.22c-.2-.59-.4-1.18-.58-1.78a44.76,44.76,0,0,1-1.93-13.31V65.38c0-4.57-.09-9.3.25-13.89a74.81,74.81,0,0,1,5-22.18,7.89,7.89,0,0,1,1.56-2.16l1-1.11c.15-.2.31-.39.47-.58s.38-.44.55-.67c5.11-6.73,10-10.76,15.82-13.06.33-.14,1.46-.65,1.61-1.61s.76-1.46,2.23-1.76,3.11-.53,4.64-.75l3-.45a4.51,4.51,0,0,0,2.45-1,14,14,0,0,1,11.22-3.78,43.54,43.54,0,0,1,6,1.05c1.07.25,2.14.48,3.22.68a28.14,28.14,0,0,0,4.1.48c1.14,0,2.28,0,3.36-.06l2,0h.74c2,1.92,4,.92,5.42.24l.39-.18.18-.07a4.08,4.08,0,0,0,3,2.35l.43.15a29,29,0,0,1,5.8,2.46,5.67,5.67,0,0,1,2.36,4.11,2.63,2.63,0,0,0,1,1.88,2.87,2.87,0,0,0,2.09.29,79.38,79.38,0,0,1,8.43-.69,1.84,1.84,0,0,1,.57.09l-.2.21a2.36,2.36,0,0,0-.76,2.25A2.05,2.05,0,0,0,169.73,19c6.24,2,9.6,6.56,11.23,15.26a91.9,91.9,0,0,1,1.68,16.87c0,2.33-.14,4.62-.36,6.85Z"/><path class="cls-1" d="M1.15,316.3s10.51-77.1,26.63-99.53S86,183.13,86,183.13,102.07,233.59,122.4,235s37.85-51.87,37.85-51.87,42.75,12.62,56.77,35,26.63,98.17,26.63,98.17Z"/><path class="cls-1" d="M244.83,317.3H0l.16-1.14c.43-3.15,10.73-77.6,26.81-100,8.46-11.77,24-20.4,35.53-25.56a173.93,173.93,0,0,1,23.2-8.47l.92-.24.29.91c.16.49,16.14,49.83,35.56,51.17s36.65-50.67,36.83-51.17l.3-.92.93.27a177.81,177.81,0,0,1,23.25,9.15c16.68,8,28.14,16.84,34.06,26.31,14,22.33,26.25,95.38,26.77,98.48ZM2.3,315.3H242.47c-1.67-9.64-13.49-76.1-26.3-96.59-12.53-20.05-49-32.35-55.29-34.33C158.39,191.65,142.4,236,123.19,236h-.86c-19.46-1.34-34.65-44.52-37-51.64-6.19,1.8-42.28,12.94-56.71,33C13.86,237.83,3.68,305.65,2.3,315.3Z"/></svg>