<svg id="Livello_1" data-name="Livello 1" xmlns="http://www.w3.org/2000/svg" viewBox="0 0 595.28 841.89"><defs><style>.cls-1{fill:#5057a3;}</style></defs><path class="cls-1" d="M435.64,141.48c-2.73-14.31-8.42-31.31-28.65-37.8l.23-.22,2-2,4.78-4-4.55-1.12c-.91-.22-1.59-.44-2.27-.67a12.05,12.05,0,0,0-4.78-.89,187.19,187.19,0,0,0-19.55,1.56h-1.13c0-.22-.23-.44-.23-.67a17.43,17.43,0,0,0-7.73-12.75,86.75,86.75,0,0,0-14.09-6l-1.14-.22c-2.27-.67-3.18-1.12-3.64-2.46a4.39,4.39,0,0,0-2.73-2.91,6.36,6.36,0,0,0-4.54.45l-.91.45c-3.41,1.79-5,2-6.82.22a5.65,5.65,0,0,0-4.55-1.12h-5.23c-2.5,0-5,.23-7.27.23-3-.23-5.68-.45-8.64-.9-2.27-.44-4.77-.89-7.05-1.56a104.86,104.86,0,0,0-14.32-2.46,37.12,37.12,0,0,0-29.32,9.84,11.54,11.54,0,0,1-3,.89c-2.27.45-4.55.67-6.59,1.12-3.64.45-7.28,1.12-10.91,1.79a9.92,9.92,0,0,0-8.87,7.38.85.85,0,0,1-.68.22c-14.1,5.6-25.92,15-38.19,30.87-.46.44-.69.89-1.14,1.34a4,4,0,0,0-1.14,1.57c-.45.44-1.36,1.56-2,2.23a24.84,24.84,0,0,0-4.55,6.26,171.66,171.66,0,0,0-11.82,51.22c-.68,10.51-.68,21-.46,31.53v14.32a103.94,103.94,0,0,0,5.91,35.33v.45l.23.45c0,.22.23.45.23.67.45,1.34.91,2.91,1.36,4.47l.69,2.46.22.67,2.5,8.06h0c.46,79.62,55,144.25,122.08,144.25S429.5,358.87,429.5,279c0-2.23,0-4.69-.23-6.93l.23-4.47c0-.45.22-.9.22-1.34.23-1.12.69-2.24.91-3.13l.23-.9h0V262a59.18,59.18,0,0,0,1.59-6c.23-1.12.46-2.46.68-3.8,2.05-18.12,4.1-36.46,5.91-55A215.74,215.74,0,0,0,435.64,141.48ZM307,418.14c-64.57,0-117.08-62.85-117.08-140.23a165.43,165.43,0,0,1,5-40.93,267.56,267.56,0,0,0,30-6.93c45.24-13.2,85-37.58,108.21-66.21,3.18,37.13,39.55,66.65,84.11,67.1a182.18,182.18,0,0,1,6.14,34.67l.45,5.36c0,2.24.23,4.7.23,6.94C424,355.29,371.53,418.14,307,418.14ZM433.82,195.6c-1.59,17-3.41,33.55-5.23,50.32l-.46,4.93a17.72,17.72,0,0,0-.45,3.13v.44c-.46-3.35-1.14-6.71-1.59-10.06-.23-1.12-.46-2.24-.68-3.36a36.36,36.36,0,0,0-1.14-4.69c-.68-2.91-1.37-5.59-2.27-8.5l-.46-1.79h-2.73c-44.33,0-80.25-30.19-80.25-67.32v-2l.23-8.28-5,6.94c-21.6,30.19-62.74,56.58-109.8,70.22a289.73,289.73,0,0,1-31.37,7.16L191,233l-.46,1.57a146.7,146.7,0,0,0-4.77,28v-.22c0-.22-.23-.67-.23-.89v-.23l-.23-.44c-.45-1.35-.91-2.69-1.36-4a94.11,94.11,0,0,1-4.32-29.75V212.38c0-10.29-.23-20.8.46-31.09a162.69,162.69,0,0,1,11.36-49.65,18.38,18.38,0,0,1,3.64-4.92,21.25,21.25,0,0,1,2.27-2.46c.46-.45.68-.9,1.14-1.34a4.14,4.14,0,0,0,1.14-1.57c11.59-15,22.73-24.15,35.91-29.3.69-.22,3.41-1.34,3.64-3.58s1.82-3.35,5-4,7.05-1.12,10.46-1.79l6.82-1.12A9.2,9.2,0,0,0,267,79.31a32.25,32.25,0,0,1,25.46-8.5c4.54.44,9.09,1.34,13.64,2.23,2.5.45,4.77,1.12,7.27,1.57a67.32,67.32,0,0,0,9.32,1.12c2.5,0,5.23,0,7.73-.23h6.14c4.55,4.25,9.09,2,12.27.45l.91-.45.46-.22A10.26,10.26,0,0,0,357,80.65l.91.22a56.84,56.84,0,0,1,13.18,5.59,13.93,13.93,0,0,1,5.46,9.17,6.63,6.63,0,0,0,2.27,4.25,5.94,5.94,0,0,0,4.78.67A183.25,183.25,0,0,1,402.67,99a3,3,0,0,1,1.37.22l-.46.45a5.91,5.91,0,0,0-1.82,4.92,4.42,4.42,0,0,0,3.41,3.13c14.1,4.47,21.83,14.76,25.46,34.22a211.35,211.35,0,0,1,3.87,37.79,89.85,89.85,0,0,1-.68,15.88Z"/><path class="cls-1" d="M307.42,428.42c-69.17,0-125.85-66.35-126.62-148l-3.25-10.69c-.42-1.45-.86-2.95-1.29-4.23l0-.11a4,4,0,0,1-.15-.39l-.5-1v-.75a109.05,109.05,0,0,1-5.91-36.09V212.82c-.28-12.75-.14-22.6.46-31.82a176.62,176.62,0,0,1,12.13-52.58l.16-.35a29.59,29.59,0,0,1,5.4-7.42c.31-.31.68-.73,1-1.1l.41-.47a9,9,0,0,1,1.76-2.23l.15-.2a9.86,9.86,0,0,1,.74-.88c12.24-15.79,24.24-25.59,38.71-31.61a14.66,14.66,0,0,1,11.82-8.39c3.53-.65,7.17-1.32,10.82-1.77,1.12-.24,2.31-.42,3.52-.61,1-.14,2-.29,2.95-.48.59-.12,1-.22,1.32-.32a42,42,0,0,1,32.33-10.48,110.26,110.26,0,0,1,14.9,2.56l.25.06c1.74.51,3.72.9,5.64,1.27l1,.2c2.52.37,5,.58,7.92.81,1,0,2-.06,3.08-.11,1.32-.06,2.67-.12,4-.12h5a10.13,10.13,0,0,1,7.74,2.15l.08.07a17.75,17.75,0,0,0,1.69-.8l1-.5a11.06,11.06,0,0,1,7.84-.75A8.94,8.94,0,0,1,359,72.06l.7.22,1.47.32A91.83,91.83,0,0,1,376,79l.38.23a22.3,22.3,0,0,1,9,12.28c5-.59,10.61-1,16.93-1.2h0a16.87,16.87,0,0,1,6.51,1.17c.55.18,1.08.35,1.77.52l13.09,3.22-8.37,7c16.94,8.5,22.18,24.72,24.79,38.41,3.56,17.72,4.69,36.29,3.48,56.79-1.84,18.86-3.94,37.63-5.93,55.25l0,.24c-.24,1.42-.48,2.8-.71,4-.45,2-.88,3.9-1.5,5.86v.07l-.37,1.43c-.11.45-.27.94-.44,1.47s-.26.8-.37,1.22A7,7,0,0,1,434,268l-.19,4c.21,2.35.21,4.84.21,7C434,361.4,377.24,428.42,307.42,428.42ZM198.62,240.86a162.6,162.6,0,0,0-4.18,37.05c0,74.85,50.48,135.75,112.53,135.75,29.84,0,58-14,79.23-39.46,21.47-25.71,33.29-59.91,33.29-96.29,0-1.05-.05-2.16-.11-3.26s-.11-2.36-.11-3.49l-.44-5.18a178.3,178.3,0,0,0-5.13-30.66c-40.86-1.78-75.31-27.51-83.51-61.24-24.36,26.21-61.65,47.9-104,60.25A263.93,263.93,0,0,1,198.62,240.86ZM434,267.62v.31C434,267.85,434,267.74,434,267.62ZM185,262.93c.27.79.53,1.65.79,2.54.07-.94.14-1.89.22-2.83l-1.1,0A1.78,1.78,0,0,1,185,262.93Zm241.79-8.15q.24,1.78.45,3.57c.28-1.06.52-2.14.78-3.26,0-.13.05-.26.08-.4ZM195.63,133.47a158.06,158.06,0,0,0-11,48.11c-.53,8.08-.5,16.47-.46,24.59q0,3.12,0,6.21v14.54a84.15,84.15,0,0,0,.59,11.93q.63-2.76,1.38-5.49l1.28-4.43,4.52-.63a282.61,282.61,0,0,0,30.75-7c46.08-13.35,86.22-39,107.34-68.5l13.67-19-.63,23v1.89c0,34.65,34,62.85,75.7,62.85h6.28l1.09,4.3c1.09-10.11,2.15-20.38,3.11-30.66l0-.16a86.11,86.11,0,0,0,.65-15.14,206.92,206.92,0,0,0-3.79-37.1c-3.32-17.79-9.74-26.71-22.12-30.74a9,9,0,0,1-6.66-6.24l-.14-.68a11.06,11.06,0,0,1-.08-1.4c-4.59.27-8.77.67-12.69,1.21a10.53,10.53,0,0,1-8.2-1.34l-.39-.28A10.94,10.94,0,0,1,372,96.26a9.5,9.5,0,0,0-3.55-6.11,53,53,0,0,0-11.9-5l-.7-.16a14.47,14.47,0,0,1-7.18-4c-3.39,1.43-8.67,2.79-13.83-1h-4.29c-2.64.22-5.45.22-7.93.22h-.32A69,69,0,0,1,312.38,79c-1.2-.21-2.47-.51-3.74-.81-1.12-.26-2.23-.52-3.4-.73-4.68-.92-9-1.76-13.28-2.18a27.72,27.72,0,0,0-21.84,7.26,13.4,13.4,0,0,1-8,3.45l-6.7,1.1c-1.52.3-3.3.58-5.05.85s-3.6.56-5.2.9a8.5,8.5,0,0,0-1.48.43c-.56,3.71-3.8,6.06-6.54,7C225,101,214.65,109.47,203.63,123.62a8.76,8.76,0,0,1-1.88,2.45l-.16.21a10.87,10.87,0,0,1-1,1.14,18.17,18.17,0,0,0-1.85,2l-.43.48A14,14,0,0,0,195.63,133.47Z"/><path class="cls-1" d="M22.12,773.29S46,600.86,82.59,550.76,214.9,475.61,214.9,475.61s36.6,112.95,83,116.08C344,594.82,383.8,475.61,383.8,475.61s97.3,28.18,129.13,78.28S573.4,773.52,573.4,773.52l-551.28-.23Z"/><path class="cls-1" d="M578.76,778l-561.85-.23.7-5.07c1-7.09,24.45-174.12,61.29-224.54,15.65-21.43,43.15-40.89,81.71-57.83a393.58,393.58,0,0,1,53.12-19l4.18-1.1,1.32,4.06c9.92,30.61,43.46,110.58,79,113,35,2.31,70.54-80.78,81.3-113l1.38-4.12,4.23,1.22c4,1.17,99.32,29.25,131.69,80.2,31.94,50.28,59.93,214.3,61.1,221.26Zm-551.4-9.17L568,769c-5.12-28.83-31-168.89-58.93-212.78-26.89-42.32-103.7-69.07-122.41-75.07a444.24,444.24,0,0,1-24.49,55.72c-21.77,40.74-43.54,60.69-64.61,59.24S255.56,574,235,534.52a427,427,0,0,1-23-53.43c-18.51,5.43-94.71,29.87-125.69,72.28C54.24,597.23,31.65,740,27.36,768.82Z"/><path class="cls-1" d="M576.13,775.53H19.62l.45-2.46C21,765.91,44.4,599.52,81,549.42c19.32-26.39,54.56-45.63,80.7-57.26a401.36,401.36,0,0,1,52.74-19l2.05-.44.68,2c.45,1.12,36.6,111.38,80.93,114.51,44.1,2.91,83.43-113.39,83.66-114.51l.68-2,2.05.67a410.76,410.76,0,0,1,53,20.57q57,26.85,77.52,58.82c31.83,49.88,59.56,213.37,60.93,220.3ZM24.62,771.06H570.67c-3.86-21.47-30.69-170.2-59.79-216-28.42-44.73-111.39-72.46-125.71-76.71-5.69,16.32-42.06,115.4-85.71,115.4h-2c-44.33-2.91-78.66-99.52-84.12-115.4-14.09,4-96.16,28.85-128.89,73.8C51,597.73,27.8,749.59,24.62,771.06Z"/><path class="cls-1" d="M581.1,780H14.17l1.41-7.62c.76-5.67,23.91-173.81,61.73-225.57,19.75-27,55.77-46.83,82.52-58.72a404.34,404.34,0,0,1,53.34-19.23l.28-.07,6.06-1.33,2,5.85.21.59c17.13,49.85,47.51,108.8,76.74,110.87,15.95,1,34.43-17.08,53.42-52.42a418.26,418.26,0,0,0,25.49-58.71l.1-.33,2.12-6.26,6.36,2.08a413.89,413.89,0,0,1,53.48,20.78c38.63,18.21,65.34,38.55,79.42,60.47,26.24,41.13,49.44,154.52,60.93,218.46.32,1.77.52,2.92.61,3.38l.07.44ZM29.89,766.58H565.24c-8.24-45-32.66-168.93-58.22-209.2-26-40.92-100.62-67.45-119-73.49-4.19,11.54-14,36.71-27.47,60.42-20.35,35.74-40.89,53.86-61.06,53.86h-2.34c-43-2.81-75.71-83.48-86.69-114.35-22.27,6.73-93,30.65-122.33,70.9C57.7,596.22,35.65,728.94,29.89,766.58Z"/></svg>